<?xml version="1.0" encoding="utf-8"?>
<!-- Generator: Adobe Illustrator 17.0.0, SVG Export Plug-In . SVG Version: 6.00 Build 0)  -->
<!DOCTYPE svg PUBLIC "-//W3C//DTD SVG 1.1//EN" "http://www.w3.org/Graphics/SVG/1.1/DTD/svg11.dtd">
<svg version="1.1" id="Layer_1" xmlns="http://www.w3.org/2000/svg" xmlns:xlink="http://www.w3.org/1999/xlink" x="0px" y="0px"
	 width="980.79px" height="76.535px" viewBox="0 0 980.79 76.535" enable-background="new 0 0 980.79 76.535" xml:space="preserve">
<path fill="#FFFFFF" d="M980.787,51.893c0,0-0.923-0.345-1.384-0.536c-0.852-1.323-1.705-2.645-2.557-3.968
	c-1.273-0.911-2.596-0.483-3.916-0.147c-1.166,0.959-1.864,3.19-4.011,1.479c-0.503-2.518-2.702-0.473-3.79-1.414
	c-0.251-0.768-1.021-0.712-1.578-0.971c-2.463-1.147-2.755-2.325-0.064-3.53c1.993-0.892,0.565-2.154,0.401-3.283
	c0.722-1.036,0.641-1.826-0.681-2.238c-0.212-1.267-0.127-2.652-1.389-3.5c-0.125-0.199-0.303-0.284-0.536-0.255
	c-0.211-0.71-0.705-0.87-1.365-0.703c-1.217-1.661-2.242-0.528-3.293,0.226h0c-0.802,0.173-1.085,0.795-1.542,1.422
	c-2.112,2.898-4.551,5.653-0.502,8.875c0.359,0.285,0.459,0.801,0.043,1.113c-0.315,0.237-0.944,0.522-1.143,0.379
	c-2.614-1.874-6.332-2.15-7.949-5.464c-0.066-0.828-0.132-1.656-0.197-2.485c0.081-2.185-2.391-1.92-3.153-3.297
	c-0.544-0.599-0.322-1.736-1.35-1.987c-3.048-0.745-3.938-3.461-5.278-5.769c-1.395-1.746,0.454-4.223-1.319-5.884
	c-0.878-1.883-2.041-1.599-3.568-0.687c-1.546,0.924-1.813,1.999-0.922,3.408c1.715,2.714,2.666,5.821,4.213,8.564
	c1.873,3.32,1.115,5.754-1.096,8.285c-0.49,0.561-0.808,1.273-1.205,1.916l0,0c-1.291,1.095-2.123,2.19-0.008,3.293
	c0.562,0.743,0.792,1.807,1.926,1.994c0.737,1.141,1.642,1.305,2.718,0.469c1.375-0.762,2.497-1.172,2.46,1.193
	c-0.012,0.775,0.51,1.558,0.787,2.337c0.041,0.396,0.082,0.791,0.123,1.186c0.005,0.662,0.009,1.323,0.014,1.985
	c-1.488,1.867-1.969,4.458-4.32,5.741c-0.717,0.391-1.555,1.301-2.132,0.965c-0.923-0.538-0.468-1.592-0.195-2.576
	c0.727-2.623,0.193-5.124-1.274-7.418c-0.164-1.22-0.969-1.409-1.994-1.243c-4.862-0.145-5.999,0.938-5.836,5.557
	c0.026,0.744,0.044,1.487,0.066,2.231c-0.437,1.118,2.983,3.87-1.4,3.315c0,0,0,0,0,0c0,0,0,0,0,0
	c-3.598-2.088-5.742-5.41-7.422-9.048c-0.578-1.253-0.595-2.714,0.464-3.902c1.426-1.601,2.862-3.194,4.293-4.79
	c1.311-0.027,1.447-0.897,1.369-1.919c0.338-1.947,1.432-3.713,1.373-5.755c0.197-0.395,0.233-0.812,0.184-1.24
	c0.305-2.052,0.61-4.105,0.915-6.157c0,0,0,0,0,0c0,0,0,0,0,0c0.124-0.171,0.193-0.362,0.206-0.573
	c2.151-2.689,1.677-5.118-0.727-7.356c-0.827-1.441-1.708-1.379-2.631-0.092c0,0,0,0,0,0c-0.778,0.567-0.719,1.381-0.647,2.198
	c-1.44,0.227-1.328,0.993-0.674,1.948c0.001-0.002,0.002-0.004,0.002-0.006c0.582,1.109,1.164,2.217,1.745,3.326h0
	c-0.005,0.154,0.046,0.288,0.152,0.4c-0.847,1.255-1.332,2.608-1.126,4.15l-0.161-0.075c-0.171,0.056-0.347,0.077-0.527,0.063
	c-0.424,0.83-0.809,1.673-1.064,2.56c-0.24,0.443-0.468,0.894-0.753,1.31c-0.278,0.579-0.467,1.191-0.661,1.8
	c-0.132-4.472-0.169-4.538-2.761-4.891c-0.06,0.308-0.121,0.615-0.181,0.923c-0.848,0.232-2.085,0.007-1.822,1.551
	c-0.864,1.349-1.727,2.698-2.59,4.047c-1.175,1.433-0.053,3.118-0.501,4.636c-0.158,0.534-0.273,1.092-0.958,1.07
	c-0.767-0.024-0.665-0.658-0.694-1.168c-0.091-1.572,0.573-3.207-0.397-4.705c-0.642-2.176-2.294-3.265-4.345-3.002
	c-2.026,0.26-3.489,1.732-3.826,3.877c-0.252,1.607-0.242,3.255-0.349,4.885c-0.05,0.341-0.099,0.682-0.149,1.023
	c-0.629-0.014-1.257-0.027-1.886-0.041c-1.99-0.005-3.981-0.009-5.971-0.014l0.088-0.157c-5.228-0.889-8.242-4.745-11.347-8.487
	c-0.203-0.202-0.357-0.424-0.494-0.655c0.016-0.437,0.032-0.874,0.048-1.312c-0.009-1.06-0.019-2.121-0.028-3.181c0,0,0,0,0,0h0
	c-0.042-0.684-0.148-1.343-1.055-1.279c-0.699,0.049-0.776,0.632-0.87,1.17c-0.185,0.177-0.369,0.354-0.554,0.531
	c-0.284-1.146-1.219-1.742-2.043-2.433c-0.182,0.43-0.363,0.859-0.544,1.289c0.184,0.444,0.296,0.998,0.996,0.657
	c0.025,0.328,0.05,0.656,0.074,0.983v0c-2.392,0.884-2.886,2.085-0.623,3.746c0.233,0.192,0.466,0.383,0.699,0.575
	c0.697,0.839,1.393,1.679,2.09,2.518c-0.112,0.978,0.465,1.571,1.167,2.093c1.755,5.129,5.302,8.334,10.474,9.796
	c0.438,0.894,1.082,1.389,2.129,1.108c3.614,0.851,2.932,4.237,3.906,6.646c0.125,3.459-2.471,0.402-3.369,1.412
	c0.195,0.077,0.389,0.163,0.583,0.246c-0.202-0.047-0.399-0.115-0.583-0.246c-0.223-0.01-0.447-0.02-0.671-0.03
	c-0.58-0.28-1.109-0.584-0.617-1.354c2.215-1.577,2.21-2.862-0.016-3.91c-1.531,0.128-1.273,1.015-0.836,1.978
	c-1.226,0.337-1.661,1.944-3.1,1.939c-1.913,0.471-2.528-0.897-3.163-2.239c0,0,0,0,0,0c-0.001-1.694-1.884-2.915-1.06-4.919
	c0.299-0.729-0.633-1.457-1.663-1.355c-2.219-0.566-1.906,1.621-2.756,2.544c0,0,0,0,0,0c-0.781,0.039-0.954,0.694-1.243,1.231
	c-1.803,0.328-1.104,1.702-1.151,2.764c-0.565,2.972-2.837,1.952-4.675,2.044c-2.688,0.135-2.913-0.826-1.298-2.713
	c0.898-0.338,1.302-1.006,1.299-1.947h0c0.017-0.915,0.091-1.863-1.198-1.988c-0.312-1.311-0.224-2.877-2.049-3.224
	c-0.206-0.051-0.412-0.102-0.618-0.153c-0.636-1.323-0.475-3.042-1.956-3.944c-1.683-0.034-2.163-1.661-3.259-2.472v0
	c-0.667,0.049-1.295,0.172-1.259,1.044c0.028,0.68,0.572,0.797,1.098,0.906c0.272,1.432-0.204,3.106,1.331,4.13
	c-0.53,2.051-0.484,4.344-2.426,5.803c-1.271-1.394-2.149-1.146-2.66,0.638c-0.093,0.446-0.051,0.966-0.627,1.146
	c-0.325-0.595-0.04-1.837-0.937-1.715c-0.914,0.124-0.351,1.166-0.341,1.822c-0.03,0.318-0.098,0.639-0.082,0.955
	c0.107,2.214-1.122,3.787-3.115,3.511c-2.485-0.344-0.974-2.465-0.928-3.874c0.007-0.207,0.111-0.411,0.171-0.616
	c1.828-0.499,1.107-2.004,1.246-3.17c0.889-1.557,1.779-3.115,2.668-4.672c1.196-0.218,1.287-1.079,1.188-2.05
	c1.978-3.818,2.583-7.718,0.701-11.767c0.083-0.221,0.053-0.426-0.09-0.614c-0.059-1.046-0.671-1.833-1.229-2.646
	c0.008-0.929,0.203-1.908-0.682-2.602c-0.817-1.605-1.383-3.261-1.657-5.075c-0.294-1.952-1.979-2.498-3.462-1.804
	c-1.394,0.652-2.323,2.444-0.82,3.654c1.393,1.121-0.34,2.381,0.678,3.253c-0.331,1.517-0.913,3.04,0.103,4.526
	c0.084,1.424-0.553,3.054,1.148,4.013c0.713,2.843-1.393,4.622-2.745,6.529c-0.787,1.11-2.698,2.091-3.999,0.99
	c-0.916-0.775-2.459-1.38-1.796-3.841c1.129-4.19-0.196-5.923-3.773-7.757c-0.871-1.455-1.741-1.456-2.608,0.003
	c-1.161,0.908-2.329,1.812-2.709,3.354c-0.51,0.092-1.033,0.187-1.113,0.833c-0.102,0.823,0.456,1.036,1.107,1.143
	c0.126,0.208,0.128,0.417,0.007,0.628c-1.881,1.13-1.977,2.234,0.048,3.308c0.338,0.626,0.359,1.148-0.216,1.724
	c-2.343,2.348-2.739,6.085-5.672,8.025c-1.209,1.322-1.857,2.863-1.811,4.673c-0.392,2.31-0.046,4.764-1.346,7.033
	c-1.491-1.364-3.239-1.932-5.137-1.912c-1.348,0.014-2.369-0.483-3.556-1.131c-3.226-1.762-4.879-4.957-7.238-7.474
	c-0.942-1.005-2.043-2.636-1.166-4.439c1.102-1.317,1.259-2.632-0.011-3.942c-0.987,0.314-0.114,1.801-1.264,2.012l-0.052,0.032
	c-0.145-2.026-0.066-4.231-3.131-3.908c-0.825-0.119-1.501,0.159-1.779,0.947c-0.242,0.686,0.337,0.873,0.871,0.997
	c0.115,0.191,0.138,0.392,0.07,0.604c0.079,0.817-1.263,1.745-0.068,2.474c-0.046,0.41,0.054,0.764,0.424,1.023
	c0.187-0.078,0.34-0.131,0.466-0.162c0.122,0.308,0.243,0.616,0.365,0.924c-0.022,0.079-0.043,0.158-0.057,0.23
	c-0.04,0.214-0.054,0.43-0.032,0.645c1.269,2.597,2.425,5.162-1.566,6.511c-0.231,0.078-0.298,0.542-0.38,0.853
	c-0.039,0.22-0.031,0.441-0.022,0.663c-0.383,0.29-0.382,0.745-0.433,1.178c-1.866-0.612-0.872-2.127-0.921-3.226
	c-0.076-1.734,0.76-3.512-0.294-5.198c-0.055-0.216-0.039-0.427,0.05-0.632c1.349-0.341,1.642-0.923,0.991-2.32
	c-0.484-1.04-0.81-1.864-1.959-1.638c-0.194-0.162-0.378-0.328-0.351-0.641c-0.043-0.442-0.087-0.885-0.13-1.327
	c0.062-0.587,0.125-1.173,0.188-1.76c0.86-2.46,1.72-4.92,2.58-7.379c0.844-2.204,0.797-4.417,0.071-6.638
	c0.707-2.573-1.236-5.157,0.034-7.728c2.736-1.952-0.655-2.683-0.806-4.06c-0.655,0.008-1.31,0.016-1.964,0.024
	c-0.007-0.204-0.039-0.404-0.097-0.599l0.134,0.109l0.139-0.103c-0.062-0.228-0.124-0.457-0.187-0.685
	c-0.045-0.617,0.241-1.443-0.587-1.668c-0.796-0.217-1.102,0.477-1.337,1.111c0,0,0,0,0,0c0,0,0,0,0,0
	c-0.008,1.062-0.015,2.124-0.023,3.186c0.155,0.658,0.31,1.315,0.465,1.973c0.086,0.499,0.295,0.772,0.712,0.67
	c-0.083,2.727-2.597,4.819-2.011,7.719c0.052,0.057,0.066,0.115,0.101,0.173c0,0.008,0.001,0.015,0.002,0.023
	c-1.192-0.2-1.162,0.855-1.354,1.534c-0.38,1.346-0.734,2.693-1.319,3.968c-1.559,3.396-2.323,3.535-4.791,0.87
	c-0.438-0.473-0.898-0.924-1.454-1.254c-3.881-1.283-5.208-0.662-8.941,4.197c-0.066,0.137-0.08,0.281-0.133,0.419
	c-0.096-0.017-0.192-0.034-0.287-0.051c0-0.085,0.015-0.169,0.006-0.254c-0.381-1.768-2.135-2.614-2.805-4.188
	c-0.843-0.947-1.489-2.007-1.663-3.279c-0.242-1.772-0.456-3.539-2.11-4.661c0.248-1.336-0.903-2.161-1.199-3.298
	c-0.001-0.623-0.002-1.246-0.003-1.869c2.118-1.885,1.05-4.383,1.27-6.633c-2.806-1.315-2.422,2.05-3.907,2.673
	c-1.279,1.746-0.994,3.474,0.061,5.192c-0.138,1.512,0.37,3.052-0.194,4.546c-0.453,1.562,0.074,3.083,0.187,4.622
	c-0.141,0.956,0.077,1.841,0.538,2.676c0.607,1.923-0.589,4.243,1.295,5.884l0.107-0.057c0.013,0.676,0.027,1.351,0.04,2.027
	l-0.18-0.079c-0.814,0.08-1.205,0.546-1.229,1.348c0.14,0.28,0.35,0.436,0.591,0.538c-0.004,0.029-0.012,0.057-0.017,0.086
	c0.278,3.012,1.858,5.556,2.987,8.253c1.469,3.509,0.969,7.117-0.689,10.103c-1.383,2.49-4.415,0.397-6.697,0.597
	c-0.41,0.036-0.88-0.019-1.106-0.771c0.875-1.82,1.572-3.91,1.078-6.12c-0.232-1.039-0.257-2.657-2.024-2.017
	c0-0.043,0-0.087,0-0.13c-0.096-0.054-0.192-0.107-0.289-0.161c0.116-0.694-0.156-1.23-0.773-1.624
	c-0.511-0.28-1.051-0.289-1.593-0.273c-0.206-0.029-0.41-0.014-0.615,0.016c-0.248,0-0.495-0.013-0.738-0.064
	c-1.457,0.037-2.077-1.351-3.203-1.872c-0.188-0.049-0.378-0.059-0.571-0.03c0.133-1.063-0.552-1.585-1.344-2.035
	c-0.024-0.392-0.048-0.783-0.072-1.175c0.074-0.954-0.006-1.82-1.171-2.071l-0.12,0.076c-0.323-1.431-0.414-2.976-1.034-4.264
	c-0.653-1.356-0.009-3.953-2.861-3.595c-0.177-0.101-0.364-0.127-0.562-0.076c-0.547-0.74-0.658-2.346-1.778-1.956
	c-1.013,0.353-0.482,1.427,0.316,2.025c0.032,1.5-0.051,3.035,1.289,4.125c0.508,2.114,1.25,4.122,2.641,5.835c0,0,0,0,0,0
	c0,0,0,0,0,0c0.053,0.387,0.106,0.774,0.158,1.161c0.199,0.857,0.399,1.714,0.598,2.57c-0.122,1.492-0.459,3.047,1.17,4.028v0
	c1.158,2.547-1.627,3.744-1.971,5.777c-1.077,0.178-1.187,1.041-1.328,1.882c-1.043,1.821-2.921,1.289-4.499,1.601
	c-0.244-1.109-2.071-0.706-2.005-2.11c-0.244-1.954,0.744-4.171-1.228-5.755c-0.191-0.171-0.381-0.342-0.573-0.513c0,0,0,0,0-0.001
	c0.365-1.155-2.11-1.486-0.974-2.608c1.864-1.84,0.091-2.263-0.915-3.061c-0.76-1.94-1.509-1.559-2.254,0.01
	c-1.102,0.601-1.389,1.697-1.688,2.786c-0.092,0.191-0.176,0.385-0.253,0.582c-0.647-0.333-0.643-1.46-1.648-1.357
	c-1.947-3.436-2.308,0.652-3.511,0.743c0.083,1.833,0.754,3.418,1.871,4.816c-0.064,0.225-0.104,0.463-0.115,0.716
	c0.785,2.719,0.834,5.697,2.858,7.973c0.22,0.567,0.432,1.133,0.33,1.607c-1.265,0.187-0.583-1.562-1.617-1.807
	c-0.239,0.774-0.815,1.21-1.486,1.546c-0.165-0.097-0.328-0.198-0.504-0.281c-0.607-0.221-1.21-0.497-1.843-0.243
	c0.007-0.074,0.013-0.148,0.02-0.222c-0.243-0.941-1.076-1.19-1.819-1.544c-0.102-0.04-0.189-0.099-0.288-0.144
	c-0.194-0.252-0.451-0.395-0.744-0.477c-0.168-0.145-0.342-0.282-0.46-0.493c-0.117-0.223-0.223-0.452-0.339-0.681
	c-0.036-0.101-0.09-0.204-0.144-0.307c0.105-0.207,0.21-0.413,0.315-0.62c0.09,0.08,0.183,0.167,0.283,0.176
	c1.195-0.291,1.454-1.241,1.568-2.289c-0.024-0.253-0.095-0.493-0.185-0.729c1.551-1.643,0.97-3.952,1.719-5.846
	c-1.756,0.177-3.127,0.551-1.314,2.564c-0.915,0.502-2.207,0.259-2.789,1.418c-0.211-0.072-0.372-0.01-0.48,0.186
	c-1.614,0.142-2.262,1.323-2.184,2.638c0.152,2.555-1.359,1.211-2.337,1.169c-0.528-1.135-1.589-1.251-2.641-1.384
	c-1.51-0.808-3.006-1.646-4.538-2.409c-0.527-0.262-1.372-0.062-1.302-1.038c0.074-1.049,0.907-1.029,1.641-1.139
	c1.46,0.189,1.547-0.778,1.534-1.83c-0.977-0.862,1.172-3.035-1.357-3.247c-1.43-1.602-2.004-4.951-4.951-3.727
	c-2.028,0.843-4.009,2.711-3.623,5.607c-0.621,1.015-1.066,1.972,0.723,2.188c-0.052,0.52-0.023,1.005,0.541,1.258
	c-0.408,0.807-1.174,0.405-1.785,0.53c-1.035-1.088-2.673-0.487-3.787-1.355c-0.586-1.435-1.992-2.116-2.946-3.213
	c-0.142-1.06-1.124-1.379-1.76-2.004c-0.738-2.028-2.059-3.69-3.237-5.464c-1.127-1.697-3.161-3.097-2.542-5.621
	c0.529-0.093,1.038-0.229,1.083-0.891c0.058-0.851-0.545-1.008-1.198-1.095l-0.01,0.012c-0.165-1.419-0.672-2.258-2.288-1.479
	c-0.579,0.279-1.391,0.988-1.59-0.411c1.159-1.344,2.474-2.624,1.891-4.675c1.2-1.756,0.72-3.489-0.071-5.217
	c-0.026-0.685-0.958-1.029-0.684-1.827c0.218-0.742-0.035-1.352-0.782-1.424c-0.796-0.077-1.377,0.458-1.728,1.188
	c-2.267,1.542-5.113,2.584-5.185,6.023c-0.797,0.047-0.413,1.339-1.326,1.264c-0.646-1.11-1.291-2.22-1.937-3.33
	c-0.04-1.504-0.079-3.008-0.119-4.512c0.279-1.349-0.291-2.389-1.195-3.31c0.453-2.256-0.191-4.383-0.756-6.52
	c-0.006-0.431-0.012-0.862-0.018-1.293c-0.398-2.193-0.795-4.386-1.193-6.579c0.226-0.435,0.451-0.871,0.677-1.306l0.286,0.037
	l0.279-0.076c0.656-0.064,1.271-0.194,1.253-1.048c-0.014-0.666-0.495-0.841-1.043-0.922c-0.095-0.205-0.19-0.41-0.285-0.616
	c-1.249-2.12-2.549-1.831-3.878-0.111c0-0.001,0-0.002,0-0.002c-1.585,1.41-0.609,2.809,0.017,4.209c0,0,0,0,0,0
	c0.047,3.212,0.094,6.424,0.141,9.636c0.049,1.085,0.059,2.173,0.153,3.253c0.588,6.793,1.11,13.583-0.307,20.345
	c-2.272,1.797-0.91,4.566-1.795,6.734c-0.073,0.589-0.146,1.177-0.218,1.766c-1.333,0.177-1.276,1.076-1.083,2.044
	c-2.621,0.361-0.799-1.75-1.378-2.524c0,0,0,0,0,0c0,0,0,0,0,0c0.681-0.552,0.516-1.401,0.739-2.113
	c0.509-0.096,1.024-0.202,1.099-0.846c0.095-0.819-0.458-1.033-1.108-1.139c-0.277-1.023-0.554-2.045-0.831-3.068
	c-0.32-0.52-0.791-0.822-1.376-0.958c-0.156-0.015-0.312-0.026-0.469-0.04c-0.474-0.725-1.094-1.226-2.005-1.284
	c-0.932,0.058-1.541,0.607-2.026,1.343l0.073,0.097c-2.532,1.716-2.525,3.891-1.686,6.215c-0.032,0.162-0.055,0.326-0.106,0.483
	c-0.068,2.522-1.367,3.237-3.652,2.514c-0.311-0.056-0.686-0.058-0.997-0.114c-0.23-0.164-0.446-0.34-0.612-0.56
	c-0.003-0.206,0.072-0.479,0.278-0.864c0.122-0.273,0.215-0.561,0.267-0.86c0.9-0.931,0.683-2.375,1.083-3.497
	c0.323-0.904-0.533-2.107-1.507-2.504c-0.889-0.362-2.195-0.652-2.281,1.099c-0.351,0.711,0.076,1.201,0.42,1.715
	c-0.28,0.123-0.533,0.291-0.727,0.558c-0.059,0.099-0.093,0.207-0.143,0.31c-0.917-0.059-2.133-0.381-0.846,1.495
	c0.002,0.452,0.005,0.904,0.007,1.356c-0.11,0.08-0.227,0.157-0.435,0.188c-4.051-1.15-6.037-4.755-8.82-7.435
	c-1.413-1.361-0.899-1.957,0.5-2.864c1.987-1.29,4.056-2.583,5.208-4.818c0.151-0.427,0.27-0.866,0.396-1.302
	c0.259-0.424,0.448-0.875,0.507-1.376c0.103-0.212,0.208-0.423,0.348-0.62c0.128-0.281,0.226-0.574,0.28-0.877
	c0.091-0.647,0.022-1.286-0.126-1.918c-0.094-0.496-0.153-0.993-0.188-1.489c0.401-2.807,0.824-5.614-0.237-8.425
	c1.598-1.37-1.513-1.464-0.708-2.619c-0.848-1.35-2.107-0.607-3.215-0.634c-0.964-0.04-2.015-0.21-1.922,1.308
	c0.187,0.442,0.373,0.885,0.56,1.328c-0.071,0.709-0.21,1.359-1.14,1.328c-0.008,0.6-0.015,1.2-0.023,1.8
	c-0.001,0.001-0.124,0.141-0.124,0.141c0.572,1.522,3.828,2.391,2.852,3.204c-2.224,1.852-0.06,1.965,0.486,2.764
	c-0.247,0.837-0.493,1.675-0.74,2.512c-1.261,0.926-1.444,2.893-3.207,3.334c-0.901,0.375-2.664-1.083-2.646,1.248l-0.001-0.006
	c-1.762-0.305-1.255-2.497-2.606-3.143c-1.224-0.298-2.845,0.518-2.687,1.131c0.577,2.228-1.927,2.816-1.981,4.55
	c-0.827,0.411-1.662,0.576-2.522,0.094c-0.021-0.657-0.042-1.314-0.062-1.971c0.272-0.395,0.543-0.791,0.814-1.186
	c0.827-2.219,1.161-4.426-0.158-6.594c-2.35-2.717-4.281-2.844-6.563-0.431c-0.19,0.157-0.38,0.313-0.57,0.47
	c-1.083,0.776-1.22,1.975-1.407,3.152c-1.914,1.11-1.97,2.209,0.02,3.296c0.669,0.898,2.046,1.749,0.928,2.982
	c-0.841,0.928-1.667-0.189-2.527-0.564c-1.76-0.767-3.636-1.269-5.464-1.88c-1.393-1.006-2.973-1.237-4.636-1.118
	c-2.754-1.343-2.76-4.374-4.049-6.616c-0.22-1.982-1.08-3.975,0.103-5.933l0.105,0.07c0.871-0.058,1.754-0.099,1.914-1.25
	c-0.063-0.094-0.127-0.188-0.19-0.281c0.036-0.019,0.071-0.037,0.107-0.056c0.046,0.108,0.074,0.22,0.083,0.337
	c0.96-0.744,2.308-1.482,0.041-2.285c0.481-1.429-0.079-2.633-1.321-3.083c-0.751-0.273-2.241-1.482-2.726,0.568
	c-1.234,0.142-1.963,0.693-1.897,2.08c0.241,5.095-0.756,10.335,1.812,15.151c0.072,0.396,0.145,0.792,0.217,1.189
	c-0.32,1.643,0.666,2.539,1.884,3.301c2.238,2.501,5.901,3.038,7.953,5.794c1.008,1.425-0.204,3.677,1.763,4.745
	c0.65,2.675,1.3,5.349,1.951,8.024c-0.009,2.456-0.017,4.912-0.026,7.368c-0.114,1.779-1.144,3.161-1.951,4.654
	c-0.322,0.597-0.762,0.796-1.281,0.709c-0.735-0.123-0.597-0.826-0.522-1.301c0.099-0.631,0.378-1.233,0.58-1.847l0.016-0.016
	c0.909-2.033,1.26-4.038-0.307-5.942c0,0,0,0-0.001,0c0,0,0,0,0.001,0c-1.207-1.081-2.269-2.675-4.202-1.196
	c-0.999-3.158-0.925-6.415-0.907-9.67c0.006-1.075,0.752-2.462-1.107-2.806c-1.037-0.357-2.176-0.641-2.931,0.336
	c-0.668,0.864-0.206,1.824,0.472,2.572c0.991,1.094,0.244,2.48,0.666,3.662c-0.035,0.869-0.069,1.737-0.104,2.606
	c-0.135,1.497-0.271,2.993-0.406,4.489c-1.698-0.029-1.811,1.645-2.597,2.542c-1.109,1.266-1.777,2.946-3.627,3.412
	c-0.466-0.147-1.211,0.268-1.298-0.645c0.759-1.752,0.3-3.464-0.169-5.176c-0.136-0.626-0.582-0.723-1.121-0.661
	c-1.112-1.071-2.192-0.667-3.265,0.072h0c-0.958,0.262-1.447,0.83-1.218,1.869c-0.065,0.415-0.131,0.829-0.197,1.244
	c-0.575,0.424-1.15,0.848-1.725,1.271c-0.706-0.811-1.559-1.629-1.365-2.793c0.51-3.06-0.304-5.971-0.822-8.921
	c0.213-0.863,0.73-1.715,0.092-2.609c0.223-2.337-2.421-0.513-2.818-1.95c0.465-0.584,1.046-1.121,0.926-1.972
	c-0.106-0.752,0.571-1.891-0.814-2.054c-1.549-0.182-1.296,1.053-1.385,1.979c-0.922-0.076-1.79,0.04-2.51,0.696
	c-1.121,1.528-2.858,1.702-4.511,2.06c-1.594-0.41-2.832,0.445-4.11,1.158c-1.384-0.014-2.768-0.027-4.152-0.04
	c-0.653-1.596-2.191-1.23-3.359-1.332c-3.363-0.295-3.483-0.419-1.909-3.669c0.355-0.045,0.71-0.089,1.065-0.133
	c2.457-0.614,0.863-2.615,1.333-3.909c-0.268-0.003-0.536-0.007-0.804-0.01c-0.01-0.039-0.006-0.078-0.017-0.117
	c-1.461-1.104-1.984-3.218-4.005-3.715c-2.275,0.092-4.185,0.459-4.632,3.362c-0.099,0.645,0.026,2.315-1.483,2.513
	c-0.294-0.285-0.588-0.569-0.881-0.854c0,0,0,0-0.001,0c0,0,0,0,0-0.001c-0.316-0.93,0.531-1.716,0.468-2.451
	c-0.131-1.536-0.252-3.234-2.584-3.391c-2.182-0.147-2.53,0.936-2.409,2.679c0.045,0.648-0.007,1.303-0.014,1.955
	c-0.193,0.096-0.382,0.089-0.568-0.02c-0.226-0.982-1.235-1.141-1.615-0.717c-0.763,0.852,0.514,0.984,0.862,1.466
	c0.213,0.21,0.426,0.419,0.638,0.629c0.067,0.206,0.134,0.412,0.201,0.618c-0.6,0.643,1.742,1.497-0.147,2.047
	c-0.637-0.069-1.273-0.139-1.91-0.208c0,0,0,0,0,0c-0.1-1.342-1.719-0.875-2.156-1.816c-2.441-3.749-7.195-4.853-9.707-8.519
	c-0.025-0.662-0.051-1.325-0.076-1.987c0.181-0.592,0.24-1.145-0.458-1.459c0.073-0.817-0.01-1.699-0.989-1.737
	c-1.227-0.047-1.62,0.881-1.639,1.985c-0.933,1.429-0.903,2.702,0.601,3.736c1.884,2.737,3.756,5.484,6.42,7.555
	c0.428,0.375,0.856,0.75,1.283,1.125c0.507,1.19,1.944,1.174,2.675,2.073c0.901,1.033,1.801,2.067,2.702,3.1
	c-0.013,1.909-0.027,3.818-0.041,5.727c-0.89,0.435-0.611,1.278-0.693,1.994c-0.918,0.73-1.674,1.561-1.751,2.816
	c-0.114,0.185-0.208,0.379-0.284,0.581c-0.486-0.082-1.135-1.051-1.405,0.128c-0.479,2.088-1.448,1.166-2.417,0.478
	c-0.222-2.057,0.746-4.455-1.675-5.884c-1.458-1.75-3.006-2.52-4.815-0.445l0,0c0,0,0,0,0,0c-0.664,0.149-1.164,0.498-1.401,1.163
	c-1.69,1.713-2.056,3.445-0.074,5.21c0.073,0.688,1.073,1.609-0.474,1.889c-0.162-1.207-1.117-1.51-2.067-1.818
	c-4.332-1.228-4.139-4.287-3.099-7.688c1.385-2.045,1.823-4.345,1.813-6.766c0.054-1.012,0.109-2.023,0.163-3.035
	c0.809-0.355,0.968-1.025,1.03-1.844c0.26-3.428-0.483-6.905,0.755-10.303c0.432-1.185-0.256-2.35-1.749-2.62
	c-0.041-0.394-0.082-0.788-0.124-1.181c0.956-0.691,1.234-1.55,0.643-2.622c-1.247-1.409-1.681,0.665-2.611,0.612c0,0,0,0,0,0
	c-0.064-0.421-0.523-1.033-0.654-0.716c-0.837,2.032-1.614,4.16,0.531,5.962c0.07-0.043,0.139-0.086,0.208-0.13
	c0.007,0.068,0.014,0.136,0.022,0.204l-0.23-0.074c0.375,2.206,0.207,4.412-0.015,6.617c-1.62,1.01-1.272,2.546-1.075,4.041
	c0.172,1.757-0.358,3.416-0.714,5.099c-0.594,0.543-1.187,1.085-1.781,1.627c-0.826-1.056-1.674-2.101-1.507-3.577
	c0.788-0.947,1.499-1.925,1.327-3.263c0.728-0.107,1.188-0.467,0.981-1.257c-0.062-0.235-0.437-0.595-0.596-0.561
	c-0.689,0.148-1.033,0.621-0.879,1.364c0,0,0.001,0.001,0.002,0.002c0,0,0,0-0.001,0c-0.5,0.139-1,0.278-1.501,0.417l0.005-0.002
	c-0.009-0.743-0.083-1.492-0.016-2.228c0.212-2.334-0.782-2.78-2.733-1.829c-0.62,1.506-2.173,2.784-1.151,4.694
	c0.089,1.838-2.296,1.251-2.62,2.684c-0.606,0.534-1.425,0.911-1.411,1.906c-0.809,0.683-1.132,1.598-1.238,2.616
	c-0.246,0.441-0.492,0.882-0.738,1.323c-0.643-0.214-1.285-0.428-1.927-0.643v0c-0.369-0.454-0.738-0.907-1.107-1.361
	c-1.29-3.163-1.524-6.421-0.872-9.758c-1.52-2.835-0.917-5.947-1.164-8.948c0.251-1.008,0.571-2.006,0.731-3.029
	c0.143-0.911,0.065-0.923-1.345-0.462c-0.181,0.327-0.363,0.653-0.545,0.98c-0.104-0.272-0.208-0.544-0.311-0.816
	c0.083-0.727,0.4-1.615-0.608-1.88c-0.633-0.166-1.393,0.227-1.596,0.822c-0.314,0.922,0.482,1.288,1.202,1.583
	c0.006,0.953-0.271,1.816-0.82,2.593l0,0l-0.102-0.073c-1.173,0.847-0.16,1.95-0.348,2.895c-0.544,2.733,0.967,5.874-1.596,8.207
	c-0.971,0.223-2.624,0.018-1.978,1.699c1.582,4.117-0.988,8.136-0.083,12.222c0.129,0.583-0.384,1.438-1.14,1.811
	c-0.492-0.683-1.011-1.328-1.926-1.445l0,0c-0.032-1.349-0.868-1.968-2.053-2.271c-0.834-0.531-1.696-0.675-2.606-0.199h0
	c-0.433,0.07-0.867,0.141-1.3,0.212c-1.707-1.121,0.918-2.339-0.077-3.476l0.19,0.077c2.251-1.103,0.831-3.113,1.156-4.691
	c-0.091,0.161-0.182,0.322-0.273,0.483c0.022-0.2,0.088-0.375,0.273-0.483c-0.311-1.115,0.778-2.719-1.137-3.275l-0.158,0.085
	c0.001-0.219,0.001-0.437,0.002-0.656c0.011-1.724-0.346-3.171-2.478-3.253c-1.349-0.052-2.388,0.225-1.999,1.958
	c-1.384,2.818-0.069,4.358,2.502,5.304c0.005,0.621,0.009,1.242,0.014,1.863c-0.443,0.587,0.117,1.487-0.616,1.983
	c-0.898,0.344-1.429,0.925-1.263,1.958h0l0,0c-0.901,0.705-1.245,2.495-2.453,2.228c-1.041-0.23-1.222-1.828-1.71-2.895
	c-0.51-1.114-0.372-2.553-1.522-3.367c-0.401-1.521-1.259-2.804-2.126-4.081c0,0,0,0,0-0.001c0.115-1.053-0.153-2.175,0.56-3.12
	c1.011-0.988,0.229-2.144,0.266-3.217c0.009-0.252-0.17-0.961-0.699-0.448c-0.22,0.213-0.122,0.756-0.169,1.148
	c-0.46,1.322-2.768-0.436-2.761,1.664c-0.675,1.226-0.402,2.233,0.701,3.048c0.046,0.391,0.092,0.782,0.138,1.173
	c-0.01,0.879-0.02,1.758-0.031,2.637c-2.61,0.676-0.08,1.722-0.185,2.578c-1.727,0.919-1.698,1.807,0.047,2.664
	c0.385,0.895,0.403,1.995,1.415,2.54c0.189,0.466,0.378,0.931,0.567,1.397c-0.237,0.59-0.784,0.716-1.306,0.789
	c-1.354,0.191-2.302,2.526-3.876,1.031c-1.481-1.407,0.874-2.061,1.001-3.241c0.253-2.358,0.85-4.845-1.779-6.298
	c-2.024-1.119-4.501,0.044-5.66,2.467c-0.134,1.312-0.896,2.602-0.142,3.946c-0.575,1.074,1.845,2.344,0.116,3.03
	c-1.627,0.645-2.235-1.036-2.704-2.353c-0.036-0.1-0.021-0.225-0.074-0.312c-0.812-1.326-1.232-3.699-3.347-0.981
	c-0.919,1.181-1.814,0.97-1.868-0.737c0.119-3.678,0.238-7.357,0.357-11.035l0.246,0.061l0.131-0.218
	c0.124-0.163,0.171-0.338,0.176-0.518c1.201-2.968,1.093-6.099,1.028-9.225h0l0,0c0.073-0.43,0.145-0.86,0.217-1.291
	c1.953-1.153,1.442-2.248-0.08-3.317c-0.505-0.789-1.258-0.644-2.002-0.533c-0.21-0.124-0.41-0.111-0.602,0.039
	c-2.26,1.24-1.745,2.497-0.023,3.761l-0.073,0.056c-0.383,1.964-0.767,3.928-1.151,5.892c-0.075,0.601-0.15,1.203-0.225,1.804
	c-0.92,0.145-0.646,1.634-1.847,1.589c0.016-0.959,0.193-1.956-1.258-2.116c-1.859-0.205-3.511-0.129-4.507,1.766
	c0.453,0.994,0.475,2.012,0.411,3.035c-0.024,0.143-0.036,0.291-0.028,0.444c-0.061,0.741-0.137,1.483-0.117,2.219
	c-0.173,0.231-0.443,0.43-0.904,0.567c-0.674-0.222-1.335-0.559-2.088-0.335c-0.131,0.082-0.202,0.205-0.284,0.322
	c-0.342,0.155-0.684,0.31-1.027,0.466c-0.048,0.425-0.095,0.849-0.143,1.274c-2.656,4.042-0.211,6.957,2.174,9.886
	c-0.04,0.648-0.08,1.296-0.119,1.944c-1.513,0.342-1.756,2.141-3.084,2.695c-1.662,1.46-0.566,3.36-0.804,5.048
	c-0.902,1.282-2.619,0.664-3.677,1.582c-1.341-0.813-0.576-1.798-0.224-2.749c1.89-1.584,1.916-2.812,0.096-4.6
	c-0.28-0.458-0.584-0.903-0.835-1.376c-1.248-2.353-3.333-2.405-5.438-1.74c-1.295,0.409-3.307,6.185-2.513,7.081
	c0.943,1.064,2.464,2.112,1.295,3.458c-1.322,1.522-2.249-0.803-3.481-1.027c-0.311-0.057-0.59-0.32-0.899-0.356
	c-1.961-0.228-2.115-1.247-2.061-3.12c0.126-4.388,1.456-8.511,2.166-12.763c2.016-1.662,1.137-3.891,1.159-5.944
	c-0.077,0.175-0.155,0.35-0.232,0.525c0.04-0.185,0.102-0.364,0.232-0.525c-0.291-1.278,0.934-3.087-1.286-3.689
	c-0.09-0.221-0.253-0.311-0.487-0.268c-0.5-0.744-1.186-1.601-2.043-0.928c-0.789,0.619-1.75,1.846-1.254,2.761
	c1.287,2.369,0.075,4.551-0.041,6.808c-1.214,3.55-2.437,7.097-3.638,10.652c-0.466,1.381-1.984,1.843-2.11,0.582
	c-0.373-3.744-2.917-3.277-5.287-3.456c-7.262-4.581-6.965-12.547-8.739-19.586c-0.251-2.544-0.694-2.881-2.66-2.023
	c-1.166,1.014-2.556,1.988-3.768,2.631c-2.213,1.174-2.425,4.528-4.82,4.621c-3.126,0.122-5.596,1.585-8.284,2.684
	c-0.982-0.037-1.946-0.039-2.336,1.14c0,0-0.001,0-0.001,0c-0.528,0.046-1.056,0.092-1.584,0.137
	c-1.375,0.041-2.814-0.367-4.059,0.585c-2.392,0.07-1.397-1.823-1.708-2.959c0.873-0.918,1.746-1.836,2.62-2.754
	c1.268-1.396,2.2-2.784-0.099-4.094c-2.434,0.637-3.22,2.874-4.49,4.641c-0.09,0.178-0.156,0.365-0.196,0.561
	c-1.21-0.741-0.492-1.915-0.644-2.893c-0.135-0.872,0.335-2.022-1.083-2.279c-0.868-2.584-3.092-2.459-5.083-2.296
	c-2.563,0.211-4.707,3.43-3.88,7.391c0.73,3.496,0.268,4.147-2.93,2.921c-1.967-0.021-3.933-0.041-5.9-0.062
	c-0.634-0.308-1.267-0.615-1.901-0.923c-0.309-1.445-1.393-1.306-2.457-1.206c-0.236-1.095-0.804-1.86-1.99-2.011
	c-1.486-1.806-3.891-2.264-5.558-3.805c-0.299-0.947-1.071-1.456-1.828-1.977c-0.008-1.295-0.016-2.59-0.025-3.885c0,0,0,0,0,0
	c0,0,0,0,0,0c-0.084-1.721-1.591-1.712-2.594-1.736c-1.004-0.023-2.014,0.781-2.45,1.794c-0.342,0.795,0.375,1.097,1.05,1.249
	l0.209-0.08c0.361,0.682,0.721,1.363,1.082,2.045c-0.157,2.007,1.633,2.705,2.633,3.934c0.65,0.756,1.3,1.513,1.95,2.269
	c0.15,0.823,0.425,1.556,1.32,1.845c0.217,0.155,0.435,0.31,0.652,0.465c0.963,2.011,2.853,2.904,4.669,3.887l0.116,0.163
	l0.194-0.046c0.418,1.052,1.089,1.782,2.305,1.818c0,0,0,0,0,0c0.438,0.446,0.876,0.892,1.314,1.338
	c0.232,1.398-0.086,2.706-0.643,3.976c-0.83,0.783-2.228,0.693-2.821,1.84c-0.318,0-0.636,0.001-0.954,0.001
	c-0.501-2.534-2.972-4.438-2.225-7.422c0.207-0.826-0.552-1.693-1.616-1.638c-0.879,0.045-1.591-0.004-2.265,1.194
	c-1.22,2.17-3.077,3.968-3.595,6.558c-0.235,1.175-1.274,1.322-2.25,1.468c-1.279-0.1-2.558-0.201-3.837-0.302
	c0.017-1.17,0.119-2.198,0.767-3.351c1.203-2.139-0.088-6.013-2.029-6.759c-2.41-0.926-3.79,0.325-4.542,2.543l-0.212-0.085
	c-0.638,0.121-1.226,0.306-1.148,1.137c0.061,0.652,0.571,0.774,1.09,0.868c0.13,0.197,0.138,0.399,0.022,0.605
	c-0.658,0.053-1.315,0.105-1.973,0.158c-0.991-0.631-2.045-0.311-3.085-0.208c0.402-2.367-1.075-4.202-1.967-6.109
	c-1.176-2.513-4.655-2.629-6.32-0.379c-0.699,0.945-1.185,2.041-2.275,2.637c-1.581,1.768-2.605,3.525,0.106,5.205
	c0.934,0.265,2.14,0.604,1.609,1.804c-0.576,1.301-1.448,0.325-2.295-0.075c-0.991-0.468-1.862-1.38-3.116-1.175l-0.026-0.001
	c-0.721-0.582-1.441-1.164-2.161-1.747c-4.032-4.406-7.155-9.479-10.519-14.376c-0.56-1.759,1.489-4.08-1.155-5.391
	c-0.604-0.671-1.207-1.343-1.811-2.014v0c-0.055-0.621-0.111-1.243-0.166-1.864c0,0,0,0,0,0c0,0,0,0,0,0
	c1.028-1.396,2.911-2.679,0.592-4.516l-0.152-0.223l-0.269,0.021c-0.751-1.423-2.527-1.745-3.12-0.929
	c-0.58,0.799-1.991,2.369-0.452,3.797c0.06,2.066,0.052,4.137,0.194,6.197c0.216,3.13-1.075,6.227-0.161,9.363
	c-2.786,2.959-4.569,6.812-8.091,9.114c-0.226,0.203-0.452,0.407-0.678,0.61c-1.156,0.635-2.161,0.57-2.922-0.631
	c-0.198-1.993-0.334-3.995-0.611-5.978c-0.339-2.426-2.394-3.179-4.283-3.632c-1.364-0.327-3.136-0.29-3.697,1.715
	c-0.218,0.229-0.436,0.459-0.654,0.688c-0.583,0.598-0.629,1.392-0.568,2.116c0.168,1.977-0.765,3.523-2.428,4.031
	c-1.553,0.475-2.674-0.77-3.468-2.241c-0.422-0.782-0.839-1.785-1.897-2.078c0.074-0.399-0.088-0.563-0.487-0.493
	c-0.149-0.397-0.298-0.794-0.448-1.192c-0.566-0.489-1.133-0.978-1.699-1.468c0,0,0,0,0,0c0.012-0.388,0.024-0.776,0.036-1.164
	c2.226-1.745,1.393-3.489-0.003-5.232c0.239-2.385,3.137-2.11,3.928-3.942c1.996-0.742,0.785-1.362-0.075-1.996l-0.223,0.068
	c-0.499-2.484-1.499-2.875-3.103-0.746c-0.587-0.246-0.555-0.828-0.709-1.309c0.051-0.348,0.103-0.695,0.154-1.043
	c2.055-0.833,2.534-1.969,0.681-3.554c-0.691-1.72-1.981-1.245-3.146-0.762c-1.54,0.639-1.812,1.924-1.422,3.427
	c-0.002,1.969-0.003,3.937-0.005,5.905c0.105,2.218-0.83,3.715-2.774,4.893c-2.518,1.527-5.055,3.154-7.168,5.174
	c-1.438,1.374-3.854,1.469-4.552,3.67c-1.13-0.044-2.382-0.599-3.293,0.473c-0.829,0.976-1.99,1.426-2.66,0.43
	c-0.763-1.136-0.397-2.494,1.235-2.993c1.212-1.424,1.439-2.75-0.384-3.873c-2.113-4.476-2.834-4.884-6.625-3.752
	c-0.329,0.719-1.62,0.723-1.38,1.865c-0.291,1.877-2.377,3.86-0.509,5.594c2.361,2.191,1.336,2.874-0.969,3.475l-0.21-0.014
	c-2.888-1.487-5.785-2.871-8.462-4.831c-1.787-1.308-3.246-2.348-3.862-4.581c-0.399-1.446-1.401-2.773-3.345-1.732
	c-0.365-0.653,0.062-1.619-0.763-2.111c-1.02,0.456-0.609,1.478-0.979,2.156c-0.927-0.757-1.956-1.414-2.51-2.542
	c0.279-1.688-0.416-2.474-2.128-2.768c-2.062-0.354-1.551,1.088-1.722,2.112c-0.249,0.665,0.577,0.801,0.643,1.311
	c-0.098,1.811,1.688,1.463,2.521,2.207c0,0,0,0,0,0c0.379,0.895,1.096,1.479,1.766,2.156c2.678,2.708,5.588,5.29,6.534,9.235
	c0.444,1.853,0.266,3.877,1.511,5.509c0.015,0.796,0.029,1.592,0.044,2.388c-1.757,1.356-2.476,3.38-3.385,5.282
	c-0.519-0.019-1.039-0.038-1.559-0.057c-0.393-1.62-2.109-1.907-3.044-3.029c-1.879-2.255-5.063-3.658-4.039-7.577
	c0.207-0.791-0.712-1.958-1.807-2.334c-1.392-0.478-2.338,0.29-2.861,1.426c-0.869,1.885-1.56,3.852-2.326,5.784
	c-0.017,0.148-0.034,0.296-0.049,0.444c-0.02,0.646,0.011,1.289,0.029,1.932c-0.117,1.022-0.132,2.038,0.177,3.036
	c0.037,0.406,0.059,0.812,0.104,1.217c0.034,1.201,0.917,2.037,1.325,3.078c0.176,0.46,0.524,0.902,0.172,1.436
	c-0.552,0.377-1.206,0.213-1.809,0.327c-0.004,0.001-0.008,0.003-0.013,0.004c-0.16-0.33-0.319-0.661-0.479-0.991
	c-1.079,0.212-1.32,0.988-1.302,1.939c-0.741,0.386-1.977-0.153-2.209,1.186c-0.353,0.051-0.707,0.102-1.06,0.154
	c-2.085,0.353-4.144,0.993-6.321,0.659c0.508-3.753,3.164-6.46,4.365-9.818c1.734-2.368,2.069-5.087,1.984-7.912l0,0c0,0,0,0,0,0
	c0.484-0.591,1.274-0.971,1.298-1.881c1.638-1.359,1.898-3.411,2.623-5.229c0.505-0.856,1.374-1.552,1.19-2.711
	c0.147-0.144,0.194-0.315,0.139-0.514c0.645-0.7,1.29-1.401,1.935-2.101c1.33-0.165,1.596-1.097,1.032-2.008
	c-0.294-0.475-0.825,0.226-1.061,0.688c-1.264-0.394-2.063-3.701-3.882-0.622c-0.678,0.034-1.268,0.191-1.235,1.046
	c0.026,0.667,0.544,0.813,1.07,0.927c0.148,2.423-2.227,3.643-2.733,5.754c-0.167,0.176-0.333,0.353-0.5,0.529
	c-0.81,0.953-1.619,1.906-2.429,2.859c-0.816,3.473-4.221,4.657-6.233,7.073c-0.57,0.121-1.141,0.242-1.711,0.363
	c-0.697,0.125-1.087,1.464-1.865,0.758c-0.629-0.57-0.283-1.322,0.525-1.828c1.899-1.187,0.327-2.562,0.127-3.862l0-0.002
	c-0.298-1.564-1.179-2.629-2.688-3.158c-1.561-1.73-2.816-0.862-4.015,0.475v0c-0.598,1.147-1.196,2.295-1.794,3.442
	c-0.007,0.663-0.014,1.325-0.021,1.987h0l0,0c-0.018,0.418-0.037,0.836-0.055,1.254c-0.298,0.274-0.595,0.548-0.893,0.822
	c-0.157-0.002-0.31,0.024-0.457,0.079c-0.854-0.33-1.707-0.661-2.561-0.991c-0.061-0.556-0.122-1.112-0.182-1.668
	c0.046-0.55,0.037-1.087-0.652-1.223c-0.657-0.13-1.2,0.33-1.02,0.826c0.587,1.615-0.139,3.712,1.724,4.86
	c0.265,0.425,0.529,0.849,0.794,1.274c-0.699,0.641-1.397,1.282-2.096,1.922c-1.171,0.198-2.188,0.706-3.164,1.39
	c-0.622,0.436-1.434,1.452-2.068,0.846c-0.816-0.78-0.006-1.701,0.558-2.53c1.511-2.221,1.511-4.54,0.16-6.86
	c-0.009-1.667-0.426-3.158-1.811-4.233c-2.809-0.917-3.227-0.677-2.888,2.086c0.133,1.087-0.76,1.408-1.003,2.16
	c-0.082,0.368-0.165,0.737-0.247,1.105c-2.393,2.36,1.2,4.993-0.345,7.608c-1.82-1.436-4.659-1.593-4.699-4.699
	c0.78-0.535,1.004-1.35,1.019-2.218c0.06-3.514,2.461-6.371,2.719-9.825c0.448-0.179,0.896-0.359,1.344-0.538
	c2.3-1.165,0.773-1.87-0.315-2.629v0c-0.374-0.636-0.555-1.519-1.62-1.269c-0.765-1.065-0.324-2.17-0.105-3.267
	c0.91-1.987-0.083-3.076-1.799-3.822c-0.547-0.18-0.891-0.514-0.967-1.122c-0.05-0.404-0.195-0.938-0.707-0.761
	c-0.48,0.166-0.292,0.713-0.223,1.125c-0.901,1.918,1.291,3.931-0.18,5.831c-1.483,0.273-1.535,1.607-1.965,2.66
	c-2.113,0.694-0.921,2.474-1.232,3.761c-0.023,0.241-0.154,0.346-0.394,0.316c-0.305-0.004-0.557,0.106-0.743,0.354
	c-0.73,1.389-1.409,2.855-3.433,2.326c-0.134-0.02-0.268,0.012-0.402,0.005c-1.215-1.678-3.221-0.544-4.815-0.875
	c-0.573,0.312-0.328,0.638-0.144,0.963c-0.019,0.004-0.038-0.001-0.057,0.003c-0.443,0.159-0.76,0.465-0.987,0.872
	c-0.244,0.492-0.426,1.006-0.56,1.537c-1.999,0.453-2.298-1.489-3.159-2.639c-0.333-0.334-0.749-0.509-1.195-0.628
	c-0.586-1.558-1.171-3.116-1.757-4.674c-0.046-0.354-0.091-0.709-0.137-1.063c-0.183-0.059-0.358-0.136-0.525-0.23
	c-0.01-0.202-0.047-0.399-0.11-0.591c-0.397-1.664-0.837-3.325-0.485-5.061c0,0,0,0,0-0.001c0,0,0,0,0.001,0.001
	c0.224-0.528,0.448-1.057,0.673-1.585c-0.473-0.802,0.55-2.203-0.609-2.513c-1.037-0.277-0.943,1.21-1.493,1.8
	c-0.711,0.105-1.601-0.296-1.993,0.71c-0.515,0.722-0.654,1.509-0.402,2.363c0.146,0.421,0.361,0.815,0.557,1.216
	c-0.004,0.12-0.009,0.24-0.013,0.359c0.122,0.18,0.243,0.361,0.365,0.541c0.052,0.182,0.1,0.366,0.115,0.561
	c-0.11,0.82-0.198,1.685-0.195,2.406c0.011,2.307-1.688,5.183,1.538,6.786c-0.005,0.623-0.011,1.247-0.016,1.87
	c-0.097,0.488-0.235,0.958-0.705,1.28c-1.371,0.659-2.769,0.94-4.218,0.182c-0.391-0.254-0.59-0.597-0.74-0.962
	c-0.001-0.241-0.002-0.482-0.003-0.724c0.131,0.044,0.28,0.063,0.463,0.038c2.232-1.094,2.579-2.769,1.57-4.86
	c1.496-2.617-0.07-4.379-1.837-6.078c-1.881-1.41-3.725-1.29-5.543,0.12c-0.618,0.241-0.8,0.755-0.845,1.355
	c-0.167-0.047-0.316-0.013-0.446,0.103v0c-2.055,1.046-0.906,3.081-1.414,4.604c-0.776,1.715,0.949,2.73,1.169,4.165
	c0.027,0.098,0.073,0.188,0.104,0.284c-0.313,0.374-0.493,0.831-0.538,1.375h0c-0.698,0.01-1.396,0.02-2.095,0.029
	c-0.464-1.101-1.582-1.436-2.474-2.037c-0.11-0.067-0.21-0.144-0.316-0.215c0.447-0.509,0.394-1.049-0.199-1.62
	c0.218-1.311,0.435-2.621,0.653-3.932c0.889-0.709-0.513-1.312-0.092-2c-0.447-0.199-0.894-0.398-1.342-0.597v0
	c-0.208,0.034-0.416,0.069-0.624,0.103c-0.586,0.258-1.52-0.613-1.823,0.564c-0.055,1.069-0.111,2.138-0.166,3.207l-0.049-0.046
	c-0.781,0.16-0.949-1.512-1.791-0.721c-0.511,0.481-0.043,1.199,0.379,1.74c0.258,0.331,0.43,0.729,0.64,1.096v0
	c0.46,0.421,0.921,0.843,1.381,1.264c0,0,0,0,0,0c0,0,0,0,0,0c-0.129,2.216-1.759,1.149-2.611,0.991
	c-2.843-0.525-4.638-2.848-6.88-4.412c-0.425-3.225-4.114-4.169-4.951-7.106c-1.18-1.563,0.341-3.052,0.126-4.588
	c0.439-1.147,0.659-2.254-0.49-3.387c-0.371,1.462-0.673,2.652-0.974,3.84c-0.182-0.576-0.363-1.151-0.545-1.727
	c-0.237-2.29-0.282-4.768-3.776-3.852c-2.698,2.592-2.925,4.207-0.822,5.833l0.285,0.046l0.289-0.02
	c0.126,0.624,0.252,1.248,0.379,1.872c0.106,1.087,1.103,1.388,1.751,1.998c-0.045,0.215-0.011,0.417,0.1,0.606
	c0.055,1.056,0.599,1.908,1.147,2.758c0.518,1.134,0.801,2.496,1.618,3.339c0.865,0.893,0.638,3.211,2.875,2.524
	c0.859,0.714,0.554,2.355,2.039,2.57c0.182,1.171,1.135,1.455,2.047,1.786l0.179,0.221l0.284-0.001
	c0.933,0.841,1.865,1.682,2.798,2.522c0.376,0.432,0.752,0.863,1.129,1.294c-0.21,0.355-0.435,0.702-0.583,1.091
	c-0.198,0.51-0.38,1.025-0.553,1.544c-0.083,0.243-0.16,0.489-0.24,0.734c-0.206,0.293-0.312,0.627-0.366,0.982
	c-0.179,0.425-0.389,0.837-0.69,1.208c-0.546,0.787-1.154,1.497-2.167,1.67c-0.453,0.177-0.926,0.332-1.093,0.814
	c-0.207-0.252-0.422-0.498-0.653-0.728c0.194-1.344,0.314-2.686-0.122-4.023l0.285,0.059c-0.186-0.872-0.496-1.644-1.496-1.859
	c-0.108-0.215-0.274-0.28-0.499-0.196c-0.969-1.31-1.937-1.127-2.905,0.001c0,0,0,0,0,0c-0.658-0.188-1.09,0.084-1.363,0.676
	c-2.373,1.585-1.199,3.848-1.125,5.901h0l0.066,0.079c-1.391-0.159-3.52,1.036-3.415-1.868c-0.114-0.199-0.247-0.238-0.389-0.199
	c-0.183-0.485-0.42-0.934-0.899-1.216c-0.376-0.525-0.752-1.05-1.129-1.575c-1.446-2.586,0.229-6.24-2.82-8.278
	c-0.029-0.893-0.059-1.786-0.088-2.68c0.645-0.88-0.194-1.306-0.571-1.873c-0.133-1.073-0.21-2.157-0.41-3.218
	c-0.318-1.681-2.076-1.515-2.384-0.821c-0.626,1.409-3.142,2.966-0.47,4.772c0.083,0.383,0.167,0.766,0.25,1.149
	c1.299,2.367-0.395,4.716-0.042,7.078c0.233,0.3,0.365,0.626,0.456,0.963c0.004,0.98,0.043,1.96,0.14,2.941
	c0.042,0.112,0.142,0.181,0.201,0.281c-0.031,0.146-0.037,0.295-0.074,0.44c-0.606,2.388,1.268,4.38,1.082,6.71
	c-0.315,0.269-0.677,0.439-1.059,0.564c-0.212-0.013-0.423-0.026-0.635-0.038c0.041-0.125,0.085-0.25,0.118-0.373
	c-0.312-1.781-1.977-1.746-3.168-2.354c-0.173-0.065-0.291,0.059-0.403,0.153c0.025-0.049,0.052-0.105,0.074-0.144l0.007-0.242
	c-0.013-0.054-0.026-0.107-0.039-0.161c0.175,0.097,0.352,0.25,0.534,0.104c3.157-2.9,3.177-7.284,0.022-9.323
	c-1.723-1.341-3.979-1.433-5.022,0.106c-1.35,1.991-3.503,4.448-0.916,7.174c-0.123,1.261,0.224,2.442,0.616,3.614
	c-0.615,0.069-1.23,0.138-1.845,0.207c-0.422-1.366-1.455-1.759-2.744-2.229c-2.611-0.953-5.306-1.961-6.963-4.481
	c-0.014-0.327-0.028-0.655-0.042-0.982c0.874-1.657,0.869-3.32,0.035-4.989c0,0,0-0.001,0-0.001c0.007-0.941,0.013-1.883,0.02-2.824
	c1.72-1.519,2.874-3.633,3.551-5.59c0.797-2.304,1.737-1.365,3.02-1.112c2.096,0.414,4.802,1.306,5.554-1.511
	c0.649-2.435,1.956-3.37,4.042-3.903c1.504,0.116,1.436-0.847,1.28-1.871c0.086-0.211,0.087-0.422,0.003-0.633
	c0.027-0.426,0.054-0.851,0.08-1.277c-0.647-0.881-1.294-1.762-1.941-2.643c-1.104-0.543-1.919-0.079-2.626,0.757
	c-1.04,0.86-2.048-0.074-3.072-0.05c-0.817,0.019-1.953-0.321-2.044,0.96c-0.187,2.626-2.057,2.88-4.02,3.093
	c-1.143,1.013-0.813,2.401-0.932,3.675c-1.604,0.864-1.635,3.795-4.29,3.28c-1.142-0.612-2.079-0.427-2.769,0.716
	c-0.535,0.095-1.045,0.241-1.07,0.912c-0.031,0.863,0.589,0.988,1.247,1.05c1.636,0.796,1.464,2.406,1.249,3.663
	c-0.983,5.755-1.24,11.916-7.229,15.319c-1.599-1.492,0.532-3.863-1.247-5.313c-0.776-1.958-2.388-2.622-4.288-2.492
	c-2.08,0.142-2.094,1.949-2.678,3.465c-0.826,2.143,1.338,4.135,0.287,6.214c-3.857-1.497-3.989-4.567-3.89-7.745
	c0.012-1.739,0.024-3.478,0.037-5.217c0,0,0,0,0,0.001c0,0,0,0,0-0.001c-0.015-0.22-0.029-0.44-0.044-0.66
	c-0.194-1.646-0.452-3.255-0.004-4.948c0.207-0.782,0.713-2.342-1.217-2.228c-0.875-0.019-1.75-0.038-2.625-0.057
	c-1.409,0.813-0.705,2.065-0.655,3.182c0.313,0.962,0.304,1.925,0.029,2.89c-0.067,0.416-0.095,0.833-0.033,1.262
	c0.017,0.099,0.01,0.201,0.011,0.301c-0.017,0.015-0.034,0.03-0.052,0.046c-0.007-0.029-0.003-0.059-0.015-0.087
	c-0.839-1.568,0.51-3.637-1.142-5.025c-0.02-0.219-0.106-0.409-0.257-0.569c-0.633-1.52,1.28-4.036-1.794-4.6l0,0c0,0,0,0,0,0
	c-0.21,0.019-0.421,0.037-0.631,0.056c-1.131,0.054-1.126,0.92-1.221,1.714c0.255,0.399,0.434,0.798,0.571,1.197
	c0.007,0.4,0.012,0.8-0.023,1.194c-0.092,1.022,0.073,2.076,0.034,3.107c-0.118,0.574-0.246,1.147-0.358,1.721
	c-0.088,0.199-0.19,0.397-0.322,0.592c-0.702,0.831-1.468,1.592-2.321,2.265c-0.778,0.683-1.521,1.396-2.123,2.245
	c-0.077,0.149-0.177,0.249-0.268,0.367c-0.587,0.105-1.101,0.325-1.455,0.8c-0.241,0.019-0.496,0.008-0.762-0.029
	C4.475,52.461,0,53.895,0,53.895v24.058h980.787V51.893z M923.981,23.764c0,0.021,0,0.042,0,0.063
	c-0.06-0.014-0.105-0.014-0.162-0.024C923.879,23.796,923.914,23.767,923.981,23.764z M890.658,46.613
	c-0.033-0.053-0.037-0.064,0.067-0.019C890.703,46.603,890.68,46.607,890.658,46.613z M855.628,32.161
	c-0.005,0.021-0.027,0.043-0.032,0.064c-0.005-0.069-0.014-0.145-0.019-0.215C855.597,32.06,855.612,32.111,855.628,32.161z
	 M644.079,15.941c-0.006,0.004-0.013,0.009-0.019,0.013c0-0.014,0-0.029,0-0.044C644.068,15.921,644.071,15.931,644.079,15.941z
	 M604.094,15.24c-0.007,0.076-0.014,0.153-0.021,0.23c-0.062-0.032-0.116-0.083-0.175-0.123
	C603.96,15.323,604.029,15.273,604.094,15.24z M522.43,40.767c0.018,0.017,0.036,0.011,0.054,0.026c-0.017,0-0.034,0-0.05,0
	c-0.002,0.022-0.004,0.043-0.005,0.065c-0.019-0.042-0.031-0.086-0.047-0.129c0.023,0.019,0.026,0.041,0.05,0.059
	C522.43,40.782,522.431,40.775,522.43,40.767z M521.814,38.541c-0.003,0.047-0.003,0.102-0.006,0.149
	c-0.008-0.011-0.01-0.025-0.019-0.035C521.769,38.629,521.784,38.585,521.814,38.541z M484.636,40.761c0,0.01,0,0.021,0,0.032
	c-0.005-0.005-0.009-0.01-0.014-0.015L484.636,40.761z M378.744,76.528c0.126-0.043,0.251-0.074,0.367-0.042
	c0,0,0,0.001,0.001,0.001c0.002,0.013,0.002,0.027,0.004,0.04H378.744z M795.742,68.965L795.742,68.965
	c-0.018-0.014-0.026-0.032-0.043-0.047c0.014-0.008,0.03-0.02,0.045-0.029C795.742,68.914,795.743,68.94,795.742,68.965
	L795.742,68.965z M944.79,74.895c0.004,0.006,0.006,0.011,0.01,0.017c-0.06,0.041-0.105,0.097-0.155,0.147
	c-0.001-0.014-0.001-0.028-0.002-0.042C944.691,74.976,944.741,74.936,944.79,74.895z M940.186,73.466
	c1.026-0.535,1.296-1.499,1.429-2.539c-0.037-0.201-0.044-0.403-0.068-0.605c0.275-0.165,0.578-0.22,0.9-0.202
	c0.062,0.192,0.112,0.386,0.131,0.585c0.241,1.462-0.251,3.106,1.07,4.3c0.141,0.062,0.283,0.086,0.424,0.097
	c-0.237,0.315-0.26,0.641-0.013,0.982c0.005,0.112,0.009,0.223,0.014,0.335c-1.674-0.26-2.944-1.079-3.57-2.791
	c-0.114-0.088-0.232-0.133-0.354-0.156C940.161,73.471,940.173,73.465,940.186,73.466z M912.871,66.234
	c0.322-1.653,0.036-3.416,0.977-5.267c2.101,2.464,4.438,4.522,4.492,7.974c0.034,2.223-1.184,3.663-3.175,3.805
	c-2.31,0.165-1.746-1.904-1.84-3.328C913.254,68.346,913.453,67.233,912.871,66.234C912.871,66.234,912.871,66.234,912.871,66.234
	c0,0-0.001-0.002-0.001-0.002L912.871,66.234z M808.265,70.108c0.001-0.764,0.002-1.527,0.003-2.29
	c0.552-1.163,2.34-1.68,1.781-3.423c0.317-0.652-0.731-2.604,1.426-1.503c1.499,1.699,3.548,2.577,5.446,3.686
	c0.628,0.366,1.956,0.381,1.019,1.709h0c-0.696,0.042-1.508-0.372-1.992,0.508C813.924,72.386,811.158,71.618,808.265,70.108
	L808.265,70.108z M799.216,61.437c0-0.002,0-0.003,0-0.005c0.001,0.001,0.001,0.002,0.001,0.003
	c0.032,0.055,0.064,0.111,0.096,0.166c-0.046-0.003-0.081-0.022-0.13-0.022C799.197,61.533,799.199,61.483,799.216,61.437z
	 M798.372,42.698c-0.114,0.078-0.175,0.151-0.219,0.223c-0.005-0.011-0.01-0.023-0.015-0.034
	C798.193,42.81,798.256,42.738,798.372,42.698z M794.507,53.88c0.084-0.116,0.178-0.233,0.324-0.355
	c0.419-0.171,0.852-0.309,1.271-0.484c-0.981,1.637-0.447,3.514-0.613,5.28c0.001,0.152-0.001,0.304,0,0.457
	c-0.062,0.076-0.125,0.152-0.168,0.244c-0.01-0.8-0.049-1.599-0.205-2.392c0.016-0.568-0.475-1.09-0.71-1.636
	C794.44,54.623,794.474,54.251,794.507,53.88z M720.969,70.525c1.283-0.912,2.587-1.493,4.107-0.453
	c0.315,0.216,0.635,0.346,0.953,0.418c-0.407,0.451-0.746,0.932-0.475,1.68c-0.322,0.046-0.644,0.091-0.967,0.137
	c-0.021-0.073-0.02-0.146-0.069-0.221c-1.031-1.022-3.089,0.29-3.808-1.435C720.803,70.615,720.862,70.549,720.969,70.525z
	 M712.451,69.991c-0.001,0.01-0.001,0.022-0.002,0.031c-0.001-0.002-0.002-0.005-0.003-0.007
	C712.449,70.008,712.448,69.998,712.451,69.991z M691.66,54.048c0.63,0.812,1.144,1.777,2.275,1.89
	c-0.291,2.687,1.205,4.815,2.315,7.064c0.282,0.378,0.523,0.776,0.742,1.186c-0.006,0.478,0.094,0.91,0.51,1.208
	c0.044,0.129,0.112,0.246,0.15,0.379c0.098,0.276,0.208,0.546,0.346,0.806c-0.014,0.235,0.258,0.565,0.481,0.881
	c0.098,0.242,0.189,0.482,0.22,0.705c-0.102,0.178-0.435,0.281-1.283,0.213c-1.093-0.407-2.209-0.741-3.385-0.841
	c-0.487-0.021-0.948-0.084-1.336-0.269c-0.206-0.296-0.42-0.579-0.716-0.728c-0.065-0.117-0.144-0.211-0.191-0.359
	c-0.275-0.623-0.549-1.247-0.923-1.823c-0.269-0.311-0.414-0.65-0.487-1.005c0.013-0.322,0.026-0.645,0.039-0.967
	c0.139-0.957,0.174-1.912,0.143-2.865c0.09-0.868,0.194-1.735,0.284-2.602c-0.09-1.121-0.379-2.145-1.378-2.823
	c-0.165-0.166-0.347-0.322-0.53-0.478c-0.259-1.116-0.497-2.247-2.095-2.417c-0.075-1.694-0.149-3.388-0.224-5.082
	C688.418,48.685,689.731,51.563,691.66,54.048z M668.843,40.686c0.003,0.026,0.006,0.051,0.009,0.077
	c-0.014-0.008-0.037-0.009-0.052-0.016C668.818,40.727,668.825,40.705,668.843,40.686z M578.19,56.99
	c0.002,0.015,0.005,0.03,0.007,0.045h0l-0.098,0.07C578.132,57.07,578.163,57.033,578.19,56.99z M572.788,44.71
	c0.003,0.005,0.008,0.009,0.011,0.014c-0.006,0-0.013,0.001-0.019,0C572.783,44.72,572.785,44.715,572.788,44.71z M563.706,45.114
	c0,0.011,0.001,0.023,0.001,0.034c-0.053,0.006-0.107,0.006-0.159,0.013C563.594,45.132,563.654,45.131,563.706,45.114z
	 M561.488,59.517c0.543-3.54,0.995-7.12,3.847-9.751c0.366-0.303,0.757-0.508,1.159-0.672c1.052-0.093,2.084-0.266,3.08-0.577
	c0.639-0.062,1.274-0.139,1.884-0.318c0.614-0.077,1.218-0.185,1.761-0.511c0.085-0.178,0.139-0.335,0.18-0.483
	c0.006,0.01,0.012,0.016,0.018,0.026c0.54,0.079,1.042,0.058,1.337-0.509c1.095-0.159,2.448-0.782,2.056,1.382
	c-0.1,0.551-0.075,1.125-0.045,1.699c-0.16,0.218-0.302,0.458-0.44,0.7c-0.057,0.135-0.085,0.279-0.129,0.417
	c-1.197,1.036-1.3,2.072-0.229,3.11c0.01,0.195,0.005,0.39,0.023,0.584c0.197,1.103,0.469,2.159,1.61,2.706
	c0.184,0.004,0.326-0.054,0.445-0.15c0.753,1.4,0.673,2.775,0.18,4.138c-0.164,0.191-0.366,0.377-0.628,0.552
	c-1.86,0.499-1.258-1.115-1.632-1.901c-0.51-0.98-0.343-2.143-0.843-3.122c-0.368-0.621-0.951-0.938-1.619-1.126
	c-0.226-0.067-0.446-0.122-0.664-0.165c-1.591-1.185-2.79-0.061-3.887,1.663l-0.167-0.073c-1.608,1.711-1.963,3.429-0.165,5.158
	c-0.001,0.009,0,0.018-0.001,0.028c0.054,4.015-4.683,4.126-5.746,7.433c-0.324-1.205-0.867-1.998-1.421-2.789
	c-0.773-0.755-0.382-1.492,0.022-2.228c0.246-0.728,0.233-1.453-0.043-2.174c-0.308-0.366-0.447-0.728-0.514-1.088
	c-0.003-0.232-0.005-0.463-0.008-0.695C560.988,60.358,561.171,59.936,561.488,59.517z M549.406,37.618
	c-0.007,0.005-0.013,0.011-0.019,0.016c0-0.006-0.001-0.012-0.001-0.018C549.393,37.616,549.399,37.617,549.406,37.618z
	 M548.818,38.47c0.004,0.005,0.009,0.01,0.013,0.015c0,0,0,0,0,0C548.826,38.48,548.822,38.475,548.818,38.47L548.818,38.47z
	 M452.381,28.856c0,0,0,0.001,0.001,0.001C452.381,28.857,452.38,28.857,452.381,28.856C452.38,28.857,452.38,28.856,452.381,28.856
	z M448.044,35.467c0.293-0.072,0.515-0.096,0.678-0.081c-0.215,0.14-0.453,0.221-0.712,0.157
	C448.021,35.517,448.036,35.494,448.044,35.467z M408.484,61.54c0.069,0.074,0.106,0.154,0.195,0.224
	c0.169-0.135,0.197-0.294,0.084-0.478c1.074-1.07-0.224-2.592,0.702-3.69c3.378,2.252,3.591,3.077,1.46,5.621
	c-0.59,0.704-0.981,1.914-2.243,1.128c-1.282-0.799,0.037-1.715-0.003-2.581C408.558,61.68,408.504,61.607,408.484,61.54z
	 M399.202,53.881c0.865-2.016,1.928-3.21,4.219-1.95c0.015,0.435,0.029,0.871,0.044,1.306c0.067,0.965-0.675,1.209-1.347,1.514
	c-1.159,0.044-2.08,0.334-1.868,1.803l-0.192-0.085c-1.999,2.233-1.889,4.429,0.117,6.591l0.277,0.157l0.318-0.007
	c-0.82,2.455,0.243,5.951-3.733,6.658c-1.215,0.216-1.987,1.204-3.446,2.591c0.744-5.834-0.002-11.208,3.34-15.834
	C398.623,56.501,398.74,54.959,399.202,53.881z M394.959,56.599c0.004-0.02,0.006-0.04,0.01-0.06
	c0.014,0.001,0.023,0.007,0.037,0.008C394.991,56.565,394.975,56.581,394.959,56.599z M377.928,40.802
	c-0.035,0.115-0.106,0.218-0.194,0.313c-0.033-0.113-0.055-0.223-0.083-0.334C377.744,40.788,377.836,40.795,377.928,40.802z
	 M372.14,47.377c1.222-0.788,3.031-0.404,3.877-1.942c2.368,1.01,4.104-0.868,6.106-1.432c1.975-0.557,3.55-1.059,5.208,0.888
	c1.504,1.765,3.51,1.396,5.234-0.057c1.893-1.596,2.57-3.637,2.528-5.941c0.114,0.296,0.348,0.511,0.796,0.58
	c-0.097,0.408-0.224,0.817-0.302,1.226c-0.226,1.809-0.823,3.584-1.034,5.351c-0.306,2.559-2.658,4.452-2.066,7.195
	c-1.048,1.956-2.58,3.324-4.745,3.924c0.093-2.857,1.072-5.783-0.666-8.496c-1.323-2.09-3.252-2.188-5.305-1.481
	c-2.043,0.704-2.446,2.376-2.309,4.34c0.066,0.95-0.079,1.915-0.129,2.873c0,0,0,0,0,0.001c-0.194,0.786,0.12,1.781-0.906,2.228
	c-3.685-0.88-4.301-4.737-6.645-6.928C371.037,49.009,371.802,48.129,372.14,47.377z M292.188,52.03
	c0.147-0.32,0.318-0.633,0.529-0.934c0.324-0.841,0.398-1.703,0.22-2.605c0.043-0.146-0.063-0.296-0.084-0.438
	c0.051-0.002,0.101-0.004,0.152-0.006c0.011,0.099,0.008,0.206,0.037,0.292c0.501,0.969,0.776,2.198,2.17,2.263
	c-0.807,1.031-0.467,2.001,0.426,2.942c0.62,0.654,1.674,1.149,0.856,2.342c-0.32,0.228-0.647,0.321-0.977,0.368
	c-0.349-0.06-0.698-0.088-1.048-0.033c-0.3-0.057-0.601-0.131-0.902-0.215c-0.55-0.147-1.107-0.262-1.651-0.429
	c-0.013-0.01-0.024-0.022-0.037-0.032c0.009-0.399-0.053-0.805-0.065-1.206c-0.037-0.266-0.037-0.522-0.023-0.774
	C292.038,53.091,292.184,52.583,292.188,52.03z M282.426,21.247c-0.02,0.034-0.034,0.041-0.055,0.078
	c-0.019-0.007-0.022-0.029-0.039-0.037C282.364,21.269,282.394,21.259,282.426,21.247z M282.338,28.095
	c0.027,0.061,0.048,0.137,0.071,0.209c-0.048,0.034-0.116,0.041-0.182,0.051C282.268,28.269,282.29,28.18,282.338,28.095z
	 M282.748,43.623c0.196-0.162-0.012-0.467-0.24-0.778c0.177-0.318,0.324-0.641,0.276-1.001c0.165-0.002,0.324-0.006,0.573,0.02
	c1.88-0.905,1.519-3.289,2.956-4.512c0.828,0.113,0.559,0.906,0.839,1.372c0.139,0.37,0.349,0.684,0.698,0.902
	c0.195,0.154,0.29,0.312,0.334,0.471c-0.081,0.273-0.157,0.545-0.103,0.807c-0.095,0.271-0.196,0.543-0.146,0.81
	c0.626,2.082-1.926,2.518-2.291,4.08c-1.643,1.857-1.655,3.981-0.062,6.681c-0.711,0.641-1.173,1.433-1.423,2.366
	c-0.046,0.129-0.09,0.223-0.135,0.308c-0.252,0.005-0.503,0.01-0.755,0.015c-0.102-0.118-0.204-0.247-0.308-0.34
	c-0.531-0.836-0.819-1.918-2.065-2.024c-0.215-0.022-0.432-0.036-0.65-0.051c-0.736-0.829-1.64-0.901-2.6-0.718
	c-0.023-0.017-0.048-0.022-0.07-0.04c-0.239-0.42-0.399-0.874-0.569-1.325C280.217,49.397,281.371,46.416,282.748,43.623z
	 M260.84,40.595c0.034-0.002,0.066,0.001,0.115-0.032c0.36-0.246,0.015,0.424-0.02,0.279c-0.041-0.064-0.066-0.128-0.094-0.192
	C260.84,40.631,260.84,40.613,260.84,40.595z M250.162,49.432c0.592-0.806,1.42-0.476,1.861,0.225
	c0.358,0.57,0.515,1.126-0.171,1.926c-1.293,1.509-3.581,1.344-4.625,3.087c-0.749-0.205-0.701-0.802-0.679-1.387
	C247.23,51.514,249.107,50.87,250.162,49.432z M234.583,39.668c-0.009,0.01-0.012,0.02-0.021,0.029
	c-0.009-0.007-0.022-0.012-0.032-0.019C234.547,39.676,234.565,39.668,234.583,39.668z M232.847,46
	c0.018-0.435,0.057-0.861,0.184-1.255c0.141-0.192,0.261-0.397,0.339-0.63c0.085-0.112,0.163-0.226,0.28-0.325
	c0.053-0.058,0.094-0.126,0.145-0.185c0.687,0.271,1.277-0.053,1.846-0.494c2.938-2.807,5.147-6.489,9.341-7.787
	c0.086-0.03,0.113-0.07,0.134-0.11c0.025,0.202,0.051,0.405,0.076,0.607c-0.177,0.589-0.285,1.192-0.331,1.808
	c0.198,0.861,0.282,1.816,1.451,1.841c-0.066,0.116-0.136,0.225-0.198,0.349c-0.103,0.539-0.101,1.096,0.129,1.577
	c1.15,2.414,0.607,3.161-2.151,2.732c-2.407-0.374-4.351,0.772-5.366,3.146c-0.227,0.854-0.187,1.73-0.231,2.6
	c-0.044,0.856,0.099,1.851-0.931,2.241c-0.914,0.345-1.713-0.113-2.386-0.701C233.548,49.989,232.386,48.342,232.847,46z
	 M210.129,45.134c0.007,0.011,0.012,0.023,0.019,0.035c0.034,0.091,0.069,0.181,0.104,0.272c-0.035-0.099-0.085-0.194-0.141-0.289
	C210.118,45.146,210.123,45.14,210.129,45.134z M209.696,50.483c0.161-0.135,0.311-0.286,0.425-0.486
	c0.075-0.268,0.094-0.542,0.047-0.816c-0.06-0.153-0.099-0.306-0.138-0.459c0.127-0.47,0.092-0.939-0.036-1.407
	c0.053-0.211,0.132-0.421,0.243-0.631c0.117-0.413,0.134-0.824,0.016-1.239c1.152,3.023,2.447,6.025,1.401,9.399
	c-0.009,0.105-0.035,0.161-0.05,0.248c-0.722-0.23-1.411-0.127-2.083,0.149c-0.36-0.728-0.639-1.474-0.567-2.308
	c-0.008-0.206-0.046-0.41-0.083-0.615C209.214,51.734,209.588,51.161,209.696,50.483z M194.175,56.396
	c0.106-0.383-0.316-1.364,0.719-1.208c1.231,0.186,1.887,1.167,1.976,2.351c0.041,0.547-0.167,1.097-1.14,1.069
	C194.153,58.564,194.066,57.691,194.175,56.396z M145.625,50.293c0.014,0.073,0.013,0.139,0.032,0.213
	c-0.026-0.061-0.025-0.117-0.043-0.177C145.617,50.318,145.622,50.305,145.625,50.293z M45.015,39.38
	c0.038,0.029,0.093,0.026,0.136,0.047c-0.015,0.02-0.017,0.034-0.033,0.055c-0.048-0.034-0.093-0.08-0.14-0.117
	C44.99,39.369,45.003,39.372,45.015,39.38z M45.115,39.484c-0.002,0.004-0.004,0.007-0.007,0.011
	c-0.003-0.006-0.009-0.006-0.013-0.011C45.102,39.483,45.109,39.484,45.115,39.484z M377.867,76.323
	C377.867,76.323,377.868,76.323,377.867,76.323c0.043,0.089,0.089,0.155,0.136,0.205h-2.321
	C376.282,76.106,376.971,75.932,377.867,76.323z M68.666,38.441c0.027-0.465,0.199-0.886,0.743-0.663
	c0.207,0.085,0.378,0.528,0.37,0.802c-0.011,0.41-0.127,0.87-0.703,0.892C68.515,39.297,68.643,38.842,68.666,38.441z
	 M522.431,40.794c0-0.001,0-0.003,0-0.004c0.001,0.001,0.001,0.002,0.002,0.003c0,0,0,0.001,0,0.001
	C522.433,40.794,522.432,40.794,522.431,40.794z"/>
</svg>
