<?xml version="1.0" encoding="utf-8"?>
<!-- Generator: Adobe Illustrator 17.0.0, SVG Export Plug-In . SVG Version: 6.00 Build 0)  -->
<!DOCTYPE svg PUBLIC "-//W3C//DTD SVG 1.1//EN" "http://www.w3.org/Graphics/SVG/1.1/DTD/svg11.dtd">
<svg version="1.1" id="Layer_1" xmlns="http://www.w3.org/2000/svg" xmlns:xlink="http://www.w3.org/1999/xlink" x="0px" y="0px"
	 width="566.929px" height="566.929px" viewBox="3521.646 0 566.929 566.929" enable-background="new 3521.646 0 566.929 566.929"
	 xml:space="preserve">
<g>
	<path d="M3805.111,160.583c-54.935,0-101.196,46.261-101.196,101.196c0,27.468,13.734,57.826,27.468,87.462
		c12.288,26.745,23.131,51.321,23.131,71.56v57.826c0,1.446,0,2.169,0.723,2.891l0,0l14.457,28.913
		c1.446,2.169,3.614,4.337,6.505,4.337h57.826c2.891,0,5.06-1.446,6.505-4.337l14.457-28.913l0,0
		c0.723-0.723,0.723-1.446,0.723-2.891v-57.826c0-19.516,11.565-44.093,23.131-70.837c13.734-29.636,27.468-60.718,27.468-88.185
		C3906.307,206.845,3860.046,160.583,3805.111,160.583z M3829.687,500.314h-49.153l-7.228-14.457h63.609L3829.687,500.314z
		 M3841.252,471.4h-72.283v-14.457h72.283V471.4z M3841.252,442.487h-72.283v-14.457h72.283V442.487z M3865.828,344.182
		c-11.565,25.299-21.685,48.43-23.853,69.392h-73.729c-2.168-21.685-13.011-45.538-24.576-70.115
		c-12.288-28.19-25.299-57.104-25.299-81.68c0-46.261,40.479-86.74,86.74-86.74c46.261,0,86.74,40.478,86.74,86.74
		C3891.85,286.356,3878.839,315.992,3865.828,344.182z"/>
	<path d="M3805.111,196.725c-36.142,0-65.055,28.913-65.055,65.055c0,4.337,2.891,7.228,7.228,7.228
		c4.337,0,7.228-2.891,7.228-7.228c0-28.19,22.408-50.598,50.598-50.598c4.337,0,7.228-2.891,7.228-7.228
		C3812.339,199.616,3809.448,196.725,3805.111,196.725z"/>
	<path d="M3812.339,131.67V59.387c0-4.337-2.891-7.228-7.228-7.228c-4.337,0-7.229,2.891-7.229,7.228v72.283
		c0,4.337,2.891,7.228,7.229,7.228C3809.448,138.899,3812.339,136.007,3812.339,131.67z"/>
	<path d="M3937.389,90.469l-50.598,50.598c-2.891,2.891-2.891,7.228,0,10.12c1.446,1.446,3.614,2.168,5.06,2.168
		c1.446,0,3.614-0.723,5.06-2.168l50.598-50.598c2.891-2.891,2.891-7.228,0-10.12S3940.28,87.578,3937.389,90.469z"/>
	<path d="M3718.371,153.355c2.168,0,3.614-0.723,5.06-2.168c2.891-2.891,2.891-7.228,0-10.12l-50.598-50.598
		c-2.891-2.891-7.228-2.891-10.12,0c-2.891,2.891-2.891,7.228,0,10.12l50.598,50.598
		C3714.757,152.632,3716.203,153.355,3718.371,153.355z"/>
</g>
</svg>
