<?xml version="1.0" encoding="utf-8"?>
<!-- Generator: Adobe Illustrator 17.0.0, SVG Export Plug-In . SVG Version: 6.00 Build 0)  -->
<!DOCTYPE svg PUBLIC "-//W3C//DTD SVG 1.1//EN" "http://www.w3.org/Graphics/SVG/1.1/DTD/svg11.dtd">
<svg version="1.1" id="Layer_1" xmlns="http://www.w3.org/2000/svg" xmlns:xlink="http://www.w3.org/1999/xlink" x="0px" y="0px"
	 width="566.929px" height="566.929px" viewBox="5282.471 0 566.929 566.929" enable-background="new 5282.471 0 566.929 566.929"
	 xml:space="preserve">
<path d="M5797.241,86.493v-0.723c0,0,0-0.723-0.723-0.723v-0.723c0,0,0,0,0-0.723c0,0,0-0.723-0.723-0.723l0,0
	c0,0-0.723,0-0.723-0.723l-0.723-0.723c0,0,0,0-0.723,0l0,0h-0.723c-0.723,0-0.723,0-1.446,0h-0.723h-0.723
	c-0.723,0-0.723,0-1.446,0h-0.723c0,0-0.723,0-0.723,0.723h-0.723l-448.155,260.219c0,0-0.723,0-0.723,0.723
	c-0.723,0-0.723,0.723-1.446,0.723c0,0.723-0.723,0.723-0.723,1.446c0,0,0,0.723-0.723,0.723c0,0,0,0,0,0.723
	c0,0.723,0,0.723,0,1.446c0,0.723,0,0.723,0,1.446c0,0.723,0,0.723,0,1.446s0,0.723,0.723,1.446c0,0,0,0,0,0.723
	s0.723,0.723,0.723,1.446l0,0c0.723,0.723,1.446,0.723,2.168,1.446l0,0l104.81,44.093v78.066c0,0.723,0,2.169,0.723,2.891
	c0.723,1.446,2.168,2.891,3.614,3.614c0.723,0.723,2.168,0.723,2.891,0.723s2.168,0,2.891-0.723
	c0.723-0.723,1.446-0.723,2.169-1.446l54.212-54.212l75.174,32.527l0,0c0.723,0,1.446,0.723,2.892,0.723c0.723,0,1.445,0,2.168,0
	h0.723c0.723,0,0.723,0,1.446-0.723c0,0,0.723,0,0.723-0.723l0.723-0.723c0,0,0-0.723,0.723-0.723c0.723,0,0.723-0.723,0.723-0.723
	l202.393-367.198l0,0V90.83c0-0.723,0-0.723,0-1.446v-0.723v-0.723C5797.241,87.216,5797.241,87.216,5797.241,86.493z
	 M5448.837,386.468l-91.077-39.756l375.872-218.295L5448.837,386.468z M5457.511,460.919v-54.935l38.31,16.625L5457.511,460.919z
	 M5584.729,445.74L5511,413.935l0,0l-47.707-20.239l299.252-271.061L5584.729,445.74z"/>
</svg>
