<?xml version="1.0" encoding="utf-8"?>
<!-- Generator: Adobe Illustrator 17.0.0, SVG Export Plug-In . SVG Version: 6.00 Build 0)  -->
<!DOCTYPE svg PUBLIC "-//W3C//DTD SVG 1.1//EN" "http://www.w3.org/Graphics/SVG/1.1/DTD/svg11.dtd">
<svg version="1.1" id="Layer_1" xmlns="http://www.w3.org/2000/svg" xmlns:xlink="http://www.w3.org/1999/xlink" x="0px" y="0px"
	 width="566.929px" height="566.929px" viewBox="1173.879 0 566.929 566.929" enable-background="new 1173.879 0 566.929 566.929"
	 xml:space="preserve">
<path fill="#231F20" d="M1560.721,402.098l-2.356-2.356c-8.677-8.681-20.154-13.462-32.317-13.463c-4.95,0-9.869,0.803-14.619,2.388
	l-89.497,29.831l-25.895-25.895c-7.658-7.652-17.83-11.866-28.644-11.866h-51.037v-9.385c0-3.994-3.25-7.243-7.244-7.243h-48.183
	v-3.842c0-3.994-3.25-7.243-7.244-7.243h-33.256c-3.994,0-7.244,3.249-7.244,7.243v155.194c0,3.994,3.25,7.243,7.244,7.243h33.256
	c3.994,0,7.244-3.249,7.244-7.243v-14.927h48.183c3.994,0,7.244-3.249,7.244-7.243v-9.385h7.378l49.679,29.804
	c9.911,5.946,21.246,9.088,32.779,9.088c13.359,0,26.161-4.106,37.022-11.874l115.314-82.363c4.164-2.968,6.8-7.605,7.23-12.72
	C1566.188,410.738,1564.352,405.728,1560.721,402.098z M1423.905,449.793c-0.943,9.173-7.754,12.544-10.639,13.567
	c-1.9,0.679-3.854,1.023-5.812,1.023c-3.966,0-7.546-1.395-10.082-3.927l-33.255-33.255c-1.369-1.369-3.188-2.124-5.121-2.124
	s-3.752,0.754-5.121,2.124c-2.824,2.824-2.824,7.419,0,10.243l33.256,33.256c5.181,5.181,12.601,8.153,20.358,8.153
	c3.604,0,7.177-0.618,10.622-1.838c11.407-4.051,18.958-13.67,20.202-25.733c0.761-7.373-1.21-14.791-5.571-21.129l83.261-27.754
	c3.248-1.08,6.612-1.628,9.996-1.628c8.324,0,16.177,3.269,22.113,9.204l2.356,2.356c0.832,0.832,0.886,1.8,0.844,2.302
	c-0.052,0.617-0.304,1.487-1.209,2.132l-115.317,82.366c-8.4,5.997-18.291,9.167-28.604,9.167c-8.914,0-17.669-2.427-25.318-7.019
	l-51.397-30.834c-1.131-0.671-2.416-1.024-3.724-1.024h-9.385v-74.196h51.037c6.948,0,13.481,2.707,18.396,7.622l32.63,32.63
	C1422.378,439.434,1424.429,444.786,1423.905,449.793z M1301.869,378.596v107.451h-40.94V378.596H1301.869z M1246.443,367.511v3.842
	v121.938v14.927h-18.769V367.511H1246.443z"/>
<path fill="#231F20" d="M1694.258,44.224h-33.256c-3.994,0-7.243,3.249-7.243,7.243v14.927h-48.183
	c-3.994,0-7.243,3.249-7.243,7.243v9.384h-7.378l-49.679-29.804c-9.911-5.946-21.246-9.088-32.779-9.088
	c-13.358,0-26.16,4.106-37.022,11.874l-115.314,82.363c-4.164,2.968-6.8,7.605-7.23,12.72c-0.429,5.104,1.407,10.114,5.037,13.744
	l2.356,2.356c8.677,8.682,20.155,13.463,32.317,13.463c4.951,0,9.87-0.803,14.619-2.388l89.497-29.831l25.895,25.895
	c7.658,7.652,17.83,11.866,28.644,11.866h51.038v9.385c0,3.994,3.249,7.243,7.243,7.243h48.183v3.842
	c0,3.994,3.249,7.243,7.243,7.243h33.256c3.994,0,7.243-3.249,7.243-7.243V51.468C1701.501,47.474,1698.252,44.224,1694.258,44.224z
	 M1687.014,58.711v140.707h-18.769v-3.842V73.638V58.711H1687.014z M1653.758,80.882v107.451h-40.94V80.882H1653.758z
	 M1490.782,117.137c0.943-9.173,7.754-12.543,10.639-13.567c1.9-0.679,3.854-1.023,5.812-1.023c3.966,0,7.546,1.395,10.081,3.927
	l33.255,33.255c1.369,1.369,3.188,2.124,5.121,2.124c1.933,0,3.752-0.754,5.121-2.124c1.369-1.369,2.124-3.188,2.124-5.121
	c0-1.933-0.754-3.752-2.124-5.121l-33.256-33.256c-5.181-5.181-12.601-8.153-20.358-8.153c-3.604,0-7.177,0.618-10.622,1.838
	c-11.406,4.051-18.958,13.671-20.202,25.733c-0.761,7.373,1.209,14.791,5.571,21.129l-83.261,27.754
	c-3.248,1.08-6.611,1.628-9.996,1.628c-8.324,0-16.177-3.269-22.113-9.204l-2.356-2.356c-0.832-0.832-0.886-1.8-0.844-2.302
	c0.052-0.617,0.304-1.488,1.209-2.132L1479.903,67.8c8.4-5.997,18.291-9.167,28.604-9.167c8.914,0,17.669,2.427,25.318,7.019
	l51.398,30.834c1.131,0.671,2.416,1.024,3.724,1.024h9.385v74.196h-51.038c-6.948,0-13.481-2.707-18.396-7.622l-32.63-32.63
	C1492.31,127.495,1490.259,122.143,1490.782,117.137z"/>
<path fill="#231F20" d="M1590.367,248.399h-5.509h-0.035l-0.024,0.001c-1.647-0.004-4.757-0.377-5.241-0.436
	c-10.181-2.098-18.102-10.016-20.206-20.2c-0.059-0.492-0.431-3.631-0.431-5.268v-5.543v-1.701h-1.701h-199.752h-1.701v1.701v5.543
	c-0.001,1.639-0.372,4.776-0.431,5.268c-2.104,10.184-10.025,18.102-20.206,20.2c-0.484,0.059-3.595,0.432-5.24,0.436l-0.006,0
	l-0.043,0h-5.52h-1.701v1.701v66.729v1.701h1.701h5.543c1.64,0.001,4.781,0.377,5.267,0.436c10.181,2.098,18.102,10.016,20.206,20.2
	c0.059,0.491,0.43,3.631,0.43,5.269l0,5.542v1.701h1.701h199.752h1.701v-1.701v-5.695v-0.037l-0.001-0.024
	c0.004-1.584,0.374-4.586,0.432-5.052c0.422-2.041,1.117-4.068,2.065-6.025c0.054-0.114,0.105-0.215,0.156-0.316l0.071-0.141
	l0.119-0.237c0.085-0.171,0.17-0.342,0.262-0.509c4.545-8.39,13.278-13.596,22.798-13.596h5.545h1.701v-1.701V250.1v-1.701H1590.367
	z M1545.024,337.19h-175.36c-2.995-16.457-16.095-29.558-32.558-32.557v-42.337c16.459-2.999,29.558-16.099,32.557-32.557h175.36
	c2.995,16.457,16.095,29.558,32.558,32.557v42.336C1561.125,307.627,1548.024,320.727,1545.024,337.19z"/>
<polygon fill="#231F20" points="1403.591,312.982 1401.89,312.982 1401.89,314.683 1401.89,324.87 1401.89,326.571 
	1403.591,326.571 1414.677,326.571 1416.377,326.571 1416.377,324.87 1416.377,314.683 1416.377,312.982 1414.677,312.982 "/>
<polygon fill="#231F20" points="1403.591,264.566 1401.89,264.566 1401.89,266.267 1401.89,276.454 1401.89,278.155 
	1403.591,278.155 1414.677,278.155 1416.377,278.155 1416.377,276.454 1416.377,266.267 1416.377,264.566 1414.677,264.566 "/>
<polygon fill="#231F20" points="1403.591,288.774 1401.89,288.774 1401.89,290.475 1401.89,300.662 1401.89,302.363 
	1403.591,302.363 1414.677,302.363 1416.377,302.363 1416.377,300.662 1416.377,290.475 1416.377,288.774 1414.677,288.774 "/>
<polygon fill="#231F20" points="1403.591,240.358 1401.89,240.358 1401.89,242.059 1401.89,252.246 1401.89,253.947 
	1403.591,253.947 1414.677,253.947 1416.377,253.947 1416.377,252.246 1416.377,242.059 1416.377,240.358 1414.677,240.358 "/>
</svg>
