<?xml version="1.0" encoding="utf-8"?>
<!-- Generator: Adobe Illustrator 17.0.0, SVG Export Plug-In . SVG Version: 6.00 Build 0)  -->
<!DOCTYPE svg PUBLIC "-//W3C//DTD SVG 1.1//EN" "http://www.w3.org/Graphics/SVG/1.1/DTD/svg11.dtd">
<svg version="1.1" id="Layer_1" xmlns="http://www.w3.org/2000/svg" xmlns:xlink="http://www.w3.org/1999/xlink" x="0px" y="0px"
	 width="566.929px" height="566.929px" viewBox="1760.821 0 566.929 566.929" enable-background="new 1760.821 0 566.929 566.929"
	 xml:space="preserve">
<path fill="#231F20" d="M2029.286,283.27c-10.523,0-21.214-5.856-30.915-16.934c-19.266-22-30.505-58.592-26.723-87.009
	c3.893-29.251,26.516-48.152,57.636-48.152c31.121,0,53.745,18.901,57.638,48.152c3.782,28.417-7.457,65.01-26.723,87.01
	C2050.498,277.414,2039.808,283.27,2029.286,283.27z M2029.284,145.632c-23.789,0-40.383,13.642-43.306,35.602
	c-3.228,24.253,6.775,56.745,23.269,75.578c6.777,7.739,13.894,12.001,20.039,12.001c6.145,0,13.261-4.262,20.037-12
	c16.493-18.833,26.496-51.325,23.269-75.579C2069.668,159.273,2053.075,145.632,2029.284,145.632z M2218.559,338.995
	c8.408-22.52,12.688-46.2,12.688-70.531c0-27.259-5.342-53.709-15.877-78.618c-10.173-24.051-24.733-45.649-43.277-64.192
	c-18.543-18.543-40.14-33.104-64.192-43.276c-24.908-10.535-51.359-15.877-78.618-15.877c-27.259,0-53.709,5.342-78.618,15.877
	c-24.051,10.173-45.649,24.733-64.192,43.276c-18.543,18.543-33.104,40.141-43.276,64.192
	c-10.535,24.908-15.877,51.359-15.877,78.618c0,27.258,5.342,53.709,15.877,78.618c10.173,24.051,24.733,45.649,43.276,64.192
	c18.543,18.543,40.141,33.104,64.192,43.276c24.908,10.535,51.359,15.877,78.618,15.877c24.331,0,48.011-4.281,70.531-12.689
	c15.114,25.531,42.936,42.691,74.694,42.691c47.829,0,86.74-38.911,86.74-86.74C2261.25,381.93,2244.09,354.109,2218.559,338.995z
	 M1841.778,268.464c0-103.557,83.949-187.506,187.506-187.506s187.506,83.949,187.506,187.506c0,22.558-4.005,44.175-11.309,64.206
	c-9.624-3.692-20.065-5.721-30.973-5.721c-15.584,0-30.22,4.134-42.873,11.358c-6.545-5.683-13.381-10.801-20.518-15.306
	c-24.16-15.25-51.524-23.27-79.31-23.27c-0.841,0-1.683,0.007-2.525,0.022c-28.667-0.502-56.943,7.536-81.833,23.248
	c-24.159,15.25-45.002,37.307-62.099,65.628C1858.154,356.087,1841.778,314.19,1841.778,268.464z M2029.285,455.97
	c-52.393,0-99.758-21.497-133.78-56.141c16.34-28.193,36.385-49.91,59.663-64.603c22.858-14.428,47.739-21.505,73.983-21.017
	l0.133,0.002l0.133-0.002c26.236-0.483,51.127,6.588,73.985,21.017c5.494,3.468,10.802,7.338,15.928,11.585
	c-19.264,15.923-31.561,39.991-31.561,66.877c0,10.908,2.029,21.349,5.721,30.973C2073.46,451.965,2051.843,455.97,2029.285,455.97z
	 M2174.51,485.972c-39.921,0-72.283-32.362-72.283-72.283s32.362-72.283,72.283-72.283c39.921,0,72.283,32.362,72.283,72.283
	S2214.43,485.972,2174.51,485.972z M2167.744,455.419l58.995-58.995c2.822-2.823,2.822-7.399,0-10.223
	c-2.822-2.822-7.4-2.822-10.223,0l-53.884,53.884l-30.13-30.13c-2.822-2.822-7.4-2.822-10.223,0c-2.822,2.823-2.822,7.399,0,10.223
	l35.241,35.241c1.411,1.411,3.262,2.117,5.111,2.117S2166.333,456.83,2167.744,455.419z"/>
</svg>
