<?xml version="1.0" encoding="utf-8"?>
<!-- Generator: Adobe Illustrator 17.0.0, SVG Export Plug-In . SVG Version: 6.00 Build 0)  -->
<!DOCTYPE svg PUBLIC "-//W3C//DTD SVG 1.1//EN" "http://www.w3.org/Graphics/SVG/1.1/DTD/svg11.dtd">
<svg version="1.1" id="Layer_1" xmlns="http://www.w3.org/2000/svg" xmlns:xlink="http://www.w3.org/1999/xlink" x="0px" y="0px"
	 width="566.929px" height="566.929px" viewBox="0.008 0 566.929 566.929" enable-background="new 0.008 0 566.929 566.929"
	 xml:space="preserve">
<path d="M62.981,514.709h43.37c3.997,0,7.228-3.231,7.228-7.228v-21.685h65.055c3.997,0,7.228-3.231,7.228-7.228v-14.457h12.454
	l65.315,39.185c12.845,7.705,27.243,11.536,41.606,11.536c16.509,0,32.983-5.053,46.991-15.071l150.385-107.413
	c4.908-3.499,8.002-8.956,8.508-14.97s-1.663-11.905-5.927-16.17l-3.072-3.072c-15.519-15.526-38.1-20.861-58.94-13.907
	l-118.016,39.336l-34.739-34.739c-9.563-9.556-22.27-14.825-35.787-14.825h-68.777v-14.457c0-3.997-3.231-7.228-7.228-7.228h-65.055
	v-7.228c0-3.997-3.231-7.228-7.228-7.228h-43.37c-3.997,0-7.228,3.231-7.228,7.228V507.48
	C55.753,511.478,58.984,514.709,62.981,514.709z M254.639,348.458c9.657,0,18.736,3.766,25.559,10.589l42.553,42.553
	c5.624,5.624,8.544,13.278,7.792,20.471c-1.359,13.213-11.182,18.078-15.338,19.553c-8.392,3-17.427,1.294-23.037-4.308
	l-43.37-43.37c-2.826-2.826-7.395-2.826-10.221,0c-2.826,2.826-2.826,7.395,0,10.221l43.37,43.37
	c6.505,6.505,15.555,9.982,24.981,9.982c4.366,0,8.804-0.744,13.112-2.27c14.045-4.988,23.347-16.835,24.88-31.696
	c1.041-10.083-2.096-20.21-8.66-28.465l111.482-37.161c15.606-5.19,32.527-1.2,44.143,10.416l3.072,3.072
	c1.713,1.713,1.829,3.723,1.742,4.756c-0.087,1.034-0.52,2.993-2.501,4.402L343.815,487.986
	c-21.533,15.375-50.092,16.502-72.753,2.899l-67.028-40.211c-1.12-0.665-2.4-1.019-3.715-1.019h-14.457V348.458H254.639z
	 M171.405,326.773v144.566h-57.826V326.773H171.405z M70.209,312.316h28.913v7.228v159.023v21.685H70.209V312.316z"/>
<circle cx="149.72" cy="442.426" r="14.457"/>
<path d="M344.885,283.403c-3.238,0-7.228-3.983-7.228-7.228c0-3.99-3.231-7.228-7.228-7.228s-7.228,3.238-7.228,7.228
	c0,8.659,6.39,16.893,14.457,20.16v8.753c0,3.997,3.231,7.228,7.228,7.228s7.228-3.231,7.228-7.228v-8.753
	c8.067-3.267,14.457-11.5,14.457-20.16c0-10.842-9.209-17.738-17.333-23.824c-5.428-4.07-11.58-8.681-11.58-12.317
	c0-3.246,3.99-7.228,7.228-7.228c3.173,0,7.228,4.055,7.228,7.228c0,3.99,3.231,7.228,7.228,7.228s7.228-3.238,7.228-7.228
	c0-8.667-6.39-16.893-14.457-20.16v-8.753c0-3.99-3.231-7.228-7.228-7.228s-7.228,3.238-7.228,7.228v8.753
	c-8.067,3.267-14.457,11.493-14.457,20.16c0,10.871,9.223,17.782,17.362,23.882c5.414,4.055,11.551,8.652,11.551,12.259
	C352.113,279.348,348.058,283.403,344.885,283.403z"/>
<path d="M344.885,348.458c47.83,0,86.74-38.91,86.74-86.74s-38.91-86.74-86.74-86.74s-86.74,38.91-86.74,86.74
	S297.055,348.458,344.885,348.458z M344.885,189.435c39.857,0,72.283,32.426,72.283,72.283s-32.426,72.283-72.283,72.283
	s-72.283-32.426-72.283-72.283S305.028,189.435,344.885,189.435z"/>
<path d="M294.286,167.75v-57.826c0-3.99-3.231-7.228-7.228-7.228c-3.997,0-7.228,3.238-7.228,7.228v57.826
	c0,3.99,3.231,7.228,7.228,7.228C291.055,174.979,294.286,171.74,294.286,167.75z"/>
<path d="M337.656,146.065c0,3.99,3.231,7.228,7.228,7.228s7.228-3.238,7.228-7.228v-21.685c0-3.99-3.231-7.228-7.228-7.228
	s-7.228,3.238-7.228,7.228V146.065z"/>
<path d="M344.885,102.696c3.997,0,7.228-3.238,7.228-7.228V59.326c0-3.99-3.231-7.228-7.228-7.228s-7.228,3.238-7.228,7.228v36.142
	C337.656,99.457,340.887,102.696,344.885,102.696z"/>
<path d="M323.2,153.294V81.011c0-3.99-3.231-7.228-7.228-7.228s-7.228,3.238-7.228,7.228v72.283c0,3.99,3.231,7.228,7.228,7.228
	S323.2,157.284,323.2,153.294z"/>
<path d="M381.026,153.294V81.011c0-3.99-3.231-7.228-7.228-7.228c-3.997,0-7.228,3.238-7.228,7.228v72.283
	c0,3.99,3.231,7.228,7.228,7.228C377.795,160.522,381.026,157.284,381.026,153.294z"/>
<path d="M409.939,167.75v-57.826c0-3.99-3.231-7.228-7.228-7.228c-3.997,0-7.228,3.238-7.228,7.228v57.826
	c0,3.99,3.231,7.228,7.228,7.228C406.708,174.979,409.939,171.74,409.939,167.75z"/>
</svg>
