<?xml version="1.0" encoding="utf-8"?>
<!-- Generator: Adobe Illustrator 17.0.0, SVG Export Plug-In . SVG Version: 6.00 Build 0)  -->
<!DOCTYPE svg PUBLIC "-//W3C//DTD SVG 1.1//EN" "http://www.w3.org/Graphics/SVG/1.1/DTD/svg11.dtd">
<svg version="1.1" id="Layer_1" xmlns="http://www.w3.org/2000/svg" xmlns:xlink="http://www.w3.org/1999/xlink" x="0px" y="0px"
	 width="566.929px" height="566.929px" viewBox="5869.413 0 566.929 566.929" enable-background="new 5869.413 0 566.929 566.929"
	 xml:space="preserve">
<g>
	<path d="M5939.643,507.542c0,4.337,2.892,7.228,7.229,7.228h216.849c4.337,0,7.228-2.891,7.228-7.228s-2.891-7.228-7.228-7.228
		h-96.859l-96.859-200.947l99.751-99.751l14.457,14.457v18.794c0,39.033,20.962,75.174,54.212,93.245
		c1.446,0.723,2.168,0.723,3.614,0.723c2.168,0,3.614-0.723,5.06-2.168l39.033-39.033c10.12,7.951,22.408,12.288,35.418,12.288
		c15.18,0,29.636-5.783,41.202-16.625c10.842-10.842,16.625-25.299,16.625-41.201c0-13.011-4.337-25.299-12.288-35.419
		l39.033-39.033c2.168-2.168,2.892-6.505,0.723-9.397c-27.467-41.201-74.451-46.261-106.979-46.261h-11.565l-55.658-55.658
		c-2.891-2.891-7.228-2.891-10.12,0l-93.968,93.968c-2.891,2.891-2.891,7.228,0,10.12l31.082,31.082l-103.365,103.365l0,0
		c0,0.723-0.723,0.723-0.723,1.446s-0.723,0.723-0.723,1.446c0,0.723,0,0.723,0,1.446c0,0.723,0,0.723,0,1.446
		c0,0.723,0,0.723,0,1.446c0,0.723,0,0.723,0.723,1.446l0,0l95.414,198.778h-104.087
		C5942.534,500.314,5939.643,503.205,5939.643,507.542z M6251.905,270.454c-7.951,8.674-18.793,13.011-30.359,13.011
		c-9.396,0-18.071-2.891-25.299-7.951l60.718-60.718c5.06,7.228,7.951,15.902,7.951,25.299
		C6264.917,251.66,6260.579,262.503,6251.905,270.454z M6043.73,153.355l83.848-83.848l52.767,52.767
		c1.446,1.446,2.891,2.168,5.06,2.168h14.457c28.19,0,67.946,3.614,91.799,35.419l-39.756,39.756l0,0l0,0l-111.316,110.593
		c-26.021-15.902-41.924-45.538-41.924-77.343v-21.685c0-2.168-0.723-3.614-2.168-5.06L6043.73,153.355z"/>
	<path d="M6281.542,300.09c-2.892,2.891-2.892,7.228,0,10.12l36.142,36.142c1.445,1.446,3.614,2.168,5.06,2.168
		s3.614-0.723,5.06-2.168c2.891-2.891,2.891-7.228,0-10.12l-36.142-36.141C6288.77,297.198,6284.433,297.198,6281.542,300.09z"/>
	<path d="M6207.09,334.063v43.37c0,4.337,2.892,7.228,7.229,7.228s7.228-2.891,7.228-7.228v-43.37c0-4.337-2.891-7.228-7.228-7.228
		S6207.09,329.726,6207.09,334.063z"/>
	<path d="M6366.112,254.551c0-4.337-2.891-7.228-7.228-7.228h-50.598c-4.337,0-7.229,2.891-7.229,7.228
		c0,4.337,2.892,7.228,7.229,7.228h50.598C6363.221,261.78,6366.112,258.888,6366.112,254.551z"/>
</g>
</svg>
