<?xml version="1.0" encoding="utf-8"?>
<!-- Generator: Adobe Illustrator 17.0.0, SVG Export Plug-In . SVG Version: 6.00 Build 0)  -->
<!DOCTYPE svg PUBLIC "-//W3C//DTD SVG 1.1//EN" "http://www.w3.org/Graphics/SVG/1.1/DTD/svg11.dtd">
<svg version="1.1" id="Layer_1" xmlns="http://www.w3.org/2000/svg" xmlns:xlink="http://www.w3.org/1999/xlink" x="0px" y="0px"
	 width="566.929px" height="566.929px" viewBox="2934.704 0 566.929 566.929" enable-background="new 2934.704 0 566.929 566.929"
	 xml:space="preserve">
<path d="M3319.378,88.3h-202.392c-4.337,0-7.228,2.891-7.228,7.228v101.196c0,4.337,2.891,7.228,7.228,7.228h202.392
	c4.337,0,7.228-2.891,7.228-7.228V95.529C3326.606,91.192,3323.715,88.3,3319.378,88.3z M3312.149,189.497h-187.936v-86.74h187.936
	V189.497z M3189.268,138.899h57.826c4.337,0,7.228-2.891,7.228-7.228c0-4.337-2.891-7.228-7.228-7.228h-57.826
	c-4.337,0-7.228,2.891-7.228,7.228C3182.04,136.007,3184.931,138.899,3189.268,138.899z M3189.268,276.236h57.826
	c4.337,0,7.228-2.891,7.228-7.228s-2.891-7.228-7.228-7.228h-57.826c-4.337,0-7.228,2.891-7.228,7.228
	S3184.931,276.236,3189.268,276.236z M3189.268,413.574h57.826c4.337,0,7.228-2.891,7.228-7.228s-2.891-7.228-7.228-7.228h-57.826
	c-4.337,0-7.228,2.891-7.228,7.228S3184.931,413.574,3189.268,413.574z M3349.031,400.254c-0.863,0-1.726-0.153-2.545-0.461
	c-0.002-0.001-0.004-0.002-0.006-0.002c-0.003-0.002-0.006-0.003-0.009-0.004c-0.005-0.002-0.011-0.004-0.016-0.006
	c-0.001,0-0.003-0.001-0.004-0.001c-0.879-0.335-1.705-0.848-2.424-1.537c0-0.001,0-0.001,0-0.001
	c-0.009-0.008-0.017-0.016-0.025-0.023c0-0.001-0.001-0.001-0.001-0.002c-0.011-0.011-0.021-0.021-0.032-0.031
	c-0.001-0.001-0.003-0.003-0.005-0.004c-0.002-0.004-0.003-0.005-0.007-0.007c-0.001-0.002-0.005-0.004-0.006-0.007
	c-0.006-0.005-0.011-0.01-0.016-0.015c-0.001-0.001-0.002-0.002-0.003-0.004c-0.005-0.004-0.009-0.008-0.014-0.013l0,0
	l-35.241-35.241c-2.822-2.823-2.822-7.4,0-10.223c2.822-2.822,7.4-2.822,10.223,0l30.13,30.13l53.884-53.884
	c2.822-2.822,7.4-2.822,10.223,0c2.822,2.823,2.822,7.399,0,10.223l-58.995,58.996l0,0
	C3352.731,399.548,3350.88,400.254,3349.031,400.254z M3447.648,356.406c0-44.767-34.089-81.719-77.672-86.267V59.387
	c0-4.337-2.892-7.228-7.229-7.228h-289.132c-4.337,0-7.229,2.891-7.229,7.228v448.155c0,4.337,2.891,7.228,7.229,7.228h289.132
	c4.337,0,7.229-2.891,7.229-7.228v-64.869C3413.559,438.125,3447.648,401.173,3447.648,356.406z M3080.844,500.314V66.616h274.675
	v203.223c-10.212,0.629-19.951,3.031-28.913,6.905v-43.877c0-4.337-2.891-7.228-7.228-7.228h-202.393
	c-4.337,0-7.228,2.891-7.228,7.228v101.196c0,4.337,2.891,7.228,7.228,7.228h158.503c-0.866,4.91-1.321,9.96-1.321,15.115
	c0,2.21,0.084,4.401,0.248,6.57h-157.43c-4.337,0-7.228,2.891-7.228,7.228V471.4c0,4.337,2.891,7.228,7.228,7.228h202.393
	c4.337,0,7.228-2.891,7.228-7.228v-35.332c8.962,3.874,18.701,6.276,28.913,6.905v57.34H3080.844z M3279.361,326.834h-155.148
	v-86.74h187.936v44.61C3297.229,294.883,3285.634,309.591,3279.361,326.834z M3312.149,428.107v36.065h-187.936v-86.74h152.537
	C3281.978,398.351,3294.819,416.285,3312.149,428.107z M3369.969,428.104c-1.165,0.146-2.339,0.259-3.519,0.353
	c-0.393,0.03-0.783,0.066-1.178,0.09c-0.436,0.028-0.875,0.046-1.313,0.066c-1.013,0.042-2.028,0.077-3.052,0.077
	c-0.979,0-1.95-0.035-2.919-0.074c-0.824-0.038-1.646-0.087-2.465-0.147c-10.405-0.767-20.202-3.718-28.917-8.425
	c-0.22-0.119-0.436-0.246-0.655-0.367c-0.675-0.374-1.342-0.758-2.003-1.152c-0.292-0.174-0.585-0.348-0.875-0.527
	c-0.786-0.484-1.563-0.98-2.329-1.493c-0.265-0.178-0.525-0.362-0.788-0.543c-0.592-0.407-1.177-0.824-1.755-1.248
	c-0.265-0.195-0.533-0.386-0.795-0.584c-0.726-0.548-1.439-1.11-2.143-1.684c-0.277-0.226-0.551-0.457-0.824-0.687
	c-0.55-0.462-1.092-0.932-1.628-1.41c-0.219-0.195-0.442-0.386-0.658-0.584c-9.453-8.643-16.596-19.766-20.412-32.337
	c-0.35-1.153-0.671-2.319-0.964-3.496c-0.007-0.026-0.012-0.053-0.018-0.079c-0.287-1.162-0.548-2.335-0.779-3.519
	c0-0.001,0-0.001,0-0.002c-0.469-2.411-0.819-4.865-1.043-7.356l0,0c-0.195-2.165-0.311-4.354-0.311-6.57
	c0-5.185,0.557-10.239,1.595-15.115l0,0c0.264-1.24,0.562-2.468,0.889-3.683c0.019-0.07,0.04-0.139,0.059-0.209
	c0.317-1.163,0.66-2.315,1.033-3.454c0.017-0.051,0.035-0.101,0.052-0.152c0.385-1.165,0.796-2.319,1.238-3.458
	c0.005-0.013,0.01-0.026,0.015-0.039c0.454-1.169,0.937-2.324,1.448-3.463h0c4.075-9.074,9.952-17.162,17.198-23.786
	c0.217-0.198,0.439-0.389,0.658-0.584c0.536-0.478,1.078-0.948,1.628-1.41c0.274-0.23,0.547-0.461,0.824-0.688
	c0.704-0.574,1.417-1.136,2.142-1.683c0.263-0.199,0.531-0.391,0.797-0.586c0.579-0.424,1.164-0.841,1.755-1.248
	c0.263-0.181,0.523-0.365,0.788-0.542c0.765-0.512,1.542-1.009,2.328-1.492c0.291-0.179,0.585-0.354,0.879-0.529
	c0.659-0.393,1.325-0.776,1.997-1.148c0.22-0.122,0.437-0.249,0.659-0.369v0c8.715-4.707,18.51-7.658,28.914-8.425
	c0.821-0.061,1.644-0.109,2.47-0.147c0.969-0.039,1.939-0.074,2.918-0.074c1.023,0,2.038,0.035,3.05,0.077
	c0.439,0.02,0.878,0.038,1.315,0.066c0.393,0.023,0.782,0.06,1.173,0.089c1.183,0.094,2.36,0.207,3.527,0.354
	c35.639,4.462,63.219,34.849,63.219,71.698C3433.191,393.256,3405.61,423.643,3369.969,428.104z"/>
</svg>
