<?xml version="1.0" encoding="utf-8"?>
<!-- Generator: Adobe Illustrator 17.0.0, SVG Export Plug-In . SVG Version: 6.00 Build 0)  -->
<!DOCTYPE svg PUBLIC "-//W3C//DTD SVG 1.1//EN" "http://www.w3.org/Graphics/SVG/1.1/DTD/svg11.dtd">
<svg version="1.1" id="Layer_1" xmlns="http://www.w3.org/2000/svg" xmlns:xlink="http://www.w3.org/1999/xlink" x="0px" y="0px"
	 width="566.929px" height="566.929px" viewBox="4695.53 0 566.929 566.929" enable-background="new 4695.53 0 566.929 566.929"
	 xml:space="preserve">
<g>
	<g transform="translate(-838.000000, -1791.000000)">
		<g transform="translate(838.000000, 1791.000000)">
			<path d="M4863,138.471h144.992c4.004,0,7.25-3.246,7.25-7.25c0-4.004-3.246-7.25-7.25-7.25H4863c-4.004,0-7.25,3.246-7.25,7.25
				C4855.751,135.226,4858.997,138.471,4863,138.471z"/>
			<path d="M4966.619,100.1l36.248,36.248c2.831,2.831,7.421,2.831,10.252,0s2.831-7.421,0-10.253l-36.248-36.248
				c-2.831-2.831-7.421-2.831-10.252,0C4963.787,92.679,4963.787,97.269,4966.619,100.1z"/>
			<path d="M4976.871,172.596l36.248-36.248c2.831-2.831,2.831-7.421,0-10.253s-7.421-2.831-10.252,0l-36.248,36.248
				c-2.832,2.831-2.832,7.421,0,10.253C4969.45,175.427,4974.04,175.427,4976.871,172.596z"/>
			<path d="M5152.985,479.205h36.248c4.004,0,7.25-3.246,7.25-7.25V138.473c0-4.004-3.246-7.25-7.25-7.25h-36.248
				c-4.004,0-7.25,3.246-7.25,7.25v333.483C5145.736,475.959,5148.981,479.205,5152.985,479.205z M5160.235,145.723h21.749v318.983
				h-21.749V145.723z"/>
			<path d="M5015.243,268.965v-14.499h65.247c4,0,7.25,3.25,7.25,7.25c0,4-3.25,7.25-7.25,7.25H5015.243z M5000.743,276.214
				c0,4.004,3.246,7.25,7.25,7.25h72.497c12.007,0,21.749-9.741,21.749-21.749c0-12.007-9.741-21.749-21.749-21.749h-72.497
				c-4.004,0-7.25,3.246-7.25,7.25V276.214z"/>
			<path d="M5015.243,355.96v-14.499h65.247c4,0,7.25,3.25,7.25,7.25c0,4-3.25,7.25-7.25,7.25H5015.243z M5000.743,363.21
				c0,4.004,3.246,7.25,7.25,7.25h72.497c12.007,0,21.749-9.741,21.749-21.749c0-12.007-9.741-21.749-21.749-21.749h-72.497
				c-4.004,0-7.25,3.246-7.25,7.25V363.21z"/>
			<path d="M4768.755,326.963h28.999c4.004,0,7.25-3.246,7.25-7.25v-28.999c0-4.004-3.246-7.25-7.25-7.25h-28.999
				c-4.004,0-7.25,3.246-7.25,7.25v28.999C4761.506,323.717,4764.751,326.963,4768.755,326.963z M4776.005,312.464v-14.499h14.5
				v14.499H4776.005z"/>
			<path d="M4834.002,290.713v-24.163c0-4.004-3.246-7.25-7.25-7.25s-7.25,3.246-7.25,7.25v24.163c0,4.004,3.246,7.25,7.25,7.25
				S4834.002,294.717,4834.002,290.713z"/>
			<path d="M4834.002,343.875v-24.163c0-4.004-3.246-7.25-7.25-7.25s-7.25,3.246-7.25,7.25v24.163c0,4.004,3.246,7.25,7.25,7.25
				S4834.002,347.879,4834.002,343.875z"/>
			<path d="M4805.003,275.364l43.498-5.437v70.571l-43.498-5.437V275.364z M4790.504,341.461c0,3.656,2.722,6.74,6.35,7.194
				l57.997,7.25c4.327,0.541,8.149-2.833,8.149-7.194v-86.995c0-4.361-3.822-7.734-8.149-7.194l-57.997,7.25
				c-3.628,0.453-6.35,3.537-6.35,7.194V341.461z"/>
			<path d="M4986.244,384.959V225.467c0-4,3.25-7.25,7.25-7.25c4,0,7.25,3.25,7.25,7.25v159.492c0,4-3.25,7.25-7.25,7.25
				C4989.494,392.208,4986.244,388.958,4986.244,384.959z M4971.745,384.959c0,12.007,9.742,21.749,21.749,21.749
				s21.749-9.741,21.749-21.749V225.467c0-12.007-9.742-21.749-21.749-21.749s-21.749,9.741-21.749,21.749V384.959z"/>
			<path d="M4971.745,233.718v142.99l-88.208-11.451c-11.751-0.878-20.536-10.339-20.536-21.729v-76.628
				c0-11.39,8.786-20.853,20.14-21.696L4971.745,233.718z M4848.501,343.528c0,18.983,14.644,34.753,33.569,36.149l95.991,12.472
				c4.338,0.563,8.183-2.815,8.183-7.189V225.468c0-4.374-3.845-7.752-8.183-7.189l-96.391,12.506
				c-18.529,1.364-33.17,17.134-33.17,36.115V343.528z"/>
			<path d="M4971.745,341.461h-21.749c-20.014,0-36.249-16.234-36.249-36.248c0-20.014,16.234-36.248,36.249-36.248h21.749V341.461z
				 M4899.249,305.213c0,28.022,22.726,50.747,50.748,50.747h28.998c4.004,0,7.25-3.246,7.25-7.25v-86.995
				c0-4.004-3.246-7.25-7.25-7.25h-28.998C4921.974,254.465,4899.249,277.191,4899.249,305.213z"/>
			<path d="M5138.363,392.208c-3.928,0-7.126-3.2-7.126-7.134V225.344c0-3.927,3.199-7.126,7.126-7.126h7.373v173.991H5138.363z
				 M5152.985,406.707c4.004,0,7.25-3.246,7.25-7.25v-188.49c0-4.004-3.246-7.25-7.25-7.25h-14.623
				c-11.935,0-21.625,9.691-21.625,21.626v159.731c0,11.94,9.689,21.633,21.625,21.633H5152.985z"/>
		</g>
	</g>
</g>
</svg>
