<?xml version="1.0" encoding="utf-8"?>
<!-- Generator: Adobe Illustrator 17.0.0, SVG Export Plug-In . SVG Version: 6.00 Build 0)  -->
<!DOCTYPE svg PUBLIC "-//W3C//DTD SVG 1.1//EN" "http://www.w3.org/Graphics/SVG/1.1/DTD/svg11.dtd">
<svg version="1.1" id="Layer_1" xmlns="http://www.w3.org/2000/svg" xmlns:xlink="http://www.w3.org/1999/xlink" x="0px" y="0px"
	 width="566.929px" height="566.929px" viewBox="4108.588 0 566.929 566.929" enable-background="new 4108.588 0 566.929 566.929"
	 xml:space="preserve">
<path d="M4478.667,351.676c1.409,1.41,3.26,2.118,5.11,2.118c1.85,0,3.701-0.708,5.11-2.118c2.826-2.826,2.826-7.395,0-10.221
	l-23.803-23.803l23.803-23.803c2.826-2.826,2.826-7.395,0-10.221s-7.395-2.826-10.221,0l-28.914,28.913
	c-2.826,2.826-2.826,7.395,0,10.221L4478.667,351.676z M4575.627,283.629c-2.827-2.826-7.395-2.826-10.221,0s-2.826,7.395,0,10.221
	l23.803,23.803l-23.803,23.803c-2.826,2.826-2.826,7.395,0,10.221c1.41,1.41,3.26,2.118,5.11,2.118c1.851,0,3.701-0.708,5.111-2.118
	l28.913-28.913c2.826-2.826,2.826-7.395,0-10.221L4575.627,283.629z M4509.459,353.035c1.034,0.513,2.14,0.759,3.224,0.759
	c2.653,0,5.205-1.46,6.477-3.997l28.913-57.826c1.786-3.571,0.34-7.915-3.231-9.7c-3.578-1.785-7.915-0.34-9.7,3.231l-28.913,57.826
	C4504.435,346.906,4505.888,351.243,4509.459,353.035z M4469.312,389.936h50.598c3.99,0,7.229-3.238,7.229-7.228
	c0-3.99-3.238-7.228-7.229-7.228h-50.598c-3.99,0-7.228,3.238-7.228,7.228C4462.084,386.697,4465.322,389.936,4469.312,389.936z
	 M4606.65,411.621c0-3.99-3.238-7.228-7.229-7.228h-108.424c-3.99,0-7.229,3.238-7.229,7.228s3.238,7.228,7.229,7.228h108.424
	C4603.412,418.849,4606.65,415.611,4606.65,411.621z M4490.997,433.305c-3.99,0-7.229,3.238-7.229,7.228
	c0,3.99,3.238,7.228,7.229,7.228h72.283c3.99,0,7.229-3.238,7.229-7.228c0-3.99-3.238-7.228-7.229-7.228H4490.997z M4519.91,462.219
	h-50.598c-3.99,0-7.228,3.238-7.228,7.228c0,3.99,3.238,7.228,7.228,7.228h50.598c3.99,0,7.229-3.238,7.229-7.228
	C4527.139,465.457,4523.9,462.219,4519.91,462.219z M4226.164,167.735c-3.246,0-7.228-3.99-7.228-7.228
	c0-3.997-3.238-7.228-7.229-7.228s-7.229,3.231-7.229,7.228c0,8.66,6.39,16.893,14.457,20.16v8.753c0,3.997,3.238,7.228,7.228,7.228
	c3.99,0,7.229-3.231,7.229-7.228v-8.753c8.066-3.267,14.457-11.5,14.457-20.16c0-16.632-12.96-19.668-19.921-21.295
	c-7.749-1.814-8.992-2.487-8.992-7.619c0-3.238,3.982-7.228,7.228-7.228c3.173,0,7.229,4.055,7.229,7.228
	c0,3.997,3.238,7.228,7.228,7.228c3.99,0,7.229-3.231,7.229-7.228c0-8.659-6.39-16.893-14.457-20.16v-8.753
	c0-3.997-3.238-7.228-7.229-7.228c-3.99,0-7.228,3.231-7.228,7.228v8.753c-8.067,3.267-14.457,11.5-14.457,20.16
	c0,16.972,13.105,20.037,20.146,21.692c7.951,1.858,8.768,2.537,8.768,7.221C4233.393,163.68,4229.337,167.735,4226.164,167.735z
	 M4211.708,232.789h122.881c3.99,0,7.229-3.231,7.229-7.228c0-3.997-3.238-7.228-7.229-7.228h-122.881
	c-3.99,0-7.229,3.231-7.229,7.228C4204.479,229.558,4207.717,232.789,4211.708,232.789z M4273.148,117.137h108.425
	c3.99,0,7.228-3.231,7.228-7.228c0-3.997-3.238-7.228-7.228-7.228h-108.425c-3.99,0-7.228,3.231-7.228,7.228
	C4265.92,113.905,4269.158,117.137,4273.148,117.137z M4273.148,146.05h21.685c3.99,0,7.228-3.231,7.228-7.228
	c0-3.997-3.238-7.228-7.228-7.228h-21.685c-3.99,0-7.228,3.231-7.228,7.228C4265.92,142.819,4269.158,146.05,4273.148,146.05z
	 M4374.344,138.821c0-3.997-3.238-7.228-7.229-7.228h-43.37c-3.99,0-7.228,3.231-7.228,7.228c0,3.997,3.238,7.228,7.228,7.228h43.37
	C4371.106,146.05,4374.344,142.819,4374.344,138.821z M4273.148,174.963h57.827c3.99,0,7.228-3.231,7.228-7.228
	c0-3.997-3.238-7.228-7.228-7.228h-57.827c-3.99,0-7.228,3.231-7.228,7.228C4265.92,171.732,4269.158,174.963,4273.148,174.963z
	 M4273.148,203.876h97.582c3.99,0,7.229-3.231,7.229-7.228c0-3.997-3.238-7.228-7.229-7.228h-97.582
	c-3.99,0-7.228,3.231-7.228,7.228C4265.92,200.645,4269.158,203.876,4273.148,203.876z M4211.708,263.703h21.685
	c3.99,0,7.228-3.231,7.228-7.228c0-3.997-3.238-7.228-7.228-7.228h-21.685c-3.99,0-7.229,3.231-7.229,7.228
	C4204.479,260.472,4207.717,263.703,4211.708,263.703z M4357.266,174.963h21.685c3.99,0,7.229-3.231,7.229-7.228
	c0-3.997-3.238-7.228-7.229-7.228h-21.685c-3.99,0-7.229,3.231-7.229,7.228C4350.037,171.732,4353.275,174.963,4357.266,174.963z
	 M4312.904,256.475c0-3.997-3.238-7.228-7.229-7.228h-43.37c-3.99,0-7.229,3.231-7.229,7.228c0,3.997,3.238,7.228,7.229,7.228h43.37
	C4309.666,263.703,4312.904,260.472,4312.904,256.475z M4635.149,194.772h-217.524V95.64v0h0.055
	c0-19.928-16.213-36.141-36.142-36.141h-0.055h-160.299h-14.457h-57.772h-0.055v0.003c-3.971,0.03-7.173,3.254-7.173,7.226
	s3.202,7.196,7.173,7.226v0.003c0.665,0,1.323,0.031,1.974,0.09c0.006,0.001,0.012,0.001,0.018,0.001
	c9.807,0.898,17.744,8.358,19.378,17.936h0.055c0.123,0.72,0.21,1.452,0.26,2.195v1.463v14.457v14.457v21.685v14.457v18.692v24.677
	v14.457v14.457v14.457v14.457v21.685v14.457v20.107v9.955c0,19.928,16.213,36.141,36.142,36.141h168.616v135.966
	c0,3.99,3.238,7.228,7.229,7.228h252.576c3.99,0,7.228-3.238,7.228-7.228V202C4642.377,198.01,4639.139,194.772,4635.149,194.772z
	 M4185.043,328.095V95.64v0h0.055c0-8.132-2.696-15.642-7.243-21.685h203.628c11.956,0,21.686,9.729,21.686,21.685v232.454
	c0,8.132,2.696,15.642,7.242,21.685h-203.683C4194.772,349.779,4185.043,340.05,4185.043,328.095z M4627.92,492.974h-238.12V364.236
	h49.51c3.997,0,7.228-3.238,7.228-7.228s-3.23-7.228-7.228-7.228c-11.956,0-21.686-9.729-21.686-21.685v-68.268h210.295V492.974z
	 M4627.92,245.37h-210.295v-36.142h210.295V245.37z M4372.335,313.673c-1.066-2.325-3.396-3.823-5.939-3.823
	c-0.954,0-1.877,0.204-2.745,0.606c-2.996,1.393-6.806,2.158-10.735,2.158c-2.613,0-5.116-0.347-7.259-1.006
	c-1.715-0.778-3.166-1.509-4.639-2.806l-0.139-0.123l-0.148-0.112c-0.278-0.234-1-1.16-1.432-1.714
	c-1.36-1.747-3.028-3.889-5.469-5.122c-1.838-0.927-3.751-1.397-5.689-1.397c-6.002,0-10.486,4.339-14.09,7.825
	c-0.105,0.102-0.217,0.209-0.333,0.322c-0.031-0.092-0.063-0.185-0.096-0.277c-0.933-2.583-3.408-4.318-6.157-4.318
	c-0.206,0-0.413,0.01-0.62,0.029l-0.025,0.002l-0.025,0.003c-3.808,0.403-7.017,3.194-10.415,6.15
	c-0.29,0.252-0.674,0.585-1.104,0.952c0.083-0.601,0.167-1.156,0.232-1.586c0.189-1.249,0.383-2.525,0.476-3.734l0.005-0.062
	l0.003-0.062c0.049-0.957,0.312-2.671,0.59-4.486l0.009-0.063c1.187-7.74,2.532-16.509-2.067-21.501
	c-1.205-1.318-2.958-2.081-4.795-2.081c-1.833,0-3.583,0.76-4.803,2.084c-8.782,9.548-15.622,20.525-22.236,31.141l-0.082,0.132
	c-3.574,5.734-7.27,11.663-11.134,17.099c-2.078,2.922-1.405,7.007,1.502,9.106c1.099,0.803,2.425,1.236,3.815,1.236
	c2.122,0,4.116-1.034,5.334-2.767c4.105-5.776,7.929-11.913,11.626-17.847l0.042-0.068c3.009-4.827,6.07-9.738,9.314-14.493
	c-0.071,0.611-0.125,1.187-0.154,1.717c-0.056,0.688-0.199,1.625-0.35,2.615c-0.583,3.839-1.301,8.559,0.249,12.625
	c1.318,3.48,3.763,5.836,6.879,6.625c0.75,0.187,1.513,0.28,2.283,0.28c3.494,0,6.662-1.881,9.554-4.146
	c0.787,0.998,1.873,1.77,3.168,2.181c1.273,0.407,2.59,0.615,3.902,0.615c6.196,0,10.779-4.428,14.461-7.986
	c1.038-1.005,3.587-3.475,4.803-4.056c0.333,0.384,0.762,0.933,1.053,1.306l0.031,0.04c1.032,1.324,2.192,2.812,3.639,3.94
	c2.827,2.46,5.682,3.824,8.142,4.912l0.227,0.1l0.235,0.076c3.542,1.149,7.6,1.756,11.733,1.756c5.801,0,11.549-1.187,16.185-3.342
	C4372.394,320.821,4373.824,316.936,4372.335,313.673z M4269.635,315.122L4269.635,315.122L4269.635,315.122L4269.635,315.122z
	 M4344.392,456.014l-28.913,28.913c-1.41,1.41-3.26,2.118-5.11,2.118s-3.701-0.708-5.11-2.118c-2.826-2.826-2.826-7.395,0-10.221
	l16.576-16.576H4241.7c-3.992,0-7.229-3.236-7.229-7.229v-56.88c0-3.992,3.236-7.229,7.229-7.229s7.229,3.236,7.229,7.229v49.651
	h72.902l-16.573-16.573c-2.826-2.826-2.826-7.395,0-10.221c2.826-2.826,7.395-2.826,10.221,0l28.913,28.913
	C4347.219,448.62,4347.219,453.188,4344.392,456.014z M4558.579,110.795v56.88c0,3.992-3.236,7.229-7.229,7.229
	s-7.229-3.236-7.229-7.229v-49.652h-72.903l16.573,16.573c2.826,2.826,2.826,7.395,0,10.221c-2.826,2.826-7.395,2.826-10.221,0
	l-28.913-28.913c-2.826-2.826-2.826-7.395,0-10.221l28.913-28.913c1.41-1.41,3.26-2.118,5.11-2.118s3.701,0.708,5.11,2.118
	c2.826,2.826,2.826,7.395,0,10.221l-16.575,16.575h80.134C4555.343,103.566,4558.579,106.802,4558.579,110.795z"/>
</svg>
