<svg xmlns="http://www.w3.org/2000/svg" xmlns:xlink="http://www.w3.org/1999/xlink" version="1.1" x="0px" y="0px" viewBox="0 0 100 100" enable-background="new 0 0 100 100" xml:space="preserve"><path d="M41,56h-9c-0.553,0-1,0.448-1,1s0.447,1,1,1h9c0.553,0,1-0.448,1-1S41.553,56,41,56z"></path><path d="M30,37c-2.757,0-5,2.243-5,5v16c0,2.757,2.243,5,5,5h3v2c0,2.757,2.243,5,5,5h11v4c0,2.757,2.243,5,5,5h21  c0.553,0,1-0.448,1-1s-0.447-1-1-1c-1.654,0-3-1.346-3-3V35c0-2.757-2.243-5-5-5H56v-4c0-2.757-2.243-5-5-5H30c-0.553,0-1,0.448-1,1  s0.447,1,1,1c1.654,0,3,1.346,3,3v11H30z M30,39h19v3H27C27,40.346,28.346,39,30,39z M46,32c1.654,0,3,1.346,3,3v2h-6v-2  C43,33.346,44.346,32,46,32z M44.414,48l-4-4h3.172l4,4H44.414z M38.414,48l-4-4h3.172l4,4H38.414z M32.414,48l-4-4h3.172l4,4  H32.414z M27,45.414L29.586,48H27V45.414z M49,46.586L46.414,44H49V46.586z M27,58v-8h22v2H32c-0.553,0-1,0.448-1,1s0.447,1,1,1h17  v2h-4c-0.553,0-1,0.448-1,1s0.447,1,1,1h4v3H30C28.346,61,27,59.654,27,58z M35,65v-2h6v2c0,1.654-1.346,3-3,3S35,66.654,35,65z   M41.975,68C42.609,67.162,43,66.13,43,65v-2h6v5H41.975z M70,35v39c0,1.125,0.373,2.164,1.002,3H54c-1.654,0-3-1.346-3-3V35  c0-1.125-0.373-2.164-1.002-3H67C68.654,32,70,33.346,70,35z M33.998,23H51c1.654,0,3,1.346,3,3v4h-8c-2.757,0-5,2.243-5,5v2h-6V26  C35,24.875,34.627,23.836,33.998,23z"></path><path d="M67,66H54c-0.553,0-1,0.448-1,1s0.447,1,1,1h13c0.553,0,1-0.448,1-1S67.553,66,67,66z"></path><path d="M67,70h-2c-0.553,0-1,0.448-1,1s0.447,1,1,1h2c0.553,0,1-0.448,1-1S67.553,70,67,70z"></path><path d="M58,70h-4c-0.553,0-1,0.448-1,1s0.447,1,1,1h4c0.553,0,1-0.448,1-1S58.553,70,58,70z"></path><path d="M54,64h3c0.553,0,1-0.448,1-1s-0.447-1-1-1h-3c-0.553,0-1,0.448-1,1S53.447,64,54,64z"></path><path d="M54,60h7c0.553,0,1-0.448,1-1s-0.447-1-1-1h-7c-0.553,0-1,0.448-1,1S53.447,60,54,60z"></path><path d="M54,56h3c0.553,0,1-0.448,1-1s-0.447-1-1-1h-3c-0.553,0-1,0.448-1,1S53.447,56,54,56z"></path><path d="M54,52h5c0.553,0,1-0.448,1-1s-0.447-1-1-1h-5c-0.553,0-1,0.448-1,1S53.447,52,54,52z"></path><path d="M54,48h3c0.553,0,1-0.448,1-1s-0.447-1-1-1h-3c-0.553,0-1,0.448-1,1S53.447,48,54,48z"></path><path d="M53,43c0,0.552,0.447,1,1,1h7c0.553,0,1-0.448,1-1s-0.447-1-1-1h-7C53.447,42,53,42.448,53,43z"></path><path d="M54,40h3c0.553,0,1-0.448,1-1s-0.447-1-1-1h-3c-0.553,0-1,0.448-1,1S53.447,40,54,40z"></path><path d="M53,35c0,0.552,0.447,1,1,1h5c0.553,0,1-0.448,1-1s-0.447-1-1-1h-5C53.447,34,53,34.448,53,35z"></path><path d="M65,64h2c0.553,0,1-0.448,1-1s-0.447-1-1-1h-2c-0.553,0-1,0.448-1,1S64.447,64,65,64z"></path><path d="M65,60h2c0.553,0,1-0.448,1-1s-0.447-1-1-1h-2c-0.553,0-1,0.448-1,1S64.447,60,65,60z"></path><path d="M65,56h2c0.553,0,1-0.448,1-1s-0.447-1-1-1h-2c-0.553,0-1,0.448-1,1S64.447,56,65,56z"></path><path d="M65,52h2c0.553,0,1-0.448,1-1s-0.447-1-1-1h-2c-0.553,0-1,0.448-1,1S64.447,52,65,52z"></path><path d="M65,48h2c0.553,0,1-0.448,1-1s-0.447-1-1-1h-2c-0.553,0-1,0.448-1,1S64.447,48,65,48z"></path><path d="M65,44h2c0.553,0,1-0.448,1-1s-0.447-1-1-1h-2c-0.553,0-1,0.448-1,1S64.447,44,65,44z"></path><path d="M65,40h2c0.553,0,1-0.448,1-1s-0.447-1-1-1h-2c-0.553,0-1,0.448-1,1S64.447,40,65,40z"></path><path d="M65,36h2c0.553,0,1-0.448,1-1s-0.447-1-1-1h-2c-0.553,0-1,0.448-1,1S64.447,36,65,36z"></path></svg>