<svg xmlns="http://www.w3.org/2000/svg" xmlns:xlink="http://www.w3.org/1999/xlink" version="1.1" x="0px" y="0px" viewBox="0 0 100 100" style="enable-background:new 0 0 100 100;" xml:space="preserve"><path d="M50,33c-7.6,0-14,6.4-14,14c0,3.8,1.9,8,3.8,12.1c1.7,3.7,3.2,7.1,3.2,9.9v8c0,0.2,0,0.3,0.1,0.4  c0,0,0,0,0,0l2,4c0.2,0.3,0.5,0.6,0.9,0.6h8c0.4,0,0.7-0.2,0.9-0.6l2-4c0,0,0,0,0,0C57,77.3,57,77.2,57,77v-8c0-2.7,1.6-6.1,3.2-9.8  C62.1,55.1,64,50.8,64,47C64,39.4,57.6,33,50,33z M53.4,80h-6.8l-1-2h8.8L53.4,80z M55,76H45v-2h10V76z M55,72H45v-2h10V72z   M58.4,58.4c-1.6,3.5-3,6.7-3.3,9.6H44.9c-0.3-3-1.8-6.3-3.4-9.7C39.8,54.4,38,50.4,38,47c0-6.4,5.6-12,12-12s12,5.6,12,12  C62,50.4,60.2,54.5,58.4,58.4z"></path><path d="M50,38c-5,0-9,4-9,9c0,0.6,0.4,1,1,1s1-0.4,1-1c0-3.9,3.1-7,7-7c0.6,0,1-0.4,1-1S50.6,38,50,38z"></path><path d="M51,29V19c0-0.6-0.4-1-1-1s-1,0.4-1,1v10c0,0.6,0.4,1,1,1S51,29.6,51,29z"></path><path d="M68.3,23.3l-7,7c-0.4,0.4-0.4,1,0,1.4c0.2,0.2,0.5,0.3,0.7,0.3s0.5-0.1,0.7-0.3l7-7c0.4-0.4,0.4-1,0-1.4  S68.7,22.9,68.3,23.3z"></path><path d="M38,32c0.3,0,0.5-0.1,0.7-0.3c0.4-0.4,0.4-1,0-1.4l-7-7c-0.4-0.4-1-0.4-1.4,0s-0.4,1,0,1.4l7,7  C37.5,31.9,37.7,32,38,32z"></path></svg>