<svg xmlns="http://www.w3.org/2000/svg" xmlns:xlink="http://www.w3.org/1999/xlink" viewBox="0 0 60 55" version="1.1" x="0px" y="0px"><title>127 -Plug In- (Outline)</title><desc>Created with Sketch.</desc><g stroke="none" stroke-width="1" fill="none" fill-rule="evenodd"><g transform="translate(-838.000000, -1791.000000)" fill="#000000"><g transform="translate(838.000000, 1791.000000)"><path d="M14,7.0038 L34,7.0038 C34.5522847,7.0038 35,6.55608475 35,6.0038 C35,5.45151525 34.5522847,5.0038 34,5.0038 L14,5.0038 C13.4477153,5.0038 13,5.45151525 13,6.0038 C13,6.55608475 13.4477153,7.0038 14,7.0038 Z"></path><path d="M28.2928932,1.71090678 L33.2928932,6.71090678 C33.6834175,7.10143107 34.3165825,7.10143107 34.7071068,6.71090678 C35.0976311,6.32038249 35.0976311,5.68721751 34.7071068,5.29669322 L29.7071068,0.296693219 C29.3165825,-0.0938310729 28.6834175,-0.0938310729 28.2928932,0.296693219 C27.9023689,0.687217511 27.9023689,1.32038249 28.2928932,1.71090678 Z"></path><path d="M29.7071068,11.7109068 L34.7071068,6.71090678 C35.0976311,6.32038249 35.0976311,5.68721751 34.7071068,5.29669322 C34.3165825,4.90616893 33.6834175,4.90616893 33.2928932,5.29669322 L28.2928932,10.2966932 C27.9023689,10.6872175 27.9023689,11.3203825 28.2928932,11.7109068 C28.6834175,12.1014311 29.3165825,12.1014311 29.7071068,11.7109068 Z"></path><path d="M54,54.004 L59,54.004 C59.5522847,54.004 60,53.5562847 60,53.004 L60,7.004 C60,6.45171525 59.5522847,6.004 59,6.004 L54,6.004 C53.4477153,6.004 53,6.45171525 53,7.004 L53,53.004 C53,53.5562847 53.4477153,54.004 54,54.004 Z M55,8.004 L58,8.004 L58,52.004 L55,52.004 L55,8.004 Z"></path><path d="M35,25.0038 L35,23.0038 L44,23.0038 C44.5517153,23.0038 45,23.4520847 45,24.0038 C45,24.5555153 44.5517153,25.0038 44,25.0038 L35,25.0038 Z M33,26.0038 C33,26.5560847 33.4477153,27.0038 34,27.0038 L44,27.0038 C45.6562847,27.0038 47,25.6600847 47,24.0038 C47,22.3475153 45.6562847,21.0038 44,21.0038 L34,21.0038 C33.4477153,21.0038 33,21.4515153 33,22.0038 L33,26.0038 Z"></path><path d="M35,37.0038 L35,35.0038 L44,35.0038 C44.5517153,35.0038 45,35.4520847 45,36.0038 C45,36.5555153 44.5517153,37.0038 44,37.0038 L35,37.0038 Z M33,38.0038 C33,38.5560847 33.4477153,39.0038 34,39.0038 L44,39.0038 C45.6562847,39.0038 47,37.6600847 47,36.0038 C47,34.3475153 45.6562847,33.0038 44,33.0038 L34,33.0038 C33.4477153,33.0038 33,33.4515153 33,34.0038 L33,38.0038 Z"></path><path d="M1,33.004 L5,33.004 C5.55228475,33.004 6,32.5562847 6,32.004 L6,28.004 C6,27.4517153 5.55228475,27.004 5,27.004 L1,27.004 C0.44771525,27.004 0,27.4517153 0,28.004 L0,32.004 C0,32.5562847 0.44771525,33.004 1,33.004 Z M2,31.004 L2,29.004 L4,29.004 L4,31.004 L2,31.004 Z"></path><path d="M10,28.0038 L10,24.6708 C10,24.1185153 9.55228475,23.6708 9,23.6708 C8.44771525,23.6708 8,24.1185153 8,24.6708 L8,28.0038 C8,28.5560847 8.44771525,29.0038 9,29.0038 C9.55228475,29.0038 10,28.5560847 10,28.0038 Z"></path><path d="M10,35.3368 L10,32.0038 C10,31.4515153 9.55228475,31.0038 9,31.0038 C8.44771525,31.0038 8,31.4515153 8,32.0038 L8,35.3368 C8,35.8890847 8.44771525,36.3368 9,36.3368 C9.55228475,36.3368 10,35.8890847 10,35.3368 Z"></path><path d="M6,25.8865822 L12,25.1365822 L12,34.8710178 L6,34.1210178 L6,25.8865822 Z M4,35.0038 C4,35.5081233 4.37553644,35.9335243 4.87596527,35.9960779 L12.8759653,36.9960779 C13.4728184,37.0706845 14,36.605298 14,36.0038 L14,24.0038 C14,23.402302 13.4728184,22.9369155 12.8759653,23.0115221 L4.87596527,24.0115221 C4.37553644,24.0740757 4,24.4994767 4,25.0038 L4,35.0038 Z"></path><path d="M31,41.0038 L31,19.0038 C31,18.4520847 31.4482847,18.0038 32,18.0038 C32.5517153,18.0038 33,18.4520847 33,19.0038 L33,41.0038 C33,41.5555153 32.5517153,42.0038 32,42.0038 C31.4482847,42.0038 31,41.5555153 31,41.0038 Z M29,41.0038 C29,42.6600847 30.3437153,44.0038 32,44.0038 C33.6562847,44.0038 35,42.6600847 35,41.0038 L35,19.0038 C35,17.3475153 33.6562847,16.0038 32,16.0038 C30.3437153,16.0038 29,17.3475153 29,19.0038 L29,41.0038 Z"></path><path d="M29,20.1418906 L29,39.865696 L16.8327333,38.2862208 C15.2118483,38.1651305 14,36.8601156 14,35.2889 L14,24.7189 C14,23.1477189 15.2119049,21.8424153 16.77803,21.726156 L29,20.1418906 Z M12,35.2889 C12,37.9074468 14.0199149,40.0826521 16.630445,40.2751912 L29.8712667,41.9955792 C30.4696451,42.0732568 31,41.6072992 31,41.0039 L31,19.0039 C31,18.4005305 30.4696948,17.9345817 29.87134,18.0122112 L16.57534,19.7372112 C14.0195553,19.9254248 12,22.1006225 12,24.7189 L12,35.2889 Z"></path><path d="M29,35.0038 L26,35.0038 C23.2392847,35.0038 21,32.7645153 21,30.0038 C21,27.2430847 23.2392847,25.0038 26,25.0038 L29,25.0038 L29,35.0038 Z M19,30.0038 C19,33.8690847 22.1347153,37.0038 26,37.0038 L30,37.0038 C30.5522847,37.0038 31,36.5560847 31,36.0038 L31,24.0038 C31,23.4515153 30.5522847,23.0038 30,23.0038 L26,23.0038 C22.1347153,23.0038 19,26.1385153 19,30.0038 Z"></path><path d="M51.983,42.0038 C51.441208,42.0038 51,41.5624384 51,41.0198 L51,18.9868 C51,18.4450847 51.4412847,18.0038 51.983,18.0038 L53,18.0038 L53,42.0038 L51.983,42.0038 Z M54,44.0038 C54.5522847,44.0038 55,43.5560847 55,43.0038 L55,17.0038 C55,16.4515153 54.5522847,16.0038 54,16.0038 L51.983,16.0038 C50.3367153,16.0038 49,17.3405153 49,18.9868 L49,41.0198 C49,42.6668521 50.3364826,44.0038 51.983,44.0038 L54,44.0038 Z"></path></g></g></g></svg>