<svg xmlns="http://www.w3.org/2000/svg" xmlns:xlink="http://www.w3.org/1999/xlink" version="1.1" x="0px" y="0px" viewBox="0 0 100 100" style="enable-background:new 0 0 100 100;" xml:space="preserve"><path d="M20,81c0,0.6,0.4,1,1,1h30c0.6,0,1-0.4,1-1s-0.4-1-1-1H37.6L24.2,52.2L38,38.4l2,2V43  c0,5.4,2.9,10.4,7.5,12.9C47.7,56,47.8,56,48,56c0.3,0,0.5-0.1,0.7-0.3l5.4-5.4c1.4,1.1,3.1,1.7,4.9,1.7c2.1,0,4.1-0.8,5.7-2.3  c1.5-1.5,2.3-3.5,2.3-5.7c0-1.8-0.6-3.5-1.7-4.9l5.4-5.4c0.3-0.3,0.4-0.9,0.1-1.3C67,26.7,60.5,26,56,26h-1.6l-7.7-7.7  c-0.4-0.4-1-0.4-1.4,0l-13,13c-0.4,0.4-0.4,1,0,1.4l4.3,4.3L22.3,51.3c0,0,0,0,0,0c0,0.1-0.1,0.1-0.1,0.2c0,0.1-0.1,0.1-0.1,0.2  c0,0.1,0,0.1,0,0.2c0,0.1,0,0.1,0,0.2c0,0.1,0,0.1,0,0.2c0,0.1,0,0.1,0.1,0.2c0,0,0,0,0,0L35.4,80H21C20.4,80,20,80.4,20,81z   M63.2,48.2C62.1,49.4,60.6,50,59,50c-1.3,0-2.5-0.4-3.5-1.1l8.4-8.4c0.7,1,1.1,2.2,1.1,3.5C65,45.6,64.4,47.1,63.2,48.2z M34.4,32  L46,20.4l7.3,7.3c0.2,0.2,0.4,0.3,0.7,0.3h2c3.9,0,9.4,0.5,12.7,4.9l-5.5,5.5l0,0v0L47.8,53.7C44.2,51.5,42,47.4,42,43v-3  c0-0.3-0.1-0.5-0.3-0.7L34.4,32z"></path><path d="M67.3,52.3c-0.4,0.4-0.4,1,0,1.4l5,5c0.2,0.2,0.5,0.3,0.7,0.3s0.5-0.1,0.7-0.3c0.4-0.4,0.4-1,0-1.4l-5-5  C68.3,51.9,67.7,51.9,67.3,52.3z"></path><path d="M57,57v6c0,0.6,0.4,1,1,1s1-0.4,1-1v-6c0-0.6-0.4-1-1-1S57,56.4,57,57z"></path><path d="M79,46c0-0.6-0.4-1-1-1h-7c-0.6,0-1,0.4-1,1s0.4,1,1,1h7C78.6,47,79,46.6,79,46z"></path></svg>