<svg xmlns="http://www.w3.org/2000/svg" xmlns:xlink="http://www.w3.org/1999/xlink" version="1.1" x="0px" y="0px" viewBox="0 0 100 100" enable-background="new 0 0 100 100" xml:space="preserve"><path d="M49.308,18.551c0.789,0,1.428-0.638,1.428-1.427c0-0.788-0.639-1.427-1.428-1.427h-1.82c-0.788,0-1.427,0.639-1.427,1.427  c0,0.789,0.639,1.427,1.427,1.427H49.308z"></path><path d="M63.264,18.551h1.821c0.788,0,1.427-0.638,1.427-1.427c0-0.788-0.639-1.427-1.427-1.427h-1.821  c-0.789,0-1.426,0.639-1.426,1.427C61.838,17.913,62.475,18.551,63.264,18.551z"></path><path d="M55.377,18.551h1.82c0.787,0,1.426-0.638,1.426-1.427c0-0.788-0.639-1.427-1.426-1.427h-1.82  c-0.789,0-1.428,0.639-1.428,1.427C53.949,17.913,54.588,18.551,55.377,18.551z"></path><path d="M78.311,57.143c-0.397-0.506-0.86-0.928-1.361-1.258l0.07-0.054c1.102-0.867,1.865-2.046,2.15-3.324  c0.302-1.361,0.018-2.728-0.781-3.744c-0.441-0.559-1.018-0.985-1.676-1.268c1.148-1.41,1.01-3.704-0.437-5.546  c-0.568-0.724-1.274-1.276-2.027-1.628c1.69-2.897,2.181-5.324,1.451-7.223c-0.81-2.102-2.731-2.654-2.95-2.711  s-0.438-0.054-0.646-0.012V2.677c0-0.789-0.64-1.427-1.428-1.427h-6.396c-0.789,0-1.428,0.639-1.428,1.427  c0,3.621-2.945,6.567-6.566,6.567c-3.622,0-6.568-2.946-6.568-6.567c0-0.789-0.639-1.427-1.427-1.427h-6.397  c-0.788,0-1.427,0.639-1.427,1.427v26.578c-0.79-0.264-1.626-0.229-2.437,0.11c-2.698,1.13-4.502,5.416-4.82,6.226  c-3.1,7.234-5.027,18.446-2.715,25.877c2.262,7.269-0.795,10.622-0.916,10.75c-0.042,0.043-0.082,0.085-0.118,0.134l-1.257,1.643  l-0.946-0.548c-0.573-0.333-1.3-0.228-1.754,0.255L4.148,96.374c-0.39,0.414-0.497,1.021-0.271,1.543s0.741,0.862,1.311,0.862  h36.641c0.478,0,0.924-0.24,1.189-0.638l6.628-9.977c0.218-0.327,0.291-0.731,0.201-1.113c-0.002-0.009-0.005-0.016-0.007-0.022  c11.536-3.753,24.352-19.936,25.784-21.782l2.622-2.058c0.854-0.671,1.314-1.756,1.263-2.974  C79.462,59.157,79.036,58.065,78.311,57.143z M66.073,63.89c0.186,0.699,0.532,1.403,1.04,2.049  c0.349,0.445,0.751,0.822,1.182,1.134H65.6c-0.159-1.049-0.5-2.04-0.978-2.945C65.11,64.111,65.596,64.032,66.073,63.89z   M72.422,55.776l-5.241,4.115c-0.112,0.087-0.214,0.182-0.311,0.281l-0.526,0.414c-0.569,0.445-1.231,0.691-1.869,0.691  c-0.328,0-0.933-0.071-1.312-0.555c-0.623-0.792-0.217-2.196,0.886-3.062l8.912-7c0.568-0.446,1.232-0.692,1.869-0.692  c0.326,0,0.934,0.071,1.313,0.557c0.369,0.469,0.309,1.054,0.241,1.36c-0.14,0.627-0.55,1.246-1.126,1.697l-2.554,2.007  C72.609,55.65,72.511,55.705,72.422,55.776z M61.914,52.551H50.66c-0.649,0-1.178-0.528-1.178-1.178V27.151  c0-0.649,0.528-1.178,1.178-1.178h11.254c0.648,0,1.177,0.529,1.177,1.178v24.222C63.091,52.022,62.562,52.551,61.914,52.551z   M65.933,51.627c0.196,0.165,0.404,0.311,0.615,0.441l-0.844,0.663C65.83,52.382,65.908,52.013,65.933,51.627z M74.447,45.75  l-5.243,4.117c-0.286,0.225-1.2-0.019-1.881-0.886c-0.354-0.45-0.569-0.973-0.589-1.434c-0.011-0.284,0.054-0.509,0.174-0.604  l5.242-4.119c0.065-0.052,0.162-0.078,0.289-0.078c0.415,0,1.069,0.298,1.593,0.963C74.743,44.619,74.704,45.547,74.447,45.75z   M73.049,34.157c0.208,0.575,0.301,1.825-0.944,4.153v-5.13C72.313,33.267,72.824,33.534,73.049,34.157z M43.322,4.104h3.652  c0.689,4.52,4.603,7.994,9.313,7.994c4.709,0,8.625-3.474,9.312-7.994h3.65v37.37l-3.305,2.598v-16.92  c0-2.224-1.809-4.032-4.031-4.032H50.66c-2.223,0-4.032,1.809-4.032,4.032v24.222c0,2.223,1.809,4.031,4.032,4.031h11.254  c0.141,0,0.277-0.006,0.413-0.021l-0.042,0.034c-1.481,1.163-2.273,2.847-2.261,4.442c-1.148-0.499-2.41-0.782-3.737-0.782  c-4.711,0-8.624,3.474-9.313,7.994h-3.652V4.104z M41.062,95.924H8.492l18.316-19.44L46.427,87.85L41.062,95.924z M46.913,84.831  l-4.552-2.636l-11.665-6.76l0.993-1.296c0.601-0.665,4.159-5.076,1.533-13.52c-2.085-6.698-0.211-17.317,2.628-23.944  c0.648-1.642,2.095-4.179,3.285-4.678c0.22-0.092,0.349-0.075,0.477-0.021c0.281,0.119,0.579,0.14,0.857,0.08v36.441  c0,0.789,0.639,1.426,1.427,1.426h6.397c0.788,0,1.427-0.637,1.427-1.426c0-3.621,2.946-6.568,6.568-6.568  c3.621,0,6.566,2.947,6.566,6.568c0,0.789,0.639,1.426,1.428,1.426h3.57C62.403,75.817,53.956,83.713,46.913,84.831z M76.48,60.944  l-5.24,4.116c-0.287,0.227-1.2-0.018-1.883-0.884c-0.635-0.808-0.671-1.63-0.488-1.943l5.436-4.271  c0.05-0.013,0.106-0.021,0.17-0.021c0.416,0,1.068,0.299,1.592,0.965c0.354,0.45,0.569,0.974,0.588,1.434  C76.667,60.622,76.603,60.849,76.48,60.944z"></path></svg>