<svg xmlns="http://www.w3.org/2000/svg" xmlns:xlink="http://www.w3.org/1999/xlink" version="1.1" x="0px" y="0px" viewBox="0 0 100 100" enable-background="new 0 0 100 100" xml:space="preserve"><g><path d="M28,75h44c0.552,0,1-0.448,1-1V25c0-0.552-0.448-1-1-1H28c-0.552,0-1,0.448-1,1v49   C27,74.552,27.448,75,28,75z M29,73V33h42v40H29z M71,26v5H29v-5H71z"></path><path d="M43.293,45.707C43.488,45.902,43.744,46,44,46s0.512-0.098,0.707-0.293c0.391-0.391,0.391-1.023,0-1.414   L41.414,41l3.293-3.293c0.391-0.391,0.391-1.023,0-1.414s-1.023-0.391-1.414,0l-4,4c-0.391,0.391-0.391,1.023,0,1.414   L43.293,45.707z"></path><path d="M56.707,36.293c-0.391-0.391-1.023-0.391-1.414,0s-0.391,1.023,0,1.414L58.586,41l-3.293,3.293   c-0.391,0.391-0.391,1.023,0,1.414C55.488,45.902,55.744,46,56,46s0.512-0.098,0.707-0.293l4-4c0.391-0.391,0.391-1.023,0-1.414   L56.707,36.293z"></path><path d="M47.553,45.895C47.696,45.966,47.849,46,47.999,46c0.367,0,0.72-0.202,0.896-0.553l4-8   c0.247-0.494,0.047-1.095-0.447-1.342c-0.495-0.247-1.095-0.047-1.342,0.447l-4,8C46.858,45.047,47.059,45.647,47.553,45.895z"></path><path d="M33,51h7c0.552,0,1-0.448,1-1s-0.448-1-1-1h-7c-0.552,0-1,0.448-1,1S32.448,51,33,51z"></path><path d="M52,54c0-0.552-0.448-1-1-1H36c-0.552,0-1,0.448-1,1s0.448,1,1,1h15C51.552,55,52,54.552,52,54z"></path><path d="M36,57c-0.552,0-1,0.448-1,1s0.448,1,1,1h10c0.552,0,1-0.448,1-1s-0.448-1-1-1H36z"></path><path d="M58,61H36c-0.552,0-1,0.448-1,1s0.448,1,1,1h22c0.552,0,1-0.448,1-1S58.552,61,58,61z"></path><path d="M51,65H36c-0.552,0-1,0.448-1,1s0.448,1,1,1h15c0.552,0,1-0.448,1-1S51.552,65,51,65z"></path><path d="M40,69h-7c-0.552,0-1,0.448-1,1s0.448,1,1,1h7c0.552,0,1-0.448,1-1S40.552,69,40,69z"></path></g></svg>