<svg xmlns="http://www.w3.org/2000/svg" xmlns:xlink="http://www.w3.org/1999/xlink" version="1.1" x="0px" y="0px" viewBox="0 0 100 100" enable-background="new 0 0 100 100" xml:space="preserve"><path d="M19,82h6c0.553,0,1-0.447,1-1v-3h9c0.553,0,1-0.447,1-1v-2h1.723l9.036,5.421  c1.777,1.066,3.769,1.596,5.756,1.596c2.284,0,4.563-0.699,6.501-2.085l20.805-14.86c0.679-0.484,1.107-1.239,1.177-2.071  s-0.23-1.647-0.82-2.237l-0.425-0.425c-2.147-2.148-5.271-2.886-8.154-1.924l-16.327,5.442l-4.806-4.806  C49.143,57.729,47.385,57,45.515,57H36v-2c0-0.553-0.447-1-1-1h-9v-1c0-0.553-0.447-1-1-1h-6c-0.553,0-1,0.447-1,1v28  C18,81.553,18.447,82,19,82z M45.515,59c1.336,0,2.592,0.521,3.536,1.465l5.887,5.887c0.778,0.778,1.182,1.837,1.078,2.832  c-0.188,1.828-1.547,2.501-2.122,2.705c-1.161,0.415-2.411,0.179-3.187-0.596l-6-6c-0.391-0.391-1.023-0.391-1.414,0  s-0.391,1.023,0,1.414l6,6c0.9,0.9,2.152,1.381,3.456,1.381c0.604,0,1.218-0.103,1.814-0.314c1.943-0.69,3.23-2.329,3.442-4.385  c0.144-1.395-0.29-2.796-1.198-3.938l15.423-5.141c2.159-0.718,4.5-0.166,6.107,1.441l0.425,0.425  c0.237,0.237,0.253,0.515,0.241,0.658s-0.072,0.414-0.346,0.609l-20.805,14.86c-2.979,2.127-6.93,2.283-10.065,0.401l-9.273-5.563  C38.359,73.049,38.182,73,38,73h-2V59H45.515z M34,56v20h-8V56H34z M20,54h4v1v22v3h-4V54z"></path><circle cx="31" cy="72" r="2"></circle><path d="M58,50c-0.448,0-1-0.551-1-1c0-0.552-0.447-1-1-1s-1,0.448-1,1c0,1.198,0.884,2.337,2,2.789V53  c0,0.553,0.447,1,1,1s1-0.447,1-1v-1.211c1.116-0.452,2-1.591,2-2.789c0-1.5-1.274-2.454-2.398-3.296C57.851,45.141,57,44.503,57,44  c0-0.449,0.552-1,1-1c0.439,0,1,0.561,1,1c0,0.552,0.447,1,1,1s1-0.448,1-1c0-1.199-0.884-2.337-2-2.789V40c0-0.552-0.447-1-1-1  s-1,0.448-1,1v1.211c-1.116,0.452-2,1.59-2,2.789c0,1.504,1.276,2.46,2.402,3.304C58.151,47.865,59,48.501,59,49  C59,49.439,58.439,50,58,50z"></path><path d="M58,59c6.617,0,12-5.383,12-12c0-6.617-5.383-12-12-12s-12,5.383-12,12C46,53.617,51.383,59,58,59z M58,37  c5.514,0,10,4.486,10,10c0,5.514-4.486,10-10,10s-10-4.486-10-10C48,41.486,52.486,37,58,37z"></path><path d="M51,34v-8c0-0.552-0.447-1-1-1s-1,0.448-1,1v8c0,0.552,0.447,1,1,1S51,34.552,51,34z"></path><path d="M57,31c0,0.552,0.447,1,1,1s1-0.448,1-1v-3c0-0.552-0.447-1-1-1s-1,0.448-1,1V31z"></path><path d="M58,25c0.553,0,1-0.448,1-1v-5c0-0.552-0.447-1-1-1s-1,0.448-1,1v5C57,24.552,57.447,25,58,25z"></path><path d="M55,32V22c0-0.552-0.447-1-1-1s-1,0.448-1,1v10c0,0.552,0.447,1,1,1S55,32.552,55,32z"></path><path d="M63,32V22c0-0.552-0.447-1-1-1s-1,0.448-1,1v10c0,0.552,0.447,1,1,1S63,32.552,63,32z"></path><path d="M67,34v-8c0-0.552-0.447-1-1-1s-1,0.448-1,1v8c0,0.552,0.447,1,1,1S67,34.552,67,34z"></path></svg>