<svg xmlns="http://www.w3.org/2000/svg" xmlns:xlink="http://www.w3.org/1999/xlink" xml:space="preserve" version="1.1" style="shape-rendering:geometricPrecision;text-rendering:geometricPrecision;image-rendering:optimizeQuality;" viewBox="0 0 50000 50000" x="0px" y="0px" fill-rule="evenodd" clip-rule="evenodd"><defs><style type="text/css">
   
    .fil0 {fill:black}
   
  </style></defs><g><g><path class="fil0" d="M22082 22611c-333,-430 -809,-742 -1139,-1145 -310,-378 -602,-1024 -857,-1452 -814,-1369 -319,-1947 186,-3445 1513,-4489 1014,-5126 3749,-5379 836,-78 1362,-25 1771,490 2383,3000 1974,2310 1029,4292 -1723,3614 -1165,3059 -3788,2774 -1022,-111 -957,-267 -1665,248 -160,1296 663,1011 1640,1246 8,512 -87,909 -258,1331 -190,469 -332,799 -668,1040zm2384 -2175c2230,-414 1943,-402 3156,-2822 1158,-2310 1680,-2567 1204,-4406 505,194 1020,429 1151,906 119,436 212,1135 287,1587 188,1126 662,2206 -56,3026l-2662 3012c-204,334 -282,1062 -368,1544 -916,5154 -3467,12468 -7753,14912 -1307,746 -1786,601 -2861,262 -2544,-849 -5563,-2222 -7662,-3688 -816,-569 -1409,-1048 -2086,-1696 -368,-352 -865,-958 -1256,-1404 -850,-971 -1304,-547 -2157,204 -587,518 -1040,1379 2,1611 512,-17 838,-402 1157,-616 545,346 1523,2104 5443,4263 2099,1156 4197,2086 6680,2902 1567,515 2257,167 3525,-616 4694,-2896 7511,-10393 8328,-15701 34,-220 101,-498 195,-895 285,-1203 2921,-2756 3287,-4576 170,-850 -290,-2519 -443,-3424 -420,-2489 -996,-2359 -3912,-3963 -898,-493 -1527,-983 -2775,-1113 -2699,-281 -4220,840 -4875,2889 -367,1144 -1819,5143 -1838,6088 -23,1132 695,2128 1145,2894 1062,1805 1411,1232 1786,2202 -1982,925 -4104,3256 -4468,3430 -459,-1592 -1799,-3516 -2685,-4359 -1164,-1109 -2720,-1942 -5002,-2054 -422,-1585 -2080,-3048 -4072,-3197 -2346,-302 -1805,1494 -1131,1460 466,73 887,-88 1533,66 958,227 1561,766 2056,1613 220,376 366,987 544,1247 319,465 860,255 1514,285 2342,106 4139,1852 5159,3760 211,395 1030,2143 1010,2634 -25,601 -844,1913 -501,3035 162,532 847,641 1198,264 277,-299 175,-1022 269,-1512 192,-1002 807,-1720 1287,-2295 2181,-2620 6225,-3254 6647,-7759z"></path><path class="fil0" d="M25660 32248c1260,2581 2895,4816 4915,5969 1307,746 1786,601 2861,262 2544,-849 5563,-2223 7662,-3688 816,-570 1409,-1049 2086,-1697 368,-351 865,-957 1256,-1404 850,-971 1305,-547 2157,205 587,517 1040,1379 -2,1610 -512,-16 -838,-402 -1157,-615 -545,346 -1523,2103 -5443,4263 -2099,1156 -4197,2086 -6680,2901 -1567,515 -2257,167 -3525,-615 -1986,-1226 -3636,-3275 -4941,-5634 191,-391 742,-1124 811,-1557zm3337 -8358c1952,956 4005,3208 4363,3380 459,-1593 1799,-3516 2685,-4359 1164,-1109 2720,-1943 5002,-2055 422,-1585 2080,-3047 4072,-3197 2346,-302 1805,1495 1131,1461 -466,72 -887,-89 -1533,65 -958,228 -1561,767 -2056,1614 -220,376 -366,986 -544,1246 -319,465 -860,255 -1514,285 -2342,107 -4139,1853 -5159,3760 -211,395 -1030,2144 -1010,2635 25,601 844,1912 502,3034 -163,533 -848,642 -1199,264 -277,-299 -175,-1021 -269,-1512 -192,-1002 -807,-1719 -1287,-2295 -1143,-1373 -2799,-2202 -4176,-3327 51,-229 374,-1326 415,-1308 99,45 366,206 577,309z"></path><path class="fil0" d="M39656 31537c-522,-76 -755,-590 -491,-1063 121,-217 780,-556 1092,-816 1033,-859 1542,-1837 2141,-1741 614,98 804,638 469,1169 -269,427 -2354,2576 -3211,2451z"></path><path class="fil0" d="M9864 31537c522,-76 756,-590 492,-1063 -121,-217 -780,-556 -1092,-816 -1033,-859 -1542,-1837 -2141,-1741 -615,98 -804,638 -470,1169 270,427 2355,2576 3211,2451z"></path></g></g></svg>