<svg xmlns="http://www.w3.org/2000/svg" xmlns:xlink="http://www.w3.org/1999/xlink" version="1.1" x="0px" y="0px" viewBox="0 0 100 100" enable-background="new 0 0 100 100" xml:space="preserve"><path d="M33,54.414v26.459c-0.056,0.189-0.001,0.322,0.074,0.506c0.181,0.442,0.648,0.695,1.119,0.603  c0.25-0.05,0.463-0.189,0.607-0.382c0.279-0.303,1.883-1.896,3.195-3.19l3.298,3.298c0.391,0.391,1.023,0.391,1.414,0L46,78.414  l3.293,3.293c0.391,0.391,1.023,0.391,1.414,0L54,78.414l3.293,3.293c0.391,0.391,1.023,0.391,1.414,0L62,78.414l3.293,3.293  c0.391,0.391,1.023,0.391,1.414,0L70,78.414l3.293,3.293C73.484,81.898,73.74,82,74,82c0.129,0,0.259-0.024,0.383-0.076  C74.756,81.77,75,81.404,75,81V23c0-2.757-2.243-5-5-5H30c-2.757,0-5,2.243-5,5v31c0,0.404,0.244,0.77,0.617,0.924  C25.741,54.976,25.871,55,26,55c0.26,0,0.516-0.102,0.707-0.293L30,51.414L33,54.414z M70,20c1.654,0,3,1.346,3,3v55.586  l-2.293-2.293c-0.391-0.391-1.023-0.391-1.414,0L66,79.586l-3.293-3.293C62.512,76.098,62.256,76,62,76s-0.512,0.098-0.707,0.293  L58,79.586l-3.293-3.293c-0.391-0.391-1.023-0.391-1.414,0L50,79.586l-3.293-3.293c-0.391-0.391-1.023-0.391-1.414,0L42,79.586  l-3.293-3.293c-0.389-0.389-1.017-0.39-1.409-0.006C36.342,77.229,35.59,77.97,35,78.56V23c0-1.125-0.374-2.164-1.002-3H70z   M27,51.586V23c0-1.654,1.346-3,3-3s3,1.346,3,3v28.586l-2.293-2.293c-0.391-0.391-1.023-0.391-1.414,0L27,51.586z"></path><path d="M42,68c-0.449,0-1-0.552-1-1c0-0.553-0.448-1-1-1s-1,0.447-1,1c0,1.198,0.884,2.337,2,2.789V71  c0,0.553,0.448,1,1,1s1-0.447,1-1v-1.211c1.116-0.452,2-1.591,2-2.789c0-2.301-1.793-2.721-2.756-2.946  C41.172,63.803,41,63.71,41,63c0-0.448,0.551-1,1-1c0.439,0,1,0.561,1,1c0,0.553,0.448,1,1,1s1-0.447,1-1  c0-1.198-0.884-2.337-2-2.789V59c0-0.553-0.448-1-1-1s-1,0.447-1,1v1.211c-1.116,0.452-2,1.591-2,2.789  c0,2.348,1.813,2.772,2.787,3.001C42.887,66.258,43,66.352,43,67C43,67.439,42.439,68,42,68z"></path><path d="M54,62c0.439,0,1,0.561,1,1c0,0.553,0.448,1,1,1s1-0.447,1-1c0-1.198-0.884-2.337-2-2.789V59  c0-0.553-0.448-1-1-1s-1,0.447-1,1v1.211c-1.116,0.452-2,1.591-2,2.789c0,2.325,1.806,2.755,2.776,2.986  C54.874,66.248,55,66.353,55,67c0,0.439-0.561,1-1,1c-0.449,0-1-0.552-1-1c0-0.553-0.448-1-1-1s-1,0.447-1,1  c0,1.198,0.884,2.337,2,2.789V71c0,0.553,0.448,1,1,1s1-0.447,1-1v-1.211c1.116-0.452,2-1.591,2-2.789  c0-2.302-1.728-2.713-2.761-2.959C53.127,63.775,53,63.669,53,63C53,62.552,53.551,62,54,62z"></path><path d="M66,68c-0.449,0-1-0.552-1-1c0-0.553-0.448-1-1-1s-1,0.447-1,1c0,1.198,0.884,2.337,2,2.789V71  c0,0.553,0.448,1,1,1s1-0.447,1-1v-1.211c1.116-0.452,2-1.591,2-2.789c0-2.258-1.716-2.687-2.742-2.942  C65.129,63.775,65,63.666,65,63c0-0.448,0.551-1,1-1c0.439,0,1,0.561,1,1c0,0.553,0.448,1,1,1s1-0.447,1-1  c0-1.198-0.884-2.337-2-2.789V59c0-0.553-0.448-1-1-1s-1,0.447-1,1v1.211c-1.116,0.452-2,1.591-2,2.789  c0,2.305,1.736,2.738,2.773,2.997C66.874,66.272,67,66.376,67,67C67,67.439,66.439,68,66,68z"></path><path d="M40,26h15c0.552,0,1-0.447,1-1s-0.448-1-1-1H40c-0.552,0-1,0.447-1,1S39.448,26,40,26z"></path><path d="M40,30h3c0.552,0,1-0.447,1-1s-0.448-1-1-1h-3c-0.552,0-1,0.447-1,1S39.448,30,40,30z"></path><path d="M54,29c0-0.553-0.448-1-1-1h-6c-0.552,0-1,0.447-1,1s0.448,1,1,1h6C53.552,30,54,29.553,54,29z"></path><path d="M40,34h8c0.552,0,1-0.447,1-1s-0.448-1-1-1h-8c-0.552,0-1,0.447-1,1S39.448,34,40,34z"></path><path d="M51,33c0,0.553,0.448,1,1,1h7c0.552,0,1-0.447,1-1s-0.448-1-1-1h-7C51.448,32,51,32.447,51,33z"></path><path d="M40,38h17c0.552,0,1-0.447,1-1s-0.448-1-1-1H40c-0.552,0-1,0.447-1,1S39.448,38,40,38z"></path><path d="M40,42h15c0.552,0,1-0.447,1-1s-0.448-1-1-1H40c-0.552,0-1,0.447-1,1S39.448,42,40,42z"></path><path d="M40,46h3c0.552,0,1-0.447,1-1s-0.448-1-1-1h-3c-0.552,0-1,0.447-1,1S39.448,46,40,46z"></path><path d="M54,45c0-0.553-0.448-1-1-1h-6c-0.552,0-1,0.447-1,1s0.448,1,1,1h6C53.552,46,54,45.553,54,45z"></path><path d="M40,50h8c0.552,0,1-0.447,1-1s-0.448-1-1-1h-8c-0.552,0-1,0.447-1,1S39.448,50,40,50z"></path><path d="M59,48h-7c-0.552,0-1,0.447-1,1s0.448,1,1,1h7c0.552,0,1-0.447,1-1S59.552,48,59,48z"></path><path d="M40,54h17c0.552,0,1-0.447,1-1s-0.448-1-1-1H40c-0.552,0-1,0.447-1,1S39.448,54,40,54z"></path><path d="M64,26h4c0.552,0,1-0.447,1-1s-0.448-1-1-1h-4c-0.552,0-1,0.447-1,1S63.448,26,64,26z"></path><path d="M64,30h4c0.552,0,1-0.447,1-1s-0.448-1-1-1h-4c-0.552,0-1,0.447-1,1S63.448,30,64,30z"></path><path d="M64,34h4c0.552,0,1-0.447,1-1s-0.448-1-1-1h-4c-0.552,0-1,0.447-1,1S63.448,34,64,34z"></path><path d="M64,38h4c0.552,0,1-0.447,1-1s-0.448-1-1-1h-4c-0.552,0-1,0.447-1,1S63.448,38,64,38z"></path><path d="M64,42h4c0.552,0,1-0.447,1-1s-0.448-1-1-1h-4c-0.552,0-1,0.447-1,1S63.448,42,64,42z"></path><path d="M64,46h4c0.552,0,1-0.447,1-1s-0.448-1-1-1h-4c-0.552,0-1,0.447-1,1S63.448,46,64,46z"></path><path d="M64,50h4c0.552,0,1-0.447,1-1s-0.448-1-1-1h-4c-0.552,0-1,0.447-1,1S63.448,50,64,50z"></path><path d="M64,54h4c0.552,0,1-0.447,1-1s-0.448-1-1-1h-4c-0.552,0-1,0.447-1,1S63.448,54,64,54z"></path></svg>