<svg xmlns="http://www.w3.org/2000/svg" xmlns:xlink="http://www.w3.org/1999/xlink" version="1.1" x="0px" y="0px" viewBox="0 0 100 100" enable-background="new 0 0 100 100" xml:space="preserve"><path d="M79.752,61.338c-2.149-2.148-5.273-2.887-8.154-1.924l-16.328,5.442l-4.806-4.806  C49.143,58.729,47.385,58,45.515,58H36v-2c0-0.553-0.448-1-1-1h-9v-1c0-0.553-0.448-1-1-1h-6c-0.552,0-1,0.447-1,1v28  c0,0.553,0.448,1,1,1h6c0.552,0,1-0.447,1-1v-3h9c0.552,0,1-0.447,1-1v-2h1.723l9.035,5.421c1.777,1.066,3.769,1.596,5.756,1.596  c2.284,0,4.563-0.699,6.501-2.085l20.805-14.86c0.679-0.484,1.108-1.239,1.177-2.071s-0.23-1.647-0.82-2.237L79.752,61.338z M24,81  h-4V55h4v1v22V81z M34,77h-8V57h8V77z M79.004,63.835c-0.012,0.144-0.072,0.414-0.346,0.609l-20.805,14.86  c-2.979,2.128-6.929,2.284-10.065,0.401l-9.273-5.563C38.359,74.049,38.181,74,38,74h-2V60h9.515c1.336,0,2.592,0.521,3.536,1.465  l5.887,5.887c0.778,0.778,1.181,1.837,1.079,2.832c-0.188,1.828-1.547,2.501-2.123,2.705c-1.161,0.414-2.412,0.179-3.187-0.596l-6-6  c-0.391-0.391-1.023-0.391-1.414,0s-0.391,1.023,0,1.414l6,6c0.9,0.9,2.152,1.381,3.456,1.381c0.604,0,1.218-0.103,1.814-0.314  c1.944-0.69,3.23-2.329,3.442-4.385c0.144-1.395-0.291-2.797-1.198-3.938l15.423-5.141c2.16-0.717,4.499-0.166,6.107,1.441  l0.425,0.425C79,63.414,79.016,63.691,79.004,63.835z"></path><circle cx="31" cy="73" r="2"></circle><path d="M79,52c0.552,0,1-0.447,1-1V29c0-0.553-0.448-1-1-1H33c-0.552,0-1,0.447-1,1v22c0,0.553,0.448,1,1,1H79z   M39.92,30h32.16c0.44,3.059,2.861,5.479,5.92,5.92v8.16c-3.059,0.44-5.479,2.861-5.92,5.92H39.92  c-0.44-3.059-2.861-5.479-5.92-5.92v-8.16C37.059,35.479,39.479,33.059,39.92,30z M34,46.102c1.956,0.398,3.5,1.942,3.899,3.898H34  V46.102z M74.101,50c0.399-1.956,1.943-3.5,3.899-3.898V50H74.101z M78,33.898C76.044,33.5,74.5,31.956,74.101,30H78V33.898z   M37.899,30C37.5,31.956,35.956,33.5,34,33.898V30H37.899z"></path><path d="M56,48c3.309,0,6-3.589,6-8s-2.691-8-6-8s-6,3.589-6,8S52.691,48,56,48z M56,34c2.168,0,4,2.748,4,6  s-1.832,6-4,6s-4-2.748-4-6S53.832,34,56,34z"></path></svg>