<svg xmlns="http://www.w3.org/2000/svg" xmlns:xlink="http://www.w3.org/1999/xlink" version="1.1" x="0px" y="0px" viewBox="0 0 100 100" enable-background="new 0 0 100 100" xml:space="preserve"><path d="M59.071,52.372l-1.053-2.633l-4.084,10.621C53.784,60.746,53.413,61,53,61c-0.013,0-0.025,0-0.039,0  c-0.427,0-0.797-0.303-0.92-0.712l-5.195-17.319l-3.924,9.417C42.768,52.757,42.404,53,42,53H29.464C36.11,63.319,50,72,50,72  s13.881-8.683,20.527-19H60C59.591,53,59.224,52.751,59.071,52.372z"></path><path d="M46.077,39.615c0.163-0.391,0.56-0.636,0.975-0.614c0.422,0.021,0.785,0.307,0.906,0.711l5.159,17.197  l3.949-10.269c0.148-0.384,0.516-0.638,0.927-0.641c0.002,0,0.005,0,0.007,0c0.409,0,0.776,0.249,0.929,0.628L60.677,51h11.037  C73.125,48.371,74,45.667,74,43c0-6.93-5.82-13-13-13c-4.64,0-8.7,2.34-11,6c-2.3-3.66-6.36-6-11-6c-7.18,0-13,6.07-13,13  c0,2.33,0.66,4.69,1.77,7c0.16,0.334,0.332,0.667,0.51,1h13.053L46.077,39.615z"></path></svg>