<svg xmlns="http://www.w3.org/2000/svg" xmlns:xlink="http://www.w3.org/1999/xlink" version="1.1" x="0px" y="0px" viewBox="0 0 100 100" style="enable-background:new 0 0 100 100;" xml:space="preserve"><path d="M62,18H38c-3.3,0-6,2.7-6,6v52c0,3.3,2.7,6,6,6h24c3.3,0,6-2.7,6-6V24C68,20.7,65.3,18,62,18z M66,76  c0,2.2-1.8,4-4,4H38c-2.2,0-4-1.8-4-4v-2h32V76z M66,72H34V28h32V72z M66,26H34v-2c0-2.2,1.8-4,4-4h24c2.2,0,4,1.8,4,4V26z"></path><path d="M46,78h8c0.6,0,1-0.4,1-1s-0.4-1-1-1h-8c-0.6,0-1,0.4-1,1S45.4,78,46,78z"></path><path d="M50,62c3.5,0,6.6-1.4,9-3.6c0,0,0.1-0.1,0.1-0.1c2.4-2.4,3.9-5.6,3.9-9.3c0-7.2-5.8-13-13-13  s-13,5.8-13,13S42.8,62,50,62z M50,60c-2.7,0-5.2-1-7.1-2.6C44.2,54.7,47,53,50,53c3,0,5.8,1.7,7.1,4.4C55.2,59,52.7,60,50,60z   M50,38c6.1,0,11,4.9,11,11c0,2.6-0.9,5-2.4,6.9c-1.8-3-5-4.9-8.6-4.9c-3.6,0-6.8,1.9-8.6,4.9C39.9,54,39,51.6,39,49  C39,42.9,43.9,38,50,38z"></path><path d="M50,50c2.4,0,4-3.9,4-6c0-2.2-1.8-4-4-4s-4,1.8-4,4C46,46.1,47.6,50,50,50z M50,42c1.1,0,2,0.9,2,2  c0,1.5-1.3,4-2,4s-2-2.5-2-4C48,42.9,48.9,42,50,42z"></path></svg>