<svg xmlns="http://www.w3.org/2000/svg" xmlns:xlink="http://www.w3.org/1999/xlink" version="1.1" x="0px" y="0px" viewBox="0 0 63 63" enable-background="new 0 0 63 63" xml:space="preserve"><g><path d="M25.9,10.3c0,0,3.8-7.8,12.6-7.8c10.1,0,15.3,9.4,13.7,16.9c0,0,7.7-0.2,8.3,8.1c0.3,4.4-4.3,8.2-8,8h-10v2h10   c5.5,0,10-4.5,10-10c0-4.8-3.4-8.9-8.1-9.8C55.3,11,49.8,0.5,38.5,0.5c-5.3,0-10.3,2.7-13.3,7.1c-9.1-3.9-16.1,3.8-15.7,9.9   c0,0,0,0,0,0c-5,0.5-9,4.8-9,10c0,5.5,4.5,10,10,10h10v-2h-10c-4.4,0-8-3.6-8-8s3.6-8,8.1-8h1.1C10.1,12.5,17.6,5.1,25.9,10.3z"></path><path d="M48.5,16.5h2c0-6.6-5.4-12-12-12v2C44,6.5,48.5,11,48.5,16.5z"></path><rect x="26.5" y="39.5" width="10" height="2"></rect><path d="M53.5,55c0,3-2.5,5.5-5.5,5.5H38c-3,0-5.5-2.5-5.5-5.5v-2.5h3V48c3.5-1.2,6-4.6,6-8.5v-9h-2v-7c0-1.6-1.3-3-3-3s-3,1.3-3,3   v7h-4.1v-7c0-1.6-1.3-3-3-3s-3,1.3-3,3v7h-2v9c0,3.9,2.5,7.2,6,8.5v4.6h3V55c0,4.1,3.4,7.5,7.5,7.5h10c4.1,0,7.5-3.4,7.5-7.5   c0-3,2.5-5.5,5.5-5.5h1.5v-2H61C56.9,47.5,53.5,50.9,53.5,55z M35.6,23.5c0-0.5,0.4-1,1-1s1,0.4,1,1v7h-1.9V23.5z M25.5,23.5   c0-0.5,0.4-1,1-1s1,0.4,1,1v7h-1.9V23.5z M23.5,39.5v-7h16v7c0,3.9-3.1,7-7,7h-2C26.6,46.5,23.5,43.4,23.5,39.5z M29.5,48.4   c0.7,0.1,3.6,0.1,4,0v2.1h-4V48.4z"></path></g></svg>