<svg xmlns="http://www.w3.org/2000/svg" xmlns:xlink="http://www.w3.org/1999/xlink" version="1.1" x="0px" y="0px" viewBox="0 0 100 100" enable-background="new 0 0 100 100" xml:space="preserve"><g><path d="M3.938,71.5c-0.29,0-0.583-0.087-0.836-0.272c-0.647-0.467-0.796-1.371-0.332-2.023c3.341-4.7,6.5-9.773,9.554-14.673   c5.464-8.769,11.113-17.837,18.24-25.586c0.545-0.592,1.567-0.594,2.109-0.001c2.546,2.763,1.572,9.112,0.713,14.713   c-0.264,1.723-0.493,3.211-0.545,4.23c-0.065,0.843-0.208,1.8-0.364,2.829c-0.361,2.38-0.812,5.342-0.163,7.039   c0.202,0.534,0.541,1.191,1.009,1.313c1.368,0.357,4.366-2.248,6.548-4.144c2.463-2.143,4.59-3.993,6.52-4.197   c0.652-0.062,1.277,0.322,1.503,0.948c0.723,2.003,0.264,3.834-0.14,5.446c-0.068,0.271-0.139,0.549-0.202,0.823   c2.436-0.039,4.823-2.349,7.329-4.771c3.424-3.313,7.313-7.054,11.981-4.699c1.237,0.625,2.241,1.911,3.211,3.157   c0.666,0.854,1.353,1.738,1.982,2.211c1.734,1.526,3.41,2.335,5.127,3.108c5.572,1.797,12.975,1.38,18.274-1.084   c0.725-0.336,1.577-0.02,1.911,0.709c0.332,0.728,0.017,1.59-0.703,1.925c-5.914,2.749-14.151,3.214-20.508,1.153   c-1.993-0.881-3.964-1.839-5.912-3.558c-0.85-0.636-1.656-1.671-2.435-2.671c-0.74-0.947-1.575-2.022-2.235-2.355   c-2.677-1.35-5.074,0.683-8.701,4.197c-3.247,3.137-6.923,6.699-11.414,5.264c-0.646-0.205-1.063-0.832-1.002-1.512   c0.084-0.927,0.298-1.783,0.505-2.609c0.196-0.783,0.379-1.509,0.421-2.206c-1.083,0.703-2.455,1.893-3.633,2.917   c-3.097,2.694-6.304,5.466-9.132,4.76c-1.338-0.339-2.346-1.38-2.992-3.085c-0.922-2.419-0.431-5.658,0.004-8.52   c0.145-0.949,0.281-1.834,0.338-2.577c0.059-1.129,0.296-2.685,0.573-4.486c0.482-3.146,1.225-7.982,0.698-10.694   c-6.286,7.197-11.461,15.505-16.479,23.555c-3.077,4.939-6.259,10.047-9.652,14.821C4.828,71.293,4.387,71.5,3.938,71.5z"></path></g></svg>