<svg xmlns="http://www.w3.org/2000/svg" xmlns:xlink="http://www.w3.org/1999/xlink" version="1.1" x="0px" y="0px" viewBox="0 0 100 100" style="enable-background:new 0 0 100 100;" xml:space="preserve"><path d="M69,82c0.6,0,1-0.4,1-1V19c0-0.6-0.4-1-1-1H29c-0.6,0-1,0.4-1,1v62c0,0.6,0.4,1,1,1H69z M30,20h38v60H30V20  z"></path><path d="M63,23H35c-0.6,0-1,0.4-1,1v14c0,0.6,0.4,1,1,1h28c0.6,0,1-0.4,1-1V24C64,23.4,63.6,23,63,23z M62,37H36V25  h26V37z"></path><path d="M45,30h8c0.6,0,1-0.4,1-1s-0.4-1-1-1h-8c-0.6,0-1,0.4-1,1S44.4,30,45,30z"></path><path d="M63,42H35c-0.6,0-1,0.4-1,1v14c0,0.6,0.4,1,1,1h28c0.6,0,1-0.4,1-1V43C64,42.4,63.6,42,63,42z M62,56H36V44  h26V56z"></path><path d="M45,49h8c0.6,0,1-0.4,1-1s-0.4-1-1-1h-8c-0.6,0-1,0.4-1,1S44.4,49,45,49z"></path><path d="M63,61H35c-0.6,0-1,0.4-1,1v14c0,0.6,0.4,1,1,1h28c0.6,0,1-0.4,1-1V62C64,61.4,63.6,61,63,61z M62,75H36V63  h26V75z"></path><path d="M45,68h8c0.6,0,1-0.4,1-1s-0.4-1-1-1h-8c-0.6,0-1,0.4-1,1S44.4,68,45,68z"></path></svg>