<?xml version="1.0" encoding="utf-8"?>
<!-- Generator: Adobe Illustrator 17.0.0, SVG Export Plug-In . SVG Version: 6.00 Build 0)  -->
<!DOCTYPE svg PUBLIC "-//W3C//DTD SVG 1.1//EN" "http://www.w3.org/Graphics/SVG/1.1/DTD/svg11.dtd">
<svg version="1.1" id="Layer_1" xmlns="http://www.w3.org/2000/svg" xmlns:xlink="http://www.w3.org/1999/xlink" x="0px" y="0px"
	 width="255.118px" height="127.559px" viewBox="0 0 255.118 127.559" enable-background="new 0 0 255.118 127.559"
	 xml:space="preserve">
<g>
	<g>
		<path fill="#E7D5BE" d="M255.118,17.008V8.504c-4.695-0.002-8.501-3.808-8.501-8.504H8.505c0,4.697-3.807,8.504-8.504,8.504
			c0,0-0.001,0-0.001,0v8.504c0,0,0.001,0,0.001,0c4.697,0,8.504,3.807,8.504,8.504s-3.807,8.504-8.504,8.504c0,0-0.001,0-0.001,0
			v8.504c0,0,0.001,0,0.001,0c4.697,0,8.504,3.807,8.504,8.504s-3.807,8.504-8.504,8.504c0,0-0.001,0-0.001,0v8.504
			c0,0,0.001,0,0.001,0c4.697,0,8.504,3.807,8.504,8.504s-3.807,8.504-8.504,8.504c0,0-0.001,0-0.001,0v8.504c0,0,0.001,0,0.001,0
			c4.697,0,8.504,3.807,8.504,8.504s-3.807,8.504-8.504,8.504c0,0-0.001,0-0.001,0v8.504c0,0,0.001,0,0.001,0
			c4.697,0,8.504,3.807,8.504,8.504h238.112c0-4.696,3.806-8.502,8.501-8.504v-8.504c-4.695-0.002-8.501-3.808-8.501-8.504
			s3.806-8.502,8.501-8.504v-8.504c-4.695-0.002-8.501-3.808-8.501-8.504s3.806-8.502,8.501-8.504v-8.504
			c-4.695-0.002-8.501-3.808-8.501-8.504s3.806-8.502,8.501-8.504v-8.504c-4.695-0.002-8.501-3.808-8.501-8.504
			S250.423,17.01,255.118,17.008z"/>
		<path fill="#E7D5BE" d="M246.617,0c0,4.696,3.806,8.502,8.501,8.504v8.504c-4.695,0.002-8.501,3.808-8.501,8.504
			c0,4.696,3.806,8.502,8.501,8.504v8.504c-4.695,0.002-8.501,3.808-8.501,8.504c0,4.696,3.806,8.502,8.501,8.504v8.504
			c-4.695,0.002-8.501,3.808-8.501,8.504c0,4.696,3.806,8.502,8.501,8.504v8.504c-4.695,0.002-8.501,3.808-8.501,8.504
			c0,4.696,3.806,8.502,8.501,8.504v8.504c-4.695,0.002-8.501,3.808-8.501,8.504H8.505c0-4.697-3.807-8.504-8.504-8.504
			c0,0-0.001,0-0.001,0v-8.504c0,0,0.001,0,0.001,0c4.697,0,8.504-3.807,8.504-8.504s-3.807-8.504-8.504-8.504c0,0-0.001,0-0.001,0
			v-8.504c0,0,0.001,0,0.001,0c4.697,0,8.504-3.807,8.504-8.504s-3.807-8.504-8.504-8.504c0,0-0.001,0-0.001,0v-8.504
			c0,0,0.001,0,0.001,0c4.697,0,8.504-3.807,8.504-8.504c0-4.697-3.807-8.504-8.504-8.504c0,0-0.001,0-0.001,0v-8.504
			c0,0,0.001,0,0.001,0c4.697,0,8.504-3.807,8.504-8.504c0-4.697-3.807-8.504-8.504-8.504c0,0-0.001,0-0.001,0V8.504
			c0,0,0.001,0,0.001,0c4.697,0,8.504-3.807,8.504-8.504H246.617"/>
	</g>
	<rect x="14.175" y="8.504" fill="#16A4DD" width="226.772" height="110.551"/>
	<rect x="17.01" y="11.339" fill="#E7D5BE" width="221.102" height="104.882"/>
	<g>
		<path fill="#574A38" d="M41.439,77.432H26.878c-0.481,0-0.828-0.107-1.043-0.323c-0.215-0.215-0.323-0.562-0.323-1.043V51.493
			c0-0.48,0.108-0.827,0.323-1.043c0.215-0.215,0.562-0.323,1.043-0.323h12.097c2.477,0,4.311,0.475,5.499,1.422
			c1.188,0.948,1.782,2.409,1.782,4.38v1.82c0,1.062-0.183,1.928-0.549,2.598c-0.367,0.67-0.929,1.169-1.687,1.498
			c1.618,0.151,2.818,0.708,3.602,1.668c0.783,0.962,1.175,2.364,1.175,4.21v3.488c0,2.124-0.601,3.692-1.801,4.703
			C45.793,76.927,43.942,77.432,41.439,77.432z M34.045,56.575v4.095h3.223c0.48,0,0.841-0.126,1.08-0.379
			c0.241-0.252,0.361-0.632,0.361-1.138v-1.061c0-0.506-0.12-0.885-0.361-1.138c-0.24-0.252-0.601-0.379-1.08-0.379H34.045z
			 M34.045,66.51v4.475h4.93c0.481,0,0.841-0.127,1.081-0.38c0.24-0.252,0.36-0.631,0.36-1.137v-1.48c0-0.505-0.12-0.878-0.36-1.119
			c-0.241-0.24-0.601-0.36-1.081-0.36H34.045z"/>
		<path fill="#574A38" d="M73.672,77.432H54.37c-0.481,0-0.828-0.107-1.043-0.323c-0.215-0.215-0.323-0.562-0.323-1.043V51.493
			c0-0.48,0.108-0.827,0.323-1.043c0.215-0.215,0.562-0.323,1.043-0.323h5.878c0.48,0,0.827,0.108,1.042,0.323
			c0.215,0.216,0.323,0.563,0.323,1.043v18.772h5.196v-6.144c0-0.48,0.107-0.827,0.323-1.042c0.215-0.215,0.562-0.323,1.042-0.323
			h5.499c0.48,0,0.828,0.108,1.043,0.323c0.215,0.215,0.323,0.562,0.323,1.042v11.945c0,0.481-0.108,0.828-0.323,1.043
			C74.501,77.325,74.152,77.432,73.672,77.432z"/>
		<path fill="#574A38" d="M102.493,70.265c0,1.163-0.17,2.218-0.512,3.166c-0.342,0.948-0.948,1.758-1.82,2.428
			c-0.872,0.669-2.073,1.194-3.603,1.573C95.028,77.811,93.089,78,90.737,78c-2.351,0-4.299-0.189-5.84-0.568
			c-1.543-0.379-2.749-0.904-3.622-1.573c-0.872-0.67-1.479-1.48-1.82-2.428c-0.341-0.947-0.512-2.003-0.512-3.166V57.333
			c0-1.162,0.171-2.218,0.512-3.166c0.342-0.948,0.948-1.764,1.82-2.446c0.873-0.683,2.079-1.213,3.622-1.593
			c1.541-0.379,3.488-0.568,5.84-0.568c2.351,0,4.291,0.189,5.82,0.568c1.53,0.38,2.731,0.91,3.603,1.593
			c0.872,0.682,1.479,1.498,1.82,2.446c0.342,0.947,0.512,2.004,0.512,3.166V70.265z M87.552,68.899
			c0,0.506,0.189,0.929,0.569,1.271c0.379,0.341,1.251,0.512,2.616,0.512c1.365,0,2.237-0.171,2.616-0.512
			c0.379-0.342,0.568-0.765,0.568-1.271V58.698c0-0.48-0.189-0.891-0.568-1.233c-0.379-0.342-1.252-0.512-2.616-0.512
			c-1.366,0-2.237,0.17-2.616,0.512c-0.38,0.342-0.569,0.753-0.569,1.233V68.899z"/>
		<path fill="#574A38" d="M125.474,77.432h-9.253c-3.161,0-5.505-0.632-7.034-1.896c-1.53-1.264-2.295-3.211-2.295-5.841V57.902
			c0-2.63,0.765-4.583,2.295-5.859c1.529-1.277,3.873-1.916,7.034-1.916h9.253c0.48,0,0.827,0.108,1.043,0.323
			c0.214,0.216,0.322,0.563,0.322,1.043v4.589c0,0.48-0.108,0.828-0.322,1.042c-0.216,0.216-0.563,0.323-1.043,0.323h-7.623
			c-0.784,0-1.365,0.158-1.745,0.475c-0.379,0.315-0.568,0.79-0.568,1.422v9.025c0,0.633,0.189,1.095,0.568,1.385
			c0.38,0.29,0.961,0.435,1.745,0.435h7.623c0.48,0,0.827,0.108,1.043,0.323c0.214,0.216,0.322,0.563,0.322,1.043v4.512
			c0,0.481-0.108,0.828-0.322,1.043C126.301,77.325,125.954,77.432,125.474,77.432z"/>
		<path fill="#574A38" d="M138.368,77.432h-5.878c-0.481,0-0.828-0.107-1.043-0.323c-0.215-0.215-0.323-0.562-0.323-1.043V51.493
			c0-0.48,0.108-0.827,0.323-1.043c0.215-0.215,0.562-0.323,1.043-0.323h5.878c0.48,0,0.827,0.108,1.042,0.323
			c0.215,0.216,0.323,0.563,0.323,1.043v8.722h1.517l3.907-8.836c0.176-0.455,0.417-0.777,0.721-0.967
			c0.303-0.189,0.694-0.285,1.175-0.285h5.84c0.43,0,0.721,0.108,0.873,0.323c0.151,0.216,0.138,0.525-0.038,0.929l-3.868,8.836
			c1.416,0.076,2.547,0.575,3.395,1.498c0.847,0.923,1.27,2.143,1.27,3.66v10.694c0,0.481-0.108,0.828-0.323,1.043
			c-0.215,0.216-0.562,0.323-1.042,0.323h-5.841c-0.48,0-0.828-0.107-1.042-0.323c-0.216-0.215-0.323-0.562-0.323-1.043v-7.395
			c0-0.403-0.102-0.72-0.303-0.947c-0.203-0.228-0.506-0.342-0.91-0.342h-5.006v8.684c0,0.481-0.108,0.828-0.323,1.043
			C139.195,77.325,138.847,77.432,138.368,77.432z"/>
		<path fill="#574A38" d="M178.374,77.432h-17.595c-0.481,0-0.828-0.107-1.043-0.323c-0.215-0.215-0.323-0.562-0.323-1.043V51.493
			c0-0.48,0.108-0.827,0.323-1.043c0.215-0.215,0.562-0.323,1.043-0.323h17.595c0.48,0,0.827,0.108,1.043,0.323
			c0.215,0.216,0.323,0.563,0.323,1.043v4.437c0,0.481-0.108,0.828-0.323,1.043c-0.216,0.215-0.563,0.323-1.043,0.323h-10.467v2.92
			h7.395c0.481,0,0.828,0.108,1.043,0.323c0.215,0.215,0.323,0.562,0.323,1.042v4.058c0,0.481-0.108,0.828-0.323,1.043
			c-0.215,0.216-0.562,0.323-1.043,0.323h-7.395v3.261h10.467c0.48,0,0.827,0.108,1.043,0.323c0.215,0.215,0.323,0.562,0.323,1.042
			v4.437c0,0.481-0.108,0.828-0.323,1.043C179.202,77.325,178.854,77.432,178.374,77.432z"/>
		<path fill="#574A38" d="M197.107,77.432h-6.143c-0.481,0-0.828-0.107-1.043-0.323c-0.216-0.215-0.323-0.562-0.323-1.043V57.447
			h-5.575c-0.481,0-0.828-0.107-1.043-0.323c-0.215-0.214-0.322-0.562-0.322-1.042v-4.589c0-0.48,0.107-0.827,0.322-1.043
			c0.215-0.215,0.562-0.323,1.043-0.323h20.022c0.481,0,0.828,0.108,1.043,0.323c0.215,0.216,0.323,0.563,0.323,1.043v4.589
			c0,0.48-0.108,0.828-0.323,1.042c-0.215,0.216-0.562,0.323-1.043,0.323h-5.575v18.619c0,0.481-0.108,0.828-0.322,1.043
			C197.935,77.325,197.587,77.432,197.107,77.432z"/>
		<path fill="#574A38" d="M221.756,77.432h-11.984c-0.48,0-0.827-0.107-1.042-0.323c-0.216-0.215-0.323-0.562-0.323-1.043v-4.437
			c0-0.48,0.107-0.827,0.323-1.042c0.215-0.215,0.562-0.323,1.042-0.323h10.202c0.328,0,0.574-0.108,0.739-0.323
			c0.164-0.215,0.247-0.474,0.247-0.777c0-0.43-0.083-0.746-0.247-0.948c-0.164-0.203-0.411-0.315-0.739-0.342l-5.688-0.796
			c-1.77-0.252-3.192-0.835-4.266-1.745c-1.074-0.91-1.612-2.427-1.612-4.551v-3.981c0-2.149,0.695-3.799,2.085-4.95
			c1.391-1.15,3.312-1.725,5.764-1.725h10.619c0.48,0,0.827,0.108,1.042,0.323c0.215,0.216,0.323,0.563,0.323,1.043v4.512
			c0,0.481-0.108,0.828-0.323,1.043c-0.215,0.216-0.562,0.323-1.042,0.323h-8.836c-0.329,0-0.582,0.108-0.759,0.323
			c-0.176,0.215-0.265,0.487-0.265,0.815s0.089,0.607,0.265,0.835c0.177,0.227,0.43,0.354,0.759,0.379l5.65,0.758
			c1.77,0.253,3.198,0.835,4.285,1.745c1.086,0.91,1.631,2.427,1.631,4.551v3.982c0,2.149-0.701,3.799-2.105,4.949
			C226.098,76.857,224.183,77.432,221.756,77.432z"/>
	</g>
	<rect x="25.512" y="84.599" fill="#16A4DD" width="203.568" height="7.167"/>
	<rect x="25.512" y="35.353" fill="#16A4DD" width="203.568" height="7.167"/>
	<polygon fill="#574A38" points="127.559,96.378 129.311,101.771 134.981,101.771 130.394,105.103 132.146,110.496 127.559,107.163 
		122.972,110.496 124.724,105.103 120.137,101.771 125.807,101.771 	"/>
	<polygon fill="#574A38" points="127.559,17.008 129.311,22.401 134.981,22.401 130.394,25.733 132.146,31.126 127.559,27.793 
		122.972,31.126 124.724,25.733 120.137,22.401 125.807,22.401 	"/>
	<polygon fill="#574A38" points="110.552,96.378 112.304,101.771 117.974,101.771 113.387,105.103 115.139,110.496 110.552,107.163 
		105.965,110.496 107.717,105.103 103.13,101.771 108.8,101.771 	"/>
	<polygon fill="#574A38" points="110.552,17.008 112.304,22.401 117.974,22.401 113.387,25.733 115.139,31.126 110.552,27.793 
		105.965,31.126 107.717,25.733 103.13,22.401 108.8,22.401 	"/>
	<polygon fill="#574A38" points="144.568,96.378 146.32,101.771 151.99,101.771 147.403,105.103 149.155,110.496 144.568,107.163 
		139.98,110.496 141.733,105.103 137.145,101.771 142.815,101.771 	"/>
	<polygon fill="#574A38" points="144.568,17.008 146.32,22.401 151.99,22.401 147.403,25.733 149.155,31.126 144.568,27.793 
		139.98,31.126 141.733,25.733 137.145,22.401 142.815,22.401 	"/>
</g>
</svg>
